<svg width="42" height="30" viewBox="0 0 42 30" fill="none" xmlns="http://www.w3.org/2000/svg">
<rect width="42" height="30" rx="2" fill="white"/>
<mask id="mask0_2898_29454" style="mask-type:luminance" maskUnits="userSpaceOnUse" x="0" y="0" width="42" height="30">
<rect width="42" height="30" rx="2" fill="white"/>
</mask>
<g mask="url(#mask0_2898_29454)">
<path fill-rule="evenodd" clip-rule="evenodd" d="M21 22C24.866 22 28 18.866 28 15C28 11.134 24.866 8 21 8C17.134 8 14 11.134 14 15C14 18.866 17.134 22 21 22Z" fill="#E01B41"/>
<mask id="mask1_2898_29454" style="mask-type:luminance" maskUnits="userSpaceOnUse" x="14" y="8" width="14" height="14">
<path fill-rule="evenodd" clip-rule="evenodd" d="M21 22C24.866 22 28 18.866 28 15C28 11.134 24.866 8 21 8C17.134 8 14 11.134 14 15C14 18.866 17.134 22 21 22Z" fill="white"/>
</mask>
<g mask="url(#mask1_2898_29454)">
<path fill-rule="evenodd" clip-rule="evenodd" d="M14 16C16 17.875 19 19 21 16C23 13 27 13 28 16C29 19 28 22 28 22H14C14 22 12 14.125 14 16Z" fill="#0E4B9C"/>
</g>
<path opacity="0.75" fill-rule="evenodd" clip-rule="evenodd" d="M31.047 5.73482C30.8876 5.82687 30.833 6.03073 30.925 6.19016L33.5917 10.809C33.6837 10.9684 33.8876 11.023 34.047 10.931L35.2017 10.2643C35.3612 10.1723 35.4158 9.96839 35.3237 9.80896L32.6571 5.19016C32.565 5.03073 32.3612 4.9761 32.2017 5.06815L31.047 5.73482ZM28.4489 7.23482C28.2895 7.32687 28.2349 7.53073 28.3269 7.69016L30.9936 12.309C31.0857 12.4684 31.2895 12.523 31.4489 12.431L32.6037 11.7643C32.7631 11.6723 32.8177 11.4684 32.7257 11.309L30.059 6.69016C29.9669 6.53073 29.7631 6.4761 29.6037 6.56815L28.4489 7.23482ZM6.67631 20.1902C6.58426 20.0307 6.63888 19.8269 6.79831 19.7348L7.95301 19.0682C8.11245 18.9761 8.31631 19.0307 8.40836 19.1902L11.075 23.809C11.1671 23.9684 11.1124 24.1723 10.953 24.2643L9.79831 24.931C9.63888 25.023 9.43502 24.9684 9.34297 24.809L6.67631 20.1902ZM9.39639 18.2348C9.23696 18.3269 9.18233 18.5307 9.27438 18.6902L11.941 23.309C12.0331 23.4684 12.237 23.523 12.3964 23.431L13.5511 22.7643C13.7105 22.6723 13.7651 22.4684 13.6731 22.309L11.0064 17.6902C10.9144 17.5307 10.7105 17.4761 10.5511 17.5682L9.39639 18.2348ZM30.9936 17.6902C31.0857 17.5307 31.2895 17.4761 31.4489 17.5682L32.6036 18.2348C32.7631 18.3269 32.8177 18.5307 32.7257 18.6902L30.059 23.309C29.9669 23.4684 29.7631 23.523 29.6036 23.431L28.4489 22.7643C28.2895 22.6723 28.2349 22.4684 28.3269 22.309L30.9936 17.6902ZM34.047 19.0682C33.8876 18.9761 33.6837 19.0307 33.5917 19.1902L30.925 23.809C30.833 23.9684 30.8876 24.1723 31.047 24.2643L32.2017 24.931C32.3612 25.023 32.565 24.9684 32.6571 24.809L35.3237 20.1902C35.4158 20.0307 35.3612 19.8269 35.2017 19.7348L34.047 19.0682ZM9.34297 5.19016C9.43502 5.03073 9.63888 4.9761 9.79831 5.06815L10.953 5.73482C11.1124 5.82687 11.1671 6.03073 11.075 6.19016L8.40836 10.809C8.31631 10.9684 8.11245 11.023 7.95301 10.931L6.79831 10.2643C6.63888 10.1723 6.58426 9.96839 6.67631 9.80896L9.34297 5.19016ZM12.3964 6.56815C12.237 6.4761 12.0331 6.53073 11.941 6.69016L9.27438 11.309C9.18233 11.4684 9.23696 11.6723 9.39639 11.7643L10.5511 12.431C10.7105 12.523 10.9144 12.4684 11.0064 12.309L13.6731 7.69016C13.7651 7.53073 13.7105 7.32687 13.5511 7.23482L12.3964 6.56815Z" fill="#262626"/>
</g>
</svg>
