<svg width="42" height="30" viewBox="0 0 42 30" fill="none" xmlns="http://www.w3.org/2000/svg">
<rect width="42" height="30" rx="2" fill="#DA291C"/>
<path d="M14.6827 9.76633C18.422 12.2536 18.422 17.7464 14.6827 20.2337L0 30V0L14.6827 9.76633Z" fill="#FFC72C"/>
<path d="M11.3851 11.3593C13.399 13.3687 13.399 16.6313 11.3851 18.6407L0 30V0L11.3851 11.3593Z" fill="#000008"/>
<path d="M4.44727 14.9557C4.31239 13.6642 5.90899 12.9546 6.77725 13.9202C7.64552 14.8857 6.77093 16.3983 5.50093 16.1275C4.23094 15.8567 4.04945 14.1189 5.23608 13.5915C6.4227 13.0642 7.59093 14.3633 6.94092 15.4875C6.29091 16.6116 4.58215 16.2472 4.44727 14.9557Z" fill="white"/>
</svg>
