<svg width="42" height="30" viewBox="0 0 42 30" fill="none" xmlns="http://www.w3.org/2000/svg">
<g clip-path="url(#clip0_2958_61659)">
<path d="M0 0H42V30H0V0Z" fill="#00785E"/>
<path d="M19.689 7.04999L22.389 8.7519L21.3556 6L20.3223 8.7519L23.029 7.04999H19.689Z" fill="#FBD116"/>
<path fill-rule="evenodd" clip-rule="evenodd" d="M21.07 19.5915H26.9043C26.9796 19.518 27.0534 19.4432 27.1258 19.367H20.9304C20.9302 19.367 20.9301 19.3671 20.93 19.3671H14.8742C14.9466 19.4433 15.0204 19.5182 15.0957 19.5917H21.0696C21.0698 19.5916 21.0699 19.5916 21.07 19.5915ZM20.9999 17.3849C20.9999 17.3848 20.9999 17.3847 21 17.3846C21.537 17.8769 22.1158 18.0517 22.8245 18.2609C23.2686 18.3909 23.7301 18.4572 24.1942 18.4574H27.8718C27.7644 18.6108 27.6517 18.7606 27.5337 18.9066H23.9785C22.8535 18.9066 21.8262 18.5772 21.0172 17.9536C20.2029 18.5934 19.1625 18.9067 18.0215 18.9067H14.4663C14.3483 18.7608 14.2355 18.611 14.1282 18.4576H17.8058C18.2699 18.4573 18.7314 18.3911 19.1754 18.2611C19.8841 18.0518 20.4629 17.8771 20.9999 17.3849ZM27.8834 16.5598C27.6901 16.5506 27.4994 16.5127 27.3181 16.4475H27.3123C26.4315 17.2704 25.2521 17.7297 24.0252 17.7276C23.7396 17.7276 23.4598 17.6995 23.1859 17.6546C24.2098 17.7357 25.2333 17.4936 26.1018 16.9649C26.9702 16.4362 27.6365 15.6496 28 14.7239C27.3223 14.4521 26.5952 14.3127 25.861 14.3141C24.5608 14.3145 23.3022 14.7558 22.3058 15.5605C22.8221 15.0396 23.4425 14.6248 24.1296 14.3411C24.8167 14.0574 25.5564 13.9107 26.304 13.9098C26.4052 13.7225 26.5393 13.5535 26.7003 13.4102C25.906 13.3732 25.1128 13.5015 24.3746 13.7864C23.6364 14.0712 22.9706 14.5059 22.4224 15.0608C23.0052 14.3085 23.3491 13.3709 23.3491 12.3603C23.3511 11.5732 23.1401 10.7992 22.7371 10.1146C22.6525 10.3874 22.5028 10.6373 22.3 10.8444C22.5914 11.4339 22.7546 12.0964 22.7546 12.7926C22.754 13.7993 22.4054 14.7771 21.7638 15.5717C22.2845 14.8246 22.5625 13.9451 22.5623 13.0452C22.5654 12.6065 22.5026 12.1697 22.3758 11.7483C22.0377 10.6479 21.3847 10.0292 21 9.69238C21 9.69244 21 9.69249 21 9.69255C20.6153 10.0294 19.9622 10.6481 19.6242 11.7485C19.4974 12.1698 19.4346 12.6067 19.4377 13.0454C19.4375 13.9452 19.7155 14.8247 20.2362 15.5718C19.5946 14.7772 19.246 13.7994 19.2454 12.7927C19.2454 12.0965 19.4086 11.4341 19.7 10.8446C19.4972 10.6374 19.3475 10.3875 19.2629 10.1147C18.8599 10.7994 18.6489 11.5733 18.6509 12.3604C18.6509 13.371 18.9948 14.3086 19.5776 15.0609C19.0294 14.506 18.3636 14.0713 17.6254 13.7865C16.8872 13.5017 16.094 13.3734 15.2997 13.4103C15.4607 13.5536 15.5948 13.7226 15.696 13.91C16.4436 13.9108 17.1833 14.0575 17.8704 14.3412C18.5575 14.6249 19.1779 15.0397 19.6942 15.5606C18.6978 14.7559 17.4392 14.3147 16.139 14.3142C15.4048 14.3129 14.6777 14.4522 14 14.7241C14.3635 15.6497 15.0298 16.4363 15.8982 16.965C16.7667 17.4937 17.7902 17.7358 18.8141 17.6547C18.5402 17.6997 18.2604 17.7277 17.9748 17.7277C16.7479 17.7298 15.5685 17.2706 14.6877 16.4477H14.6819C14.5006 16.5129 14.3099 16.5507 14.1166 16.5599C14.5595 17.045 15.1046 17.4335 15.7156 17.6998C16.3266 17.966 16.9895 18.1037 17.6601 18.1039C18.2974 18.104 18.9281 17.9797 19.5141 17.7385C20.0696 17.5098 20.574 17.1806 21.0001 16.7689C21.4261 17.1805 21.9305 17.5097 22.4859 17.7383C23.0719 17.9796 23.7026 18.1039 24.3399 18.1037C25.0105 18.1036 25.6734 17.9658 26.2844 17.6996C26.8954 17.4334 27.4405 17.0448 27.8834 16.5598ZM24.0252 21.433H20.9304C20.9304 21.4331 20.9303 21.4331 20.9303 21.4332H17.9748C18.9165 21.7928 19.9178 21.9845 20.9299 21.9993C20.9301 21.9996 20.9302 21.9998 20.9304 22.0001C20.9501 22.0001 20.9699 22.0001 20.9896 22C21.0163 22.0002 21.0429 22.0003 21.0696 22.0002C21.0698 21.9999 21.07 21.9995 21.0702 21.9992C22.0822 21.9843 23.0835 21.7926 24.0252 21.433ZM26.3856 20.0575H20.9304C20.9303 20.0576 20.9303 20.0576 20.9302 20.0577H15.6144C15.7617 20.1787 15.9134 20.2948 16.069 20.4058H21.0696C21.0697 20.4057 21.0697 20.4057 21.0697 20.4056H25.931C26.0866 20.2947 26.2383 20.1786 26.3856 20.0575ZM25.4006 20.7593H20.9304C20.9304 20.7594 20.9303 20.7594 20.9303 20.7595H16.5994C16.87 20.9245 17.1502 21.0745 17.4386 21.2086H21.0696C21.0696 21.2086 21.0697 21.2085 21.0697 21.2085H24.5614C24.8498 21.0743 25.13 20.9244 25.4006 20.7593Z" fill="white"/>
<path d="M14 10.8157L15.419 12.1534L15.0447 10.2263L14.2291 12.006L15.9218 11.0538L14 10.8157ZM16.0615 9.00197L18 9.03598L16.4525 7.8457L17.0168 9.73314L17.648 7.86838L16.0615 9.00197Z" fill="#FBD116"/>
<path d="M28 10.8157L26.581 12.1534L26.9553 10.2263L27.7709 12.006L26.0782 11.0538L28 10.8157ZM25.9385 9.00197L24 9.03598L25.5475 7.8457L24.9832 9.73314L24.352 7.86838L25.9385 9.00197Z" fill="#FBD116"/>
</g>
<defs>
<clipPath id="clip0_2958_61659">
<rect width="42" height="30" rx="2" fill="white"/>
</clipPath>
</defs>
</svg>
