<svg width="42" height="30" viewBox="0 0 42 30" fill="none" xmlns="http://www.w3.org/2000/svg">
<g clip-path="url(#clip0_2906_61239)">
<rect width="42" height="30" rx="2" fill="white"/>
<path fill-rule="evenodd" clip-rule="evenodd" d="M0 20H42V30H0V20Z" fill="#249F58"/>
<path fill-rule="evenodd" clip-rule="evenodd" d="M20.9999 20C23.7599 20 25.9999 17.76 25.9999 15C25.9999 12.24 23.7599 10 20.9999 10C18.2399 10 15.9999 12.24 15.9999 15C15.9999 17.76 18.2399 20 20.9999 20ZM20.9999 18C22.6559 18 23.9999 16.656 23.9999 15C23.9999 13.344 22.6559 12 20.9999 12C19.3439 12 17.9999 13.344 17.9999 15C17.9999 16.656 19.3439 18 20.9999 18Z" fill="#1A47B8"/>
<path d="M20.9998 16C21.5521 16 21.9998 15.5523 21.9998 15C21.9998 14.4477 21.5521 14 20.9998 14C20.4475 14 19.9998 14.4477 19.9998 15C19.9998 15.5523 20.4475 16 20.9998 16Z" fill="#1A47B8"/>
<path fill-rule="evenodd" clip-rule="evenodd" d="M0 0H42V10H0V0Z" fill="#FF6C2D"/>
</g>
<defs>
<clipPath id="clip0_2906_61239">
<rect width="42" height="30" rx="2" fill="white"/>
</clipPath>
</defs>
</svg>
