<svg width="42" height="30" viewBox="0 0 42 30" fill="none" xmlns="http://www.w3.org/2000/svg">
<g clip-path="url(#clip0_2906_61211)">
<rect width="42" height="30" rx="2" fill="#F93939"/>
<path d="M38 0H4C1.79086 0 0 1.79086 0 4V26C0 28.2091 1.79086 30 4 30H38C40.2091 30 42 28.2091 42 26V4C42 1.79086 40.2091 0 38 0Z" fill="#F93939"/>
<path fill-rule="evenodd" clip-rule="evenodd" d="M10.9962 14.46L8.05623 16.006L8.61623 12.732L6.24023 10.412L9.52623 9.93798L10.9962 6.95798L12.4642 9.93798L15.7502 10.412L13.3702 12.732L13.9342 16.004L10.9962 14.46ZM18.0002 5.99998H20.0002V7.99998H18.0002V5.99998ZM20.0002 9.99998H22.0002V12H20.0002V9.99998ZM20.0002 14H22.0002V16H20.0002V14ZM18.0002 18H20.0002V20H18.0002V18Z" fill="#FFDA2C"/>
</g>
<defs>
<clipPath id="clip0_2906_61211">
<rect width="42" height="30" rx="2" fill="white"/>
</clipPath>
</defs>
</svg>
