<svg width="42" height="30" viewBox="0 0 42 30" fill="none" xmlns="http://www.w3.org/2000/svg">
<g clip-path="url(#clip0_2906_61291)">
<rect width="42" height="30" rx="2" fill="#0A6A30"/>
<path d="M38 0H4C1.79086 0 0 1.79086 0 4V26C0 28.2091 1.79086 30 4 30H38C40.2091 30 42 28.2091 42 26V4C42 1.79086 40.2091 0 38 0Z" fill="#0A6A30"/>
<path fill-rule="evenodd" clip-rule="evenodd" d="M31.948 11.948C31.816 13.14 31.44 14 31 14C30.56 14 30.184 13.14 30.052 11.948C28.86 11.816 28 11.44 28 11C28 10.56 28.86 10.184 30.052 10.052C30.184 8.86 30.56 8 31 8C31.44 8 31.816 8.86 31.948 10.052C33.14 10.184 34 10.56 34 11C34 11.44 33.14 11.816 31.948 11.948ZM0 0H12V30H0V0Z" fill="white"/>
<path fill-rule="evenodd" clip-rule="evenodd" d="M35.94 13.936C35.98 14.286 36 14.64 36 15C36 19.97 31.97 24 27 24C22.03 24 18 19.97 18 15C18 10.03 22.03 5.99998 27 5.99998C27.36 5.99998 27.714 6.01998 28.064 6.05998C24.64 6.51998 22 9.45398 22 13C22 16.866 25.134 20 29 20C32.548 20 35.48 17.36 35.94 13.936Z" fill="white"/>
</g>
<defs>
<clipPath id="clip0_2906_61291">
<rect width="42" height="30" rx="2" fill="white"/>
</clipPath>
</defs>
</svg>
