<svg width="42" height="30" viewBox="0 0 42 30" fill="none" xmlns="http://www.w3.org/2000/svg">
<rect width="42" height="30" rx="2" fill="#F93939"/>
<path fill-rule="evenodd" clip-rule="evenodd" d="M0 0H42V14H0V0Z" fill="#1A47B8"/>
<path fill-rule="evenodd" clip-rule="evenodd" d="M7.99984 10H15.9998V12H7.99984V10Z" fill="#D4AF2C"/>
<path fill-rule="evenodd" clip-rule="evenodd" d="M10.0199 6.28402C9.40388 6.12402 8.69988 6.00002 7.99988 6.00002C5.99988 6.00002 5.99988 7.00002 5.99988 8.00002C5.99988 9.00002 7.99984 10 7.99984 10H15.9998C15.9998 10 17.9999 9.00002 17.9999 8.00002C17.9999 7.00002 17.9999 6.00002 15.9999 6.00002C15.2999 6.00002 14.5959 6.12402 13.9799 6.28402C13.9939 6.19002 13.9999 6.09602 13.9999 6.00002C13.9999 4.89602 13.1039 4.00002 11.9999 4.00002C10.8959 4.00002 9.99988 4.89602 9.99988 6.00002C9.99988 6.09602 10.0059 6.19002 10.0199 6.28402Z" fill="#FFDA2C"/>
</svg>
