<svg width="42" height="30" viewBox="0 0 42 30" fill="none" xmlns="http://www.w3.org/2000/svg">
<g clip-path="url(#clip0_2906_60900)">
<rect width="42" height="30" rx="2" fill="#F93939"/>
<path d="M38 0H4C1.79086 0 0 1.79086 0 4V26C0 28.2091 1.79086 30 4 30H38C40.2091 30 42 28.2091 42 26V4C42 1.79086 40.2091 0 38 0Z" fill="#F93939"/>
<path fill-rule="evenodd" clip-rule="evenodd" d="M10.0002 22H42.0002V30H10.0002V22Z" fill="#249F58"/>
<path fill-rule="evenodd" clip-rule="evenodd" d="M6 0L10 3L6 6V0ZM6 6L10 9L6 12V6ZM6 12L10 15L6 18V12ZM6 18L10 21L6 24V18ZM6 24L10 27L6 30V24ZM4 0L0 3L4 6V0ZM4 6L0 9L4 12V6ZM4 12L0 15L4 18V12ZM4 18L0 21L4 24V18ZM4 24L0 27L4 30V24ZM4 0H6V4H4V0ZM4 26H6V30H4V26ZM4 10H6V14H4V10ZM4 6H6V8H4V6ZM4 22H6V24H4V22ZM4 16H6V20H4V16Z" fill="white"/>
</g>
<defs>
<clipPath id="clip0_2906_60900">
<rect width="42" height="30" rx="2" fill="white"/>
</clipPath>
</defs>
</svg>
