<svg width="42" height="30" viewBox="0 0 42 30" fill="none" xmlns="http://www.w3.org/2000/svg">
<g clip-path="url(#clip0_2904_60571)">
<rect width="42" height="30" rx="2" fill="white"/>
<path fill-rule="evenodd" clip-rule="evenodd" d="M25.9612 14.5636C25.9867 14.7681 26 14.9769 26 15.1881C26 17.9492 23.7612 20.1881 21 20.1881C18.2389 20.1881 16 17.9492 16 15.1881C16 14.9769 16.0134 14.7681 16.0389 14.5625C16.3467 16.4825 18.45 17.9658 21 17.9658C23.55 17.9658 25.6534 16.4814 25.9612 14.5625V14.5636Z" fill="#249F58"/>
<path d="M24.0001 13C24.0001 14.6568 22.6569 16 21.0001 16C19.3432 16 18.0001 14.6568 18.0001 13C18.0001 11.3431 19.3432 9.99996 21.0001 9.99996C22.6569 9.99996 24.0001 11.3431 24.0001 13Z" fill="#AE6A3E"/>
<path d="M30 4.98246e-05H42V30.0001H30V4.98246e-05Z" fill="#F93939"/>
<path d="M0 0H12V30H0V0Z" fill="#249F58"/>
</g>
<defs>
<clipPath id="clip0_2904_60571">
<rect width="42" height="30" rx="2" fill="white"/>
</clipPath>
</defs>
</svg>
