<svg width="42" height="30" viewBox="0 0 42 30" fill="none" xmlns="http://www.w3.org/2000/svg">
<g clip-path="url(#clip0_2906_60619)">
<rect width="42" height="30" rx="2" fill="white"/>
<path d="M21 16C21.5523 16 22 15.1045 22 14C22 12.8954 21.5523 12 21 12C20.4477 12 20 12.8954 20 14C20 15.1045 20.4477 16 21 16Z" fill="#FFDA2C"/>
<path fill-rule="evenodd" clip-rule="evenodd" d="M26.0001 15C26.0001 12.24 23.7601 10 21.0001 10C18.2401 10 16.0001 12.24 16.0001 15C16.0001 17.76 18.2401 20 21.0001 20C23.7601 20 26.0001 17.76 26.0001 15ZM21.0001 18C22.6561 18 24.0001 16.21 24.0001 14C24.0001 11.79 22.6561 10 21.0001 10C19.3441 10 18.0001 11.79 18.0001 14C18.0001 16.21 19.3441 18 21.0001 18Z" fill="#249F58"/>
<path d="M30 0H42V30H30V0Z" fill="#3ECBF8"/>
<path d="M0.000198364 0H12.0002V30H0.000198364V0Z" fill="#3ECBF8"/>
</g>
<defs>
<clipPath id="clip0_2906_60619">
<rect width="42" height="30" rx="2" fill="white"/>
</clipPath>
</defs>
</svg>
