<svg width="42" height="30" viewBox="0 0 42 30" fill="none" xmlns="http://www.w3.org/2000/svg">
<g clip-path="url(#clip0_2958_61090)">
<path d="M0 0H42V30H0V0Z" fill="white"/>
<path d="M0 15H42V30H0V15ZM5.25 15C5.25 17.6522 6.35625 20.1957 8.32538 22.0711C10.2945 23.9464 12.9652 25 15.75 25C18.5348 25 21.2055 23.9464 23.1746 22.0711C25.1438 20.1957 26.25 17.6522 26.25 15C26.25 12.3478 25.1438 9.8043 23.1746 7.92893C21.2055 6.05357 18.5348 5 15.75 5C12.9652 5 10.2945 6.05357 8.32538 7.92893C6.35625 9.8043 5.25 12.3478 5.25 15" fill="#D00C33"/>
</g>
<defs>
<clipPath id="clip0_2958_61090">
<rect width="42" height="30" rx="2" fill="white"/>
</clipPath>
</defs>
</svg>
