<svg width="42" height="30" viewBox="0 0 42 30" fill="none" xmlns="http://www.w3.org/2000/svg">
<rect width="42" height="30" rx="2" fill="#F93939"/>
<path fill-rule="evenodd" clip-rule="evenodd" d="M5.99988 6.00002H35.9999V24H5.99988V6.00002Z" fill="#FFDA2C"/>
<path fill-rule="evenodd" clip-rule="evenodd" d="M5.99988 6.00002L20.9999 15L5.99988 24V6.00002Z" fill="#249F58"/>
<path fill-rule="evenodd" clip-rule="evenodd" d="M8.00004 14.0001H10V16.0001H8.00004V14.0001Z" fill="#FFDA2C"/>
<path fill-rule="evenodd" clip-rule="evenodd" d="M35.9999 6.00002L20.9999 15L35.9999 24V6.00002Z" fill="#249F58"/>
<path fill-rule="evenodd" clip-rule="evenodd" d="M13.9999 2H15.9999V4H13.9999V2ZM19.9999 2H21.9999V4H19.9999V2ZM25.9999 2H27.9999V4H25.9999V2ZM13.9999 26H15.9999V28H13.9999V26ZM19.9999 26H21.9999V28H19.9999V26ZM25.9999 26H27.9999V28H25.9999V26Z" fill="#FFDA2C"/>
<path d="M20.9999 20C23.7613 20 25.9999 17.7615 25.9999 15C25.9999 12.2386 23.7613 10 20.9999 10C18.2385 10 15.9999 12.2386 15.9999 15C15.9999 17.7615 18.2385 20 20.9999 20Z" fill="#F93939"/>
<path fill-rule="evenodd" clip-rule="evenodd" d="M21 17.5L18.06 19.046L18.62 15.772L16.244 13.452L19.53 12.978L20.9999 10L22.47 12.98L25.756 13.454L23.376 15.774L23.936 19.046" fill="#FFDA2C"/>
</svg>
