<svg width="42" height="30" viewBox="0 0 42 30" fill="none" xmlns="http://www.w3.org/2000/svg">
<g clip-path="url(#clip0_2906_60615)">
<rect width="42" height="30" rx="2" fill="white"/>
<path d="M24.0001 18H42.0001V30H24.0001V18Z" fill="#1A47B8"/>
<path d="M0.000198364 18H18.0002V30H0.000198364V18Z" fill="#F93939"/>
<path d="M24 15.0001C24 16.6569 22.6569 18.0001 21 18.0001C19.3432 18.0001 18 16.6569 18 15.0001C18 13.3432 19.3432 12.0001 21 12.0001C22.6569 12.0001 24 13.3432 24 15.0001Z" fill="#249F58"/>
<path d="M22.0001 17C22.0001 17.5523 22.4478 18 23.0001 18C23.5524 18 24.0001 17.5523 24.0001 17C24.0001 16.4477 23.5524 16 23.0001 16C22.4478 16 22.0001 16.4477 22.0001 17Z" fill="#232C80"/>
<path d="M18 17C18 17.5523 18.4477 18 19 18C19.5523 18 20 17.5523 20 17C20 16.4477 19.5523 16 19 16C18.4477 16 18 16.4477 18 17Z" fill="#F93939"/>
<path d="M22 15C22 15.5523 21.5523 16 21 16C20.4477 16 20 15.5523 20 15C20 14.4477 20.4477 14 21 14C21.5523 14 22 14.4477 22 15Z" fill="white"/>
<path d="M24.0002 13.0001C24.0002 13.5523 23.5524 14.0001 23.0002 14.0001C22.4479 14.0001 22.0002 13.5523 22.0002 13.0001C22.0002 12.4478 22.4479 12.0001 23.0002 12.0001C23.5524 12.0001 24.0002 12.4478 24.0002 13.0001Z" fill="#F93939"/>
<path d="M20 13.0001C20 13.5523 19.5523 14.0001 19 14.0001C18.4478 14.0001 18 13.5523 18 13.0001C18 12.4478 18.4478 12.0001 19 12.0001C19.5523 12.0001 20 12.4478 20 13.0001Z" fill="#232C80"/>
<path d="M24.0001 0H42.0001V12H24.0001V0Z" fill="#F93939"/>
<path d="M0.000198364 0H18.0002V12H0.000198364V0Z" fill="#1A47B8"/>
</g>
<defs>
<clipPath id="clip0_2906_60615">
<rect width="42" height="30" rx="2" fill="white"/>
</clipPath>
</defs>
</svg>
