<svg width="42" height="30" viewBox="0 0 42 30" fill="none" xmlns="http://www.w3.org/2000/svg">
<g clip-path="url(#clip0_2906_60611)">
<rect width="42" height="30" rx="2" fill="#249F58"/>
<path fill-rule="evenodd" clip-rule="evenodd" d="M20.0002 14H0.000213623V16H20.0002V30H22.0002V16H42.0002V14H22.0002V0H20.0002V14Z" fill="#151515"/>
<path fill-rule="evenodd" clip-rule="evenodd" d="M18.0002 12V14H20.0002V0H18.0002V12H0.000213623V14H20.0002V12H18.0002ZM20.0002 14H42.0002V12H18.0002V14H20.0002V12H18.0002V30H20.0002V14Z" fill="#FFDA2C"/>
<path fill-rule="evenodd" clip-rule="evenodd" d="M24.0002 18V16H22.0002V30H24.0002V18H42.0002V16H22.0002V18H24.0002ZM0.000213623 16H26.0002V18H0.000213623V16ZM22.0002 0H24.0002V18H22.0002V0Z" fill="white"/>
<path d="M20.9999 22C24.8659 22 27.9999 18.866 27.9999 15C27.9999 11.134 24.8659 8.00004 20.9999 8.00004C17.1339 8.00004 13.9999 11.134 13.9999 15C13.9999 18.866 17.1339 22 20.9999 22Z" fill="#F93939"/>
<path fill-rule="evenodd" clip-rule="evenodd" d="M18.0002 12H20.0002V14H18.0002V12ZM22.0001 12.0001H24.0001V14.0001L22.0002 14L22.0001 12.0001ZM22.0002 16H24.0002V18H22.0002V16ZM18.0001 16.0001L20.0002 16L20.0001 18.0001H18.0001V16.0001Z" fill="#0A6A30"/>
<path fill-rule="evenodd" clip-rule="evenodd" d="M20 12.0001H22.0001L22 16.0001H20V12.0001Z" fill="#955DCC"/>
</g>
<defs>
<clipPath id="clip0_2906_60611">
<rect width="42" height="30" rx="2" fill="white"/>
</clipPath>
</defs>
</svg>
