<svg width="42" height="30" viewBox="0 0 42 30" fill="none" xmlns="http://www.w3.org/2000/svg">
<rect width="42" height="30" rx="2" fill="white"/>
<mask id="mask0_2904_60430" style="mask-type:luminance" maskUnits="userSpaceOnUse" x="0" y="0" width="42" height="30">
<rect width="42" height="30" rx="2" fill="white"/>
</mask>
<g mask="url(#mask0_2904_60430)">
<path fill-rule="evenodd" clip-rule="evenodd" d="M42 0H0V2H42V0ZM42 4H0V6H42V4ZM0 8H42V10H0V8ZM42 12H0V14H42V12ZM0 16H42V18H0V16ZM42 20H0V22H42V20ZM0 24H42V26H0V24ZM42 28H0V30H42V28Z" fill="#D02F44"/>
<rect width="18" height="14" fill="#46467F"/>
<g filter="url(#filter0_d_2904_60430)">
<path fill-rule="evenodd" clip-rule="evenodd" d="M4 3C4 3.55228 3.55228 4 3 4C2.44772 4 2 3.55228 2 3C2 2.44772 2.44772 2 3 2C3.55228 2 4 2.44772 4 3ZM8 3C8 3.55228 7.55228 4 7 4C6.44772 4 6 3.55228 6 3C6 2.44772 6.44772 2 7 2C7.55228 2 8 2.44772 8 3ZM11 4C11.5523 4 12 3.55228 12 3C12 2.44772 11.5523 2 11 2C10.4477 2 10 2.44772 10 3C10 3.55228 10.4477 4 11 4ZM16 3C16 3.55228 15.5523 4 15 4C14.4477 4 14 3.55228 14 3C14 2.44772 14.4477 2 15 2C15.5523 2 16 2.44772 16 3ZM5 6C5.55228 6 6 5.55228 6 5C6 4.44772 5.55228 4 5 4C4.44772 4 4 4.44772 4 5C4 5.55228 4.44772 6 5 6ZM10 5C10 5.55228 9.55228 6 9 6C8.44772 6 8 5.55228 8 5C8 4.44772 8.44772 4 9 4C9.55228 4 10 4.44772 10 5ZM13 6C13.5523 6 14 5.55228 14 5C14 4.44772 13.5523 4 13 4C12.4477 4 12 4.44772 12 5C12 5.55228 12.4477 6 13 6ZM16 7C16 7.55228 15.5523 8 15 8C14.4477 8 14 7.55228 14 7C14 6.44772 14.4477 6 15 6C15.5523 6 16 6.44772 16 7ZM11 8C11.5523 8 12 7.55228 12 7C12 6.44772 11.5523 6 11 6C10.4477 6 10 6.44772 10 7C10 7.55228 10.4477 8 11 8ZM8 7C8 7.55228 7.55228 8 7 8C6.44772 8 6 7.55228 6 7C6 6.44772 6.44772 6 7 6C7.55228 6 8 6.44772 8 7ZM3 8C3.55228 8 4 7.55228 4 7C4 6.44772 3.55228 6 3 6C2.44772 6 2 6.44772 2 7C2 7.55228 2.44772 8 3 8ZM6 9C6 9.55228 5.55228 10 5 10C4.44772 10 4 9.55228 4 9C4 8.44772 4.44772 8 5 8C5.55228 8 6 8.44772 6 9ZM9 10C9.55228 10 10 9.55228 10 9C10 8.44772 9.55228 8 9 8C8.44772 8 8 8.44772 8 9C8 9.55228 8.44772 10 9 10ZM14 9C14 9.55228 13.5523 10 13 10C12.4477 10 12 9.55228 12 9C12 8.44772 12.4477 8 13 8C13.5523 8 14 8.44772 14 9ZM15 12C15.5523 12 16 11.5523 16 11C16 10.4477 15.5523 10 15 10C14.4477 10 14 10.4477 14 11C14 11.5523 14.4477 12 15 12ZM12 11C12 11.5523 11.5523 12 11 12C10.4477 12 10 11.5523 10 11C10 10.4477 10.4477 10 11 10C11.5523 10 12 10.4477 12 11ZM7 12C7.55228 12 8 11.5523 8 11C8 10.4477 7.55228 10 7 10C6.44772 10 6 10.4477 6 11C6 11.5523 6.44772 12 7 12ZM4 11C4 11.5523 3.55228 12 3 12C2.44772 12 2 11.5523 2 11C2 10.4477 2.44772 10 3 10C3.55228 10 4 10.4477 4 11Z" fill="url(#paint0_linear_2904_60430)"/>
</g>
</g>
<defs>
<filter id="filter0_d_2904_60430" x="2" y="2" width="14" height="11" filterUnits="userSpaceOnUse" color-interpolation-filters="sRGB">
<feFlood flood-opacity="0" result="BackgroundImageFix"/>
<feColorMatrix in="SourceAlpha" type="matrix" values="0 0 0 0 0 0 0 0 0 0 0 0 0 0 0 0 0 0 127 0" result="hardAlpha"/>
<feOffset dy="1"/>
<feColorMatrix type="matrix" values="0 0 0 0 0 0 0 0 0 0 0 0 0 0 0 0 0 0 0.06 0"/>
<feBlend mode="normal" in2="BackgroundImageFix" result="effect1_dropShadow_2904_60430"/>
<feBlend mode="normal" in="SourceGraphic" in2="effect1_dropShadow_2904_60430" result="shape"/>
</filter>
<linearGradient id="paint0_linear_2904_60430" x1="2" y1="2" x2="2" y2="12" gradientUnits="userSpaceOnUse">
<stop stop-color="white"/>
<stop offset="1" stop-color="#F0F0F0"/>
</linearGradient>
</defs>
</svg>
