<svg width="42" height="30" viewBox="0 0 42 30" fill="none" xmlns="http://www.w3.org/2000/svg">
<g clip-path="url(#clip0_2904_60579)">
<path d="M37.9998 0H3.9998C1.79066 0 -0.000198364 1.79086 -0.000198364 4V26C-0.000198364 28.2091 1.79066 30 3.9998 30H37.9998C40.2089 30 41.9998 28.2091 41.9998 26V4C41.9998 1.79086 40.2089 0 37.9998 0Z" fill="#FFDA2C"/>
<path fill-rule="evenodd" clip-rule="evenodd" d="M-0.000198364 0H13.9998V30H-0.000198364V0ZM27.9998 0H41.9998V30H27.9998V0Z" fill="#1A47B8"/>
<path fill-rule="evenodd" clip-rule="evenodd" d="M19.9999 20H21.9999V22H19.9999V20ZM23.9999 16H25.9999V18H23.9999V16ZM15.9999 16H17.9999V18H15.9999V16Z" fill="#AE6A3E"/>
<path fill-rule="evenodd" clip-rule="evenodd" d="M21.9999 16V8.00004H19.9999V16L17.9999 16V18L19.9999 18V20H21.9999V18L23.9999 18V16L21.9999 16ZM23.9999 10H25.9999V16H23.9999V10ZM15.9999 10H17.9999V16H15.9999V10Z" fill="#151515"/>
</g>
<defs>
<clipPath id="clip0_2904_60579">
<rect width="42" height="30" rx="2" fill="white"/>
</clipPath>
</defs>
</svg>
