<svg width="42" height="30" viewBox="0 0 42 30" fill="none" xmlns="http://www.w3.org/2000/svg">
<g clip-path="url(#clip0_2904_60583)">
<rect width="42" height="30" rx="2" fill="#1A47B8"/>
<path d="M20.9998 24C25.9703 24 29.9998 19.9705 29.9998 15C29.9998 10.0294 25.9703 5.99998 20.9998 5.99998C16.0292 5.99998 11.9998 10.0294 11.9998 15C11.9998 19.9705 16.0292 24 20.9998 24Z" fill="white"/>
<path fill-rule="evenodd" clip-rule="evenodd" d="M16.9998 16H24.9998V18H16.9998V16Z" fill="#CBCBCB"/>
<path fill-rule="evenodd" clip-rule="evenodd" d="M15.9999 10H17.9999V12H15.9999V10ZM19.9999 8.00004H21.9999V10H19.9999V8.00004ZM23.9999 10H25.9999V12H23.9999V10ZM25.9999 14H27.9999V16H25.9999V14ZM23.9999 18H25.9999V20H23.9999V18Z" fill="#249F58"/>
<path fill-rule="evenodd" clip-rule="evenodd" d="M22.0002 14H24.0002V16H22.0002V14Z" fill="#AE6A3E"/>
<path fill-rule="evenodd" clip-rule="evenodd" d="M18 14H20V16H18V14Z" fill="#FFDA2C"/>
<path fill-rule="evenodd" clip-rule="evenodd" d="M19.9999 20H21.9999V22H19.9999V20ZM15.9999 18H17.9999V20H15.9999V18ZM13.9999 14H15.9999V16H13.9999V14Z" fill="#249F58"/>
<path fill-rule="evenodd" clip-rule="evenodd" d="M22.0002 12.0001H24.0002V14H22.0002V12.0001Z" fill="#151515"/>
<path fill-rule="evenodd" clip-rule="evenodd" d="M17.9999 12L20 12.0001V14H18L17.9999 12Z" fill="#AE6A3E"/>
<path fill-rule="evenodd" clip-rule="evenodd" d="M0 26H42V30H0V26ZM0 0H42V4H0V0Z" fill="#F93939"/>
</g>
<defs>
<clipPath id="clip0_2904_60583">
<rect width="42" height="30" rx="2" fill="white"/>
</clipPath>
</defs>
</svg>
