<svg width="42" height="30" viewBox="0 0 42 30" fill="none" xmlns="http://www.w3.org/2000/svg">
<rect width="42" height="30" rx="2" fill="#249F58"/>
<path fill-rule="evenodd" clip-rule="evenodd" d="M20.9999 4L35.9999 15L20.9999 26L5.99988 15" fill="#FFDA2C"/>
<path d="M20.9999 22C24.8659 22 27.9999 18.866 27.9999 15C27.9999 11.134 24.8659 8.00002 20.9999 8.00002C17.1339 8.00002 13.9999 11.134 13.9999 15C13.9999 18.866 17.1339 22 20.9999 22Z" fill="#1A47B8"/>
<path fill-rule="evenodd" clip-rule="evenodd" d="M17.9998 18V20H19.9998V18H17.9998ZM21.9998 18V20H23.9998V18H21.9998Z" fill="white"/>
<path fill-rule="evenodd" clip-rule="evenodd" d="M15.8258 12.9848C15.8258 12.9848 15.8259 12.9848 15.9999 12C16.1739 11.0153 16.1741 11.0153 16.1741 11.0153L16.1785 11.0161L16.1897 11.0181C16.1993 11.0198 16.2132 11.0223 16.2311 11.0256C16.267 11.0322 16.3193 11.0418 16.3865 11.0545C16.5209 11.0799 16.7151 11.1175 16.9579 11.167C17.4431 11.2657 18.1236 11.4121 18.9082 11.6029C20.4671 11.982 22.4776 12.5463 24.1851 13.2766L28.3939 15.0809L27.6059 16.9191L23.3986 15.1155L23.3982 15.1153C21.8418 14.4497 19.9565 13.9161 18.4356 13.5462C17.6801 13.3625 17.0247 13.2216 16.5589 13.1267C16.3261 13.0794 16.1411 13.0436 16.0151 13.0198C15.9521 13.0078 15.9039 12.999 15.8719 12.9931C15.8559 12.9902 15.844 12.988 15.8362 12.9866L15.8278 12.9851L15.8258 12.9848Z" fill="white"/>
</svg>
