<svg width="42" height="30" viewBox="0 0 42 30" fill="none" xmlns="http://www.w3.org/2000/svg">
<g clip-path="url(#clip0_2906_60639)">
<rect width="42" height="30" rx="2" fill="#3ECBF8"/>
<path d="M38 0H4C1.79086 0 0 1.79086 0 4V26C0 28.2091 1.79086 30 4 30H38C40.2091 30 42 28.2091 42 26V4C42 1.79086 40.2091 0 38 0Z" fill="#3ECBF8"/>
<path fill-rule="evenodd" clip-rule="evenodd" d="M0 17.9999H42V19.9999H0V17.9999ZM0 21.9999H42V23.9999H0V21.9999Z" fill="#FFDA2C"/>
<path fill-rule="evenodd" clip-rule="evenodd" d="M8.97012 8.97002C10.7101 8.86002 12.0001 8.47002 12.0001 8.00002C12.0001 7.53202 10.7101 7.14002 8.97012 7.03002C8.86012 5.29002 8.47012 4.00002 8.00012 4.00002C7.53212 4.00002 7.14012 5.29002 7.03012 7.03002C5.29012 7.14002 4.00012 7.53002 4.00012 8.00002C4.00012 8.46802 5.29012 8.86002 7.03012 8.97002C7.14012 10.71 7.53012 12 8.00012 12C8.46812 12 8.86012 10.71 8.97012 8.97002Z" fill="#F93939"/>
<path fill-rule="evenodd" clip-rule="evenodd" d="M8.97012 8.97002C10.7101 8.86002 12.0001 8.47002 12.0001 8.00002C12.0001 7.53202 10.7101 7.14002 8.97012 7.03002C8.86012 5.29002 8.47012 4.00002 8.00012 4.00002C7.53212 4.00002 7.14012 5.29002 7.03012 7.03002C5.29012 7.14002 4.00012 7.53002 4.00012 8.00002C4.00012 8.46802 5.29012 8.86002 7.03012 8.97002C7.14012 10.71 7.53012 12 8.00012 12C8.46812 12 8.86012 10.71 8.97012 8.97002ZM9.03004 9.96994L9.97004 9.02994C9.82004 11.4259 9.32004 12.9999 8.00004 12.9999C6.68004 12.9999 6.18004 11.4239 6.03204 9.03194L6.96804 9.96794C4.57604 9.81994 3.00004 9.31994 3.00004 7.99994C3.00004 6.67994 4.57604 6.17994 6.96804 6.03194L6.03204 6.96794C6.18004 4.57594 6.68004 2.99994 8.00004 2.99994C9.32004 2.99994 9.82004 4.57594 9.96804 6.96794L9.03204 6.03194C11.424 6.17994 13 6.67994 13 7.99994C13 9.31994 11.424 9.81994 9.03204 9.96794L9.03004 9.96994Z" fill="white"/>
</g>
<defs>
<clipPath id="clip0_2906_60639">
<rect width="42" height="30" rx="2" fill="white"/>
</clipPath>
</defs>
</svg>
