<svg width="42" height="30" viewBox="0 0 42 30" fill="none" xmlns="http://www.w3.org/2000/svg">
<g clip-path="url(#clip0_2906_60631)">
<path d="M38 0H4C1.79086 0 0 1.79086 0 4V26C0 28.2091 1.79086 30 4 30H38C40.2091 30 42 28.2091 42 26V4C42 1.79086 40.2091 0 38 0Z" fill="#1A47B8"/>
<path fill-rule="evenodd" clip-rule="evenodd" d="M0 22.0001H42V30.0001H0V22.0001Z" fill="#F93939"/>
<path fill-rule="evenodd" clip-rule="evenodd" d="M0 0H42V16H0V0Z" fill="#FFDA2C"/>
<path d="M20.9998 20.0001C22.6567 20.0001 23.9998 18.2092 23.9998 16.0001C23.9998 13.7909 22.6567 12.0001 20.9998 12.0001C19.343 12.0001 17.9998 13.7909 17.9998 16.0001C17.9998 18.2092 19.343 20.0001 20.9998 20.0001Z" fill="#3ECBF8"/>
<path fill-rule="evenodd" clip-rule="evenodd" d="M15.9999 14V18L19.9999 20H21.9999L25.9999 18V14L27.9999 18L25.9999 20L21.9999 22H19.9999L15.9999 20L13.9999 18L15.9999 14Z" fill="#FFDA2C"/>
<path fill-rule="evenodd" clip-rule="evenodd" d="M12 8.00004H18L21 10L24 8.00004H30L24 10L22 12H20L18 10L12 8.00004Z" fill="#151515"/>
</g>
<defs>
<clipPath id="clip0_2906_60631">
<rect width="42" height="30" rx="2" fill="white"/>
</clipPath>
</defs>
</svg>
