<svg width="42" height="30" viewBox="0 0 42 30" fill="none" xmlns="http://www.w3.org/2000/svg">
<g clip-path="url(#clip0_2906_60623)">
<rect width="42" height="30" rx="2" fill="white"/>
<path fill-rule="evenodd" clip-rule="evenodd" d="M0 20H42V30H0V20ZM0 0H42V10H0V0Z" fill="#1A47B8"/>
<path d="M21 18.0001C22.6569 18.0001 24 16.6569 24 15.0001C24 13.3432 22.6569 12.0001 21 12.0001C19.3432 12.0001 18 13.3432 18 15.0001C18 16.6569 19.3432 18.0001 21 18.0001Z" fill="#1A47B8"/>
<path d="M21 16C21.5523 16 22 15.5523 22 15C22 14.4477 21.5523 14 21 14C20.4477 14 20 14.4477 20 15C20 15.5523 20.4477 16 21 16Z" fill="#FFDA2C"/>
<path fill-rule="evenodd" clip-rule="evenodd" d="M16.0001 14L18.0001 16L21 18.0001L24.0001 16L26.0001 14L24.0001 18H18.0001L16.0001 14Z" fill="#249F58"/>
</g>
<defs>
<clipPath id="clip0_2906_60623">
<rect width="42" height="30" rx="2" fill="white"/>
</clipPath>
</defs>
</svg>
