<svg width="42" height="30" viewBox="0 0 42 30" fill="none" xmlns="http://www.w3.org/2000/svg">
<g clip-path="url(#clip0_2904_60535)">
<rect width="42" height="30" rx="2" fill="white"/>
<path fill-rule="evenodd" clip-rule="evenodd" d="M20.0002 6H42.0002V10H20.0002V6ZM20.0002 14H42.0002V18H20.0002V14ZM0.000221252 22H42.0002V26H0.000221252V22Z" fill="#3A99FF"/>
<path fill-rule="evenodd" clip-rule="evenodd" d="M13.7601 13.76C13.3001 16.25 12.2401 18 11.0001 18C9.76015 18 8.70014 16.252 8.24014 13.76C5.75014 13.3 4.00014 12.24 4.00014 11C4.00014 9.76 5.74814 8.7 8.24014 8.24C8.70014 5.75 9.76015 4 11.0001 4C12.2401 4 13.3001 5.748 13.7601 8.24C16.2501 8.7 18.0001 9.76 18.0001 11C18.0001 12.24 16.2521 13.3 13.7601 13.76Z" fill="#D4AF2C"/>
<path fill-rule="evenodd" clip-rule="evenodd" d="M12.3741 12.374C12.2461 15.58 11.6801 18 11.0001 18C10.3201 18 9.75415 15.58 9.62615 12.374C6.42015 12.246 4.00014 11.68 4.00014 11C4.00014 10.32 6.42015 9.754 9.62615 9.626C9.75415 6.42 10.3201 4 11.0001 4C11.6801 4 12.2461 6.42 12.3741 9.626C15.5801 9.754 18.0001 10.32 18.0001 11C18.0001 11.68 15.5801 12.246 12.3741 12.374Z" fill="#FFDA2C"/>
<path d="M11.0001 14C12.6569 14 14.0001 12.6569 14.0001 11C14.0001 9.34315 12.6569 8 11.0001 8C9.34321 8 8.00006 9.34315 8.00006 11C8.00006 12.6569 9.34321 14 11.0001 14Z" fill="#FFDA2C"/>
</g>
<defs>
<clipPath id="clip0_2904_60535">
<rect width="42" height="30" rx="2" fill="white"/>
</clipPath>
</defs>
</svg>
