<svg width="42" height="30" viewBox="0 0 42 30" fill="none" xmlns="http://www.w3.org/2000/svg">
<g clip-path="url(#clip0_2904_60591)">
<rect width="42" height="30" rx="2" fill="white"/>
<path d="M21.5769 23.2353H20.4239L20.7122 19.9412C20.6959 19.7677 20.5793 19.7221 20.1357 19.7353L15.524 20.1471C15.524 20.1471 16.3887 19.3235 16.3887 18.9118C16.3887 18.5 11.2004 15.8235 11.2004 15.8235C11.2004 15.8235 12.3534 15.6176 12.6416 15.4118C12.9298 15.2059 11.4887 12.9412 11.4887 12.9412C11.4887 12.9412 14.4178 13.7647 14.6592 13.5588C14.9007 13.3529 15.2357 12.5294 15.2357 12.5294C15.2357 12.5294 17.5416 14.3824 18.1181 14.3824C18.6945 14.3824 16.9651 9.85294 16.9651 9.85294C16.9651 9.85294 18.4063 10.6765 18.9828 10.6765C19.5592 10.6765 21.0004 8 21.0004 8C21.0004 8 22.4416 10.6765 22.7298 10.6765C23.0181 10.6765 25.0357 9.85294 25.0357 9.85294C25.0357 9.85294 23.5945 14.1765 23.8828 14.3824C24.171 14.5882 26.7651 12.5294 26.7651 12.5294C26.7651 12.5294 27.0534 13.3529 27.3416 13.5588C27.6298 13.7647 30.5122 12.9412 30.5122 12.9412C30.5122 12.9412 29.071 15.2059 29.3592 15.4118C29.6475 15.6176 30.8004 15.8235 30.8004 15.8235C30.8004 15.8235 25.6122 18.5 25.6122 18.9118C25.6122 19.3235 26.1887 20.1471 26.1887 20.1471L21.8651 19.7353C21.5176 19.6641 21.3971 19.7181 21.2887 19.9412L21.5769 23.2353Z" fill="#F93939"/>
<path d="M36.4002 0H50.4002V30H36.4002V0Z" fill="#F93939"/>
<path d="M-8.40002 0H5.59997V30H-8.40002V0Z" fill="#F93939"/>
</g>
<defs>
<clipPath id="clip0_2904_60591">
<rect width="42" height="30" rx="2" fill="white"/>
</clipPath>
</defs>
</svg>
