<svg width="42" height="30" viewBox="0 0 42 30" fill="none" xmlns="http://www.w3.org/2000/svg">
<rect width="42" height="30" rx="2" fill="#1A47B8"/>
<path d="M42 18.0001H0V22.0001H42V18.0001Z" fill="#FFDA2C"/>
<path fill-rule="evenodd" clip-rule="evenodd" d="M10.0001 10H8.99086C8.43158 10 8.00008 10.4477 8.00008 11C8.00008 11.5361 8.44367 12 8.99086 12H10.0001V13.0092C10.0001 13.5685 10.4478 14 11.0001 14C11.5362 14 12.0001 13.5564 12.0001 13.0092V12H13.0093C13.5686 12 14.0001 11.5523 14.0001 11C14.0001 10.4639 13.5565 10 13.0093 10H12.0001V8.99078C12.0001 8.4315 11.5524 8 11.0001 8C10.4639 8 10.0001 8.44359 10.0001 8.99078V10ZM6.00008 6H8.00008V8H6.00008V6Z" fill="white"/>
</svg>
