<svg width="42" height="30" viewBox="0 0 42 30" fill="none" xmlns="http://www.w3.org/2000/svg">
<g clip-path="url(#clip0_2898_60398)">
<rect width="42" height="30" rx="2" fill="white"/>
<path fill-rule="evenodd" clip-rule="evenodd" d="M0.000183105 20H42.0002V30H0.000183105V20Z" fill="#1A47B8"/>
<path fill-rule="evenodd" clip-rule="evenodd" d="M23.94 14.3999C23.98 14.5939 24 14.7939 24 14.9999C24 16.6559 22.656 17.9999 21 17.9999C19.344 17.9999 18 16.6559 18 14.9999C18 14.7939 18.02 14.5939 18.06 14.3999C18.34 15.3119 19.548 15.9999 21 15.9999C22.452 15.9999 23.66 15.3119 23.94 14.3999Z" fill="#249F58"/>
<path d="M21 14C21.5523 14 22 13.5523 22 13C22 12.4477 21.5523 12 21 12C20.4477 12 20 12.4477 20 13C20 13.5523 20.4477 14 21 14Z" fill="#FFDA2C"/>
<path fill-rule="evenodd" clip-rule="evenodd" d="M0.000183105 0H42.0002V10H0.000183105V0Z" fill="#F93939"/>
</g>
<defs>
<clipPath id="clip0_2898_60398">
<rect width="42" height="30" rx="2" fill="white"/>
</clipPath>
</defs>
</svg>
