<svg width="42" height="30" viewBox="0 0 42 30" fill="none" xmlns="http://www.w3.org/2000/svg">
<g clip-path="url(#clip0_2904_60418)">
<rect width="42" height="30" rx="2" fill="white"/>
<path d="M38 0H4C1.79086 0 0 1.79086 0 4V26C0 28.2091 1.79086 30 4 30H38C40.2091 30 42 28.2091 42 26V4C42 1.79086 40.2091 0 38 0Z" fill="white"/>
<path fill-rule="evenodd" clip-rule="evenodd" d="M31.948 23.948C31.816 25.14 31.44 26 31 26C30.56 26 30.184 25.14 30.052 23.948C28.86 23.816 28 23.44 28 23C28 22.56 28.86 22.184 30.052 22.052C30.184 20.86 30.558 20 31 20C31.44 20 31.816 20.86 31.948 22.052C33.14 22.184 34 22.558 34 23C34 23.44 33.14 23.816 31.948 23.948Z" fill="#F93939"/>
<path fill-rule="evenodd" clip-rule="evenodd" d="M0 16H20V30H0V16Z" fill="#1A47B8"/>
<path fill-rule="evenodd" clip-rule="evenodd" d="M11.948 9.94798C11.816 11.14 11.44 12 11 12C10.56 12 10.184 11.14 10.052 9.94798C8.86004 9.81598 8.00004 9.43998 8.00004 8.99998C8.00004 8.55998 8.86004 8.18398 10.052 8.05198C10.184 6.85998 10.56 5.99998 11 5.99998C11.44 5.99998 11.816 6.85998 11.948 8.05198C13.14 8.18398 14 8.55998 14 8.99998C14 9.43998 13.14 9.81598 11.948 9.94798Z" fill="#1A47B8"/>
<path fill-rule="evenodd" clip-rule="evenodd" d="M20 0H42V16L20 16V0Z" fill="#F93939"/>
</g>
<defs>
<clipPath id="clip0_2904_60418">
<rect width="42" height="30" rx="2" fill="white"/>
</clipPath>
</defs>
</svg>
