<svg width="42" height="30" viewBox="0 0 42 30" fill="none" xmlns="http://www.w3.org/2000/svg">
<g clip-path="url(#clip0_2958_61133)">
<path d="M0 0H42V30H0V0Z" fill="#FEDD00"/>
<path d="M0 0H21V15H0V0Z" fill="#012169"/>
<path d="M2.46094 0L10.4672 5.65625L18.4406 0H21V1.9375L13.125 7.53125L21 13.0938V15H18.375L10.5 9.40625L2.65781 15H0V13.125L7.84219 7.5625L0 2V0H2.46094Z" fill="white"/>
<path d="M13.9125 8.78125L21 13.75V15L12.1078 8.78125H13.9125ZM7.875 9.40625L8.07187 10.5L1.77187 15H0L7.875 9.40625ZM21 0V0.09375L12.8297 5.96875L12.8953 4.59375L19.3594 0H21ZM0 0L7.84219 5.5H5.87344L0 1.3125V0Z" fill="#C8102E"/>
<path d="M7.90781 0V15H13.1578V0H7.90781ZM0 5V10H21V5H0Z" fill="white"/>
<path d="M0 6.03125V9.03125H21V6.03125H0ZM8.95781 0V15H12.1078V0H8.95781Z" fill="#C8102E"/>
<path d="M10.4998 10.0502C11.9785 10.0502 13.1773 8.90852 13.1773 7.5002C13.1773 6.09187 11.9785 4.9502 10.4998 4.9502C9.02102 4.9502 7.82227 6.09187 7.82227 7.5002C7.82227 8.90852 9.02102 10.0502 10.4998 10.0502Z" fill="#012169"/>
<path d="M10.4999 4.9498L12.0749 9.5623L7.95367 6.7123H13.0462L8.92492 9.5623M4.37711 6.14355L5.29586 8.85605L2.88086 7.1873H5.87992L3.4518 8.8623M16.6227 6.14355L17.548 8.85605L15.1265 7.18105H18.1255L15.6974 8.85605M10.4999 11.1436L11.4252 13.8561L8.99711 12.1811H11.9962L9.56805 13.8561M10.4999 1.14355L11.4252 3.85605L8.99711 2.18105H11.9962L9.56805 3.85605" fill="#FEDD00"/>
</g>
<defs>
<clipPath id="clip0_2958_61133">
<rect width="42" height="30" rx="2" fill="white"/>
</clipPath>
</defs>
</svg>
