<svg width="42" height="30" viewBox="0 0 42 30" fill="none" xmlns="http://www.w3.org/2000/svg">
<rect width="42" height="30" rx="2" fill="#3A99FF"/>
<path fill-rule="evenodd" clip-rule="evenodd" d="M20 8H18.99C18.43 8 18 8.448 18 9C18 9.536 18.444 10 18.99 10H20V11.01C20 11.57 20.448 12 21 12C21.536 12 22 11.556 22 11.01V10H23.01C23.57 10 24 9.552 24 9C24 8.464 23.556 8 23.01 8H22V6.99C22 6.43 21.552 6 21 6C20.464 6 20 6.444 20 6.99V8ZM28 14H26.99C26.43 14 26 14.448 26 15C26 15.536 26.444 16 26.99 16H28V17.01C28 17.57 28.448 18 29 18C29.536 18 30 17.556 30 17.01V16H31.01C31.57 16 32 15.552 32 15C32 14.464 31.556 14 31.01 14H30V12.99C30 12.43 29.552 12 29 12C28.464 12 28 12.444 28 12.99V14ZM20 20H18.99C18.43 20 18 20.448 18 21C18 21.536 18.444 22 18.99 22H20V23.01C20 23.57 20.448 24 21 24C21.536 24 22 23.556 22 23.01V22H23.01C23.57 22 24 21.552 24 21C24 20.464 23.556 20 23.01 20H22V18.99C22 18.43 21.552 18 21 18C20.464 18 20 18.444 20 18.99V20ZM12 14H10.99C10.43 14 10 14.448 10 15C10 15.536 10.444 16 10.99 16H12V17.01C12 17.57 12.448 18 13 18C13.536 18 14 17.556 14 17.01V16H15.01C15.57 16 16 15.552 16 15C16 14.464 15.556 14 15.01 14H14V12.99C14 12.43 13.552 12 13 12C12.464 12 12 12.444 12 12.99V14Z" fill="white"/>
</svg>
