<svg width="42" height="30" viewBox="0 0 42 30" fill="none" xmlns="http://www.w3.org/2000/svg">
<rect width="42" height="30" rx="2" fill="white"/>
<mask id="mask0_2898_29515" style="mask-type:luminance" maskUnits="userSpaceOnUse" x="0" y="0" width="42" height="30">
<rect width="42" height="30" rx="2" fill="white"/>
</mask>
<g mask="url(#mask0_2898_29515)">
<rect width="42" height="30" fill="#E31F37"/>
<path fill-rule="evenodd" clip-rule="evenodd" d="M-2 16H22V-2H-2V16Z" fill="#083B9A"/>
<path fill-rule="evenodd" clip-rule="evenodd" d="M10.0002 4.00015L8.58594 4.41436L9.00015 3.00015L8.58594 1.58594L10.0002 2.00015L11.4144 1.58594L11.0002 3.00015L11.4144 4.41436L10.0002 4.00015ZM10.0002 14.0002L8.58594 14.4144L9.00015 13.0002L8.58594 11.5859L10.0002 12.0002L11.4144 11.5859L11.0002 13.0002L11.4144 14.4144L10.0002 14.0002ZM4.58594 9.41436L6.00015 9.00015L7.41436 9.41436L7.00015 8.00015L7.41436 6.58594L6.00015 7.00015L4.58594 6.58594L5.00015 8.00015L4.58594 9.41436ZM15.0002 8.00015L13.5859 8.41436L14.0002 7.00015L13.5859 5.58594L15.0002 6.00015L16.4144 5.58594L16.0002 7.00015L16.4144 8.41436L15.0002 8.00015ZM13.0002 10.5002C13.0002 10.7763 12.7763 11.0002 12.5002 11.0002C12.224 11.0002 12.0002 10.7763 12.0002 10.5002C12.0002 10.224 12.224 10.0002 12.5002 10.0002C12.7763 10.0002 13.0002 10.224 13.0002 10.5002Z" fill="white"/>
</g>
</svg>
