<svg width="42" height="30" viewBox="0 0 42 30" fill="none" xmlns="http://www.w3.org/2000/svg">
<g clip-path="url(#clip0_2906_61432)">
<rect width="42" height="30" rx="2" fill="#1A47B8"/>
<path fill-rule="evenodd" clip-rule="evenodd" d="M0 30H42V0L0 30Z" fill="#FFDA2C"/>
<path fill-rule="evenodd" clip-rule="evenodd" d="M4.00012 30.0001L42 30L42.0001 4.00007L4.00012 30.0001Z" fill="#249F58"/>
<path fill-rule="evenodd" clip-rule="evenodd" d="M10.2443 11.3161L9.00826 12.0001L9.24426 10.5521L8.24426 9.52807L9.62426 9.31607L10.2443 8.00007L10.8643 9.31607L12.2443 9.52807L11.2443 10.5521L11.4803 12.0001L10.2443 11.3161ZM6.24426 7.31607L5.00826 8.00007L5.24426 6.55207L4.24426 5.52807L5.62426 5.31607L6.24426 4.00007L6.86426 5.31607L8.24426 5.52807L7.24426 6.55207L7.48026 8.00007L6.24426 7.31607ZM14.2443 7.31607L13.0083 8.00007L13.2443 6.55207L12.2443 5.52807L13.6243 5.31607L14.2443 4.00007L14.8643 5.31607L16.2443 5.52807L15.2443 6.55207L15.4803 8.00007L14.2443 7.31607ZM14.2443 15.3161L13.0083 16.0001L13.2443 14.5521L12.2443 13.5281L13.6243 13.3161L14.2443 12.0001L14.8643 13.3161L16.2443 13.5281L15.2443 14.5521L15.4803 16.0001L14.2443 15.3161ZM6.24426 15.3161L5.00826 16.0001L5.24426 14.5521L4.24426 13.5281L5.62426 13.3161L6.24426 12.0001L6.86426 13.3161L8.24426 13.5281L7.24426 14.5521L7.48026 16.0001L6.24426 15.3161Z" fill="white"/>
</g>
<defs>
<clipPath id="clip0_2906_61432">
<rect width="42" height="30" rx="2" fill="white"/>
</clipPath>
</defs>
</svg>
