<svg width="42" height="30" viewBox="0 0 42 30" fill="none" xmlns="http://www.w3.org/2000/svg">
<g clip-path="url(#clip0_2906_61505)">
<rect width="42" height="30" rx="2" fill="white"/>
<path d="M0 0H42V30H0V0Z" fill="#C81010"/>
<path d="M21.6302 2.73358C19.8534 1.94458 18.7657 1.79958 17.5505 1.78658C15.7905 1.79958 14.9505 2.61158 13.2725 2.68658C13.9374 3.45558 16.3474 3.64358 17.3633 2.63358C18.8738 2.80258 19.2164 3.24058 19.6215 3.78558C18.9911 3.67858 18.2647 3.48358 17.6622 4.19958C17.1538 4.30958 16.9182 4.19958 16.0484 4.19958C15.6424 4.19958 15.5018 4.41358 15.5074 4.79958C15.77 4.40958 17.5849 4.63958 18.0301 4.79958C18.3718 4.92258 18.735 5.43158 19.168 5.51458C20.3032 5.73158 21.9319 5.09458 23.434 4.66058L26.6821 4.19958H24.4536L27.2408 3.59958H24.2106C24.1463 3.52058 23.9927 3.41858 23.8698 3.33158C24.6492 2.79258 25.3383 1.81258 25.5143 1.33958C26.9195 1.32458 27.8265 1.18458 28.917 0.910577C21.7298 0.0565767 23.366 0.977577 21.6302 2.73358Z" fill="#F8D000" stroke="#000008" stroke-width="0.2254" stroke-miterlimit="22.9256"/>
<path d="M18.3067 3.98828C18.384 3.98828 18.4464 4.05528 18.4464 4.13828C18.4464 4.22128 18.384 4.28828 18.3067 4.28828C18.2303 4.28828 18.167 4.22128 18.167 4.13828C18.167 4.05528 18.2303 3.98828 18.3067 3.98828Z" fill="#000008"/>
<path d="M18.3067 3.98828C18.384 3.98828 18.4464 4.05528 18.4464 4.13828C18.4464 4.22128 18.384 4.28828 18.3067 4.28828C18.2303 4.28828 18.167 4.22128 18.167 4.13828C18.167 4.05528 18.2303 3.98828 18.3067 3.98828Z" stroke="#000008" stroke-width="0.0735" stroke-miterlimit="22.9256"/>
<path d="M20.1756 3.8282C20.1756 3.8282 19.5917 4.1992 19.2043 4.1992M23.434 4.6602C23.434 4.6602 23.9675 4.1992 24.4536 4.1992M14.9319 2.4592C14.9319 2.4592 15.3658 2.2152 15.5707 2.1502M16.7301 2.1112C16.7301 2.1112 17.4183 1.7922 18.1847 1.8082M18.5907 2.1892C18.5907 2.1892 19.493 2.0262 20.3265 2.2252M19.628 2.4232C19.628 2.4232 20.3768 2.2882 21.0947 2.5062M20.3982 2.6682C20.3982 2.6682 21.1608 2.6792 21.5398 2.8372M13.2725 2.6862C13.2725 2.6862 14.3424 3.0002 15.2122 2.5512" stroke="#000008" stroke-width="0.2254" stroke-miterlimit="22.9256"/>
<path d="M13.4082 2.82281C13.4082 2.82281 14.7976 3.19081 15.4327 2.50781" stroke="#000008" stroke-width="0.2254" stroke-miterlimit="22.9256"/>
<path d="M13.874 3.08061C13.874 3.08061 14.9207 3.44261 15.7439 2.50861M14.8462 3.30761C14.8462 3.30761 15.6918 3.04761 16.0121 2.51261M15.5074 3.32261C15.5074 3.32261 16.0745 2.90061 16.2784 2.52461M22.8138 2.84661C22.8138 2.84661 23.0354 3.14561 23.8698 3.33161M22.9609 2.70561C22.9609 2.70561 23.3194 3.09061 24.0662 3.18461M23.1415 2.52461C23.1415 2.52461 23.5056 2.86061 24.2981 2.98561M23.3213 2.33161C23.3213 2.33161 23.8781 2.73061 24.5123 2.77661M23.541 2.07961C23.541 2.07961 23.9312 2.47061 24.7051 2.56761M23.7049 1.87861C23.7049 1.87861 24.1622 2.30061 24.8811 2.35861M23.866 1.66861C23.866 1.66861 24.1463 2.01661 25.071 2.10761M24.0299 1.44161C24.0299 1.44161 24.3419 1.80961 25.22 1.88961M24.1575 1.25461C24.1575 1.25461 24.7069 1.69961 25.3429 1.69061M24.2665 1.08461C24.2665 1.08461 24.9928 1.55261 25.4258 1.53761M24.3987 0.868609C24.3987 0.868609 24.976 1.25461 25.5143 1.33961M21.9179 3.03761C21.9179 3.03761 22.1507 3.22661 22.3686 3.21861M22.052 2.89761C22.052 2.89761 22.2541 3.08261 22.5316 3.08161M22.215 2.72561C22.215 2.72561 22.4441 2.95561 22.7188 2.91361M22.3696 2.55961C22.3696 2.55961 22.6433 2.75961 22.8883 2.75361M22.5409 2.37061C22.5409 2.37061 22.7439 2.55961 23.0652 2.57761M22.6936 2.16261C22.6936 2.16261 22.932 2.38961 23.2356 2.39761M22.8547 2.01261C22.8547 2.01261 23.0857 2.17161 23.4125 2.20161M23.0009 1.83761C23.0009 1.83761 23.3129 1.95561 23.5988 1.98461M23.1695 1.62361C23.1695 1.62361 23.3846 1.78561 23.7664 1.77561M23.3213 1.40961C23.3213 1.40961 23.5764 1.59161 23.9042 1.59561M23.433 1.20661C23.433 1.20661 23.7757 1.41261 24.0709 1.36661M23.5578 0.963609C23.5578 0.963609 23.7748 1.21861 24.1789 1.20961M23.6453 0.853609C23.6453 0.853609 24.0346 1.08861 24.2981 1.02861M23.8102 0.720609C23.8102 0.720609 24.1054 0.913609 24.3754 0.905609M24.11 0.623609C24.11 0.623609 24.6362 0.911609 25.3476 0.599609M24.5579 0.828609C24.5579 0.828609 25.6214 1.09061 26.0823 0.632609" stroke="#000008" stroke-width="0.2254" stroke-miterlimit="22.9256"/>
<path d="M25.3926 0.896195C25.3926 0.896195 26.1236 0.978195 26.9412 0.700195" stroke="#000008" stroke-width="0.2254" stroke-miterlimit="22.9256"/>
<path d="M25.8784 0.901367C25.8784 0.901367 26.9884 1.14137 28.917 0.910367M15.8091 3.29537C15.8091 3.29537 16.3054 2.94437 16.5112 2.54037M16.1806 3.23037C16.1806 3.23037 16.5801 2.81437 16.6965 2.55637M16.5494 3.12337C16.5494 3.12337 16.8781 2.80637 16.9508 2.58437" stroke="#000008" stroke-width="0.2254" stroke-miterlimit="22.9256"/>
<path d="M14.9438 2.56545C14.9438 2.56545 15.6572 2.39845 17.3632 2.63345M15.6032 2.25945C15.6032 2.25945 16.201 1.94845 16.7337 1.85345M16.1973 2.13045C16.1973 2.13045 16.634 1.90945 17.2784 1.79945M17.19 2.08845C17.19 2.08845 17.7943 1.81145 18.5337 1.83745M17.9545 2.09345C17.9545 2.09345 18.7833 1.89445 19.5469 2.00645M20.1736 2.52845C20.1736 2.52845 20.8059 2.49745 21.5332 2.69145M19.0924 2.25545C19.0924 2.25545 19.9985 2.20345 20.6196 2.32645M24.6956 0.856445C24.6956 0.856445 25.0085 1.14745 25.8801 1.33245M25.1873 0.903445C25.1873 0.903445 25.6771 1.20245 26.45 1.30645M25.7013 0.907445C25.7013 0.907445 26.3886 1.22845 27.1149 1.24845M26.4621 0.977445C26.4621 0.977445 27.1624 1.15845 28.0303 1.10945M17.5941 2.07745C17.5941 2.07745 18.069 1.86745 18.9109 1.88445M20.7258 2.84145C20.7258 2.84145 21.0108 2.80445 21.3646 2.98545" stroke="#000008" stroke-width="0.2254" stroke-miterlimit="22.9256"/>
<path d="M19.6216 3.7854C19.8181 3.8184 20.0052 3.8434 20.1757 3.8284C20.8424 3.4374 21.2978 3.0704 21.6302 2.7334" stroke="#000008" stroke-width="0.2254" stroke-miterlimit="22.9256"/>
<path d="M16.277 14.9077C15.6386 14.6684 15.0361 14.3239 14.5093 13.897C13.9825 13.47 13.5432 12.9703 13.2205 12.4306C13.7622 12.8426 14.3748 13.1689 15.0182 13.3878C15.6615 13.6066 16.3209 13.7133 16.953 13.7006" fill="#F8D000"/>
<path d="M16.277 14.9077C15.6386 14.6684 15.0361 14.3239 14.5093 13.897C13.9825 13.47 13.5432 12.9703 13.2205 12.4306C13.7622 12.8426 14.3748 13.1689 15.0182 13.3878C15.6615 13.6066 16.3209 13.7133 16.953 13.7006" stroke="#000008" stroke-width="0.2254" stroke-miterlimit="22.926"/>
<path d="M16.2972 16.0696L12.5061 14.4055L16.5272 14.8747" fill="#F8D000"/>
<path d="M16.2972 16.0696L12.5061 14.4055L16.5272 14.8747" stroke="#000008" stroke-width="0.2254" stroke-miterlimit="22.926"/>
<path d="M17.034 13.117C16.4496 12.713 15.9322 12.2003 15.5158 11.6124C15.0993 11.0246 14.7933 10.3751 14.6179 9.70657C15.0538 10.2811 15.5869 10.7758 16.1822 11.1582C16.7774 11.5406 17.4213 11.802 18.0714 11.9252" fill="#F8D000"/>
<path d="M17.034 13.117C16.4496 12.713 15.9322 12.2003 15.5158 11.6124C15.0993 11.0246 14.7933 10.3751 14.6179 9.70657C15.0538 10.2811 15.5869 10.7758 16.1822 11.1582C16.7774 11.5406 17.4213 11.802 18.0714 11.9252" stroke="#000008" stroke-width="0.2254" stroke-miterlimit="22.926"/>
<path d="M16.6346 14.2037L13.2889 11.3378L17.3051 12.7583" fill="#F8D000"/>
<path d="M16.6346 14.2037L13.2889 11.3378L17.3051 12.7583" stroke="#000008" stroke-width="0.2254" stroke-miterlimit="22.926"/>
<path d="M18.0427 11.6652C17.6242 11.1307 17.3197 10.5044 17.1493 9.82758C16.9789 9.15071 16.9463 8.43861 17.0539 7.73811C17.2496 8.4064 17.5777 9.01854 18.0163 9.53427C18.4549 10.05 18.9943 10.4576 19.5989 10.7303" fill="#F8D000"/>
<path d="M18.0427 11.6652C17.6242 11.1307 17.3197 10.5044 17.1493 9.82758C16.9789 9.15071 16.9463 8.43861 17.0539 7.73811C17.2496 8.4064 17.5777 9.01854 18.0163 9.53427C18.4549 10.05 18.9943 10.4576 19.5989 10.7303" stroke="#000008" stroke-width="0.2254" stroke-miterlimit="22.926"/>
<path d="M17.2794 12.5265L15.2735 8.7428L18.595 11.2328" fill="#F8D000"/>
<path d="M17.2794 12.5265L15.2735 8.7428L18.595 11.2328" stroke="#000008" stroke-width="0.2254" stroke-miterlimit="22.926"/>
<path d="M19.4184 10.7447C19.2273 10.1516 19.1857 9.49622 19.2964 8.8216C19.4071 8.14698 19.6674 7.46846 20.0604 6.83066C19.9781 7.50258 20.0485 8.14968 20.267 8.72936C20.4855 9.30905 20.8472 9.8082 21.3281 10.194" fill="#F8D000"/>
<path d="M19.4184 10.7447C19.2273 10.1516 19.1857 9.49622 19.2964 8.8216C19.4071 8.14698 19.6674 7.46846 20.0604 6.83066C19.9781 7.50258 20.0485 8.14968 20.267 8.72936C20.4855 9.30905 20.8472 9.8082 21.3281 10.194" stroke="#000008" stroke-width="0.2254" stroke-miterlimit="22.926"/>
<path d="M18.4433 11.2631L18.043 7.0653L20.2227 10.3097" fill="#F8D000"/>
<path d="M18.4433 11.2631L18.043 7.0653L20.2227 10.3097" stroke="#000008" stroke-width="0.2254" stroke-miterlimit="22.926"/>
<path d="M21.3295 10.9218C21.3544 10.1705 21.519 9.3984 21.8124 8.65638C22.1059 7.91437 22.5215 7.21922 23.032 6.61666C22.7623 7.36529 22.6236 8.13763 22.6249 8.88285C22.6262 9.62808 22.7676 10.3293 23.0398 10.9404" fill="#F8D000"/>
<path d="M21.3295 10.9218C21.3544 10.1705 21.519 9.3984 21.8124 8.65638C22.1059 7.91437 22.5215 7.21922 23.032 6.61666C22.7623 7.36529 22.6236 8.13763 22.6249 8.88285C22.6262 9.62808 22.7676 10.3293 23.0398 10.9404" stroke="#000008" stroke-width="0.2254" stroke-miterlimit="22.926"/>
<path d="M20.2624 10.5867L21.0762 6.49888L21.9685 10.1879" fill="#F8D000"/>
<path d="M20.2624 10.5867L21.0762 6.49888L21.9685 10.1879" stroke="#000008" stroke-width="0.2254" stroke-miterlimit="22.926"/>
<path d="M23.0318 11.2014C23.264 10.5257 23.6299 9.89511 24.1052 9.35117C24.5806 8.80723 25.1547 8.36225 25.7898 8.04549C25.3343 8.60638 24.9921 9.24906 24.7855 9.93125C24.579 10.6134 24.5129 11.3197 24.5916 12.0035" fill="#F8D000"/>
<path d="M23.0318 11.2014C23.264 10.5257 23.6299 9.89511 24.1052 9.35117C24.5806 8.80723 25.1547 8.36225 25.7898 8.04549C25.3343 8.60638 24.9921 9.24906 24.7855 9.93125C24.579 10.6134 24.5129 11.3197 24.5916 12.0035" stroke="#000008" stroke-width="0.2254" stroke-miterlimit="22.926"/>
<path d="M21.9675 10.8604L24.138 6.79033L23.7651 11.2633" fill="#F8D000"/>
<path d="M21.9675 10.8604L24.138 6.79033L23.7651 11.2633" stroke="#000008" stroke-width="0.2254" stroke-miterlimit="22.926"/>
<path d="M24.4657 11.88C24.9145 11.3928 25.461 11.027 26.0693 10.8068C26.6775 10.5865 27.3337 10.5168 27.9947 10.6022C27.3972 10.85 26.8664 11.241 26.4372 11.7495C26.008 12.2581 25.6902 12.8726 25.5046 13.5526" fill="#F8D000"/>
<path d="M24.4657 11.88C24.9145 11.3928 25.461 11.027 26.0693 10.8068C26.6775 10.5865 27.3337 10.5168 27.9947 10.6022C27.3972 10.85 26.8664 11.241 26.4372 11.7495C26.008 12.2581 25.6902 12.8726 25.5046 13.5526" stroke="#000008" stroke-width="0.2254" stroke-miterlimit="22.926"/>
<path d="M23.5954 11.1592L26.8947 8.77928L24.9552 12.5263" fill="#F8D000"/>
<path d="M23.5954 11.1592L26.8947 8.77928L24.9552 12.5263" stroke="#000008" stroke-width="0.2254" stroke-miterlimit="22.926"/>
<path d="M25.4466 13.4041C26.0409 13.1334 26.6869 13.0153 27.3419 13.0574C27.997 13.0995 28.6464 13.3009 29.2473 13.6484C28.593 13.6363 27.9534 13.7843 27.3705 14.0828C26.7876 14.3812 26.2746 14.8233 25.8653 15.38" fill="#F8D000"/>
<path d="M25.4466 13.4041C26.0409 13.1334 26.6869 13.0153 27.3419 13.0574C27.997 13.0995 28.6464 13.3009 29.2473 13.6484C28.593 13.6363 27.9534 13.7843 27.3705 14.0828C26.7876 14.3812 26.2746 14.8233 25.8653 15.38" stroke="#000008" stroke-width="0.2254" stroke-miterlimit="22.926"/>
<path d="M24.8851 12.4106L28.8334 11.5146L25.6915 14.2054" fill="#F8D000"/>
<path d="M24.8851 12.4106L28.8334 11.5146L25.6915 14.2054" stroke="#000008" stroke-width="0.2254" stroke-miterlimit="22.926"/>
<path d="M25.7919 15.3738C26.4537 15.3665 27.119 15.5008 27.7439 15.768C28.3689 16.0351 28.9393 16.4289 29.4178 16.9235C28.7845 16.681 28.1162 16.573 27.457 16.6068C26.7978 16.6406 26.1626 16.8153 25.5932 17.1196" fill="#F8D000"/>
<path d="M25.7919 15.3738C26.4537 15.3665 27.119 15.5008 27.7439 15.768C28.3689 16.0351 28.9393 16.4289 29.4178 16.9235C28.7845 16.681 28.1162 16.573 27.457 16.6068C26.7978 16.6406 26.1626 16.8153 25.5932 17.1196" stroke="#000008" stroke-width="0.2254" stroke-miterlimit="22.926"/>
<path d="M25.6626 13.9688L29.7033 14.8593L25.8534 16.0703" fill="#F8D000"/>
<path d="M25.6626 13.9688L29.7033 14.8593L25.8534 16.0703" stroke="#000008" stroke-width="0.2254" stroke-miterlimit="22.926"/>
<path d="M21.0949 20.7C23.7179 20.7 25.8442 18.4167 25.8442 15.6C25.8442 12.7833 23.7179 10.5 21.0949 10.5C18.472 10.5 16.3457 12.7833 16.3457 15.6C16.3457 18.4167 18.472 20.7 21.0949 20.7Z" fill="#F8D000" stroke="#000008" stroke-width="0.2254" stroke-miterlimit="22.926"/>
<mask id="mask0_2906_61505" style="mask-type:luminance" maskUnits="userSpaceOnUse" x="0" y="0" width="42" height="30">
<path d="M42 0H0V30H42V0Z" fill="white"/>
</mask>
<g mask="url(#mask0_2906_61505)">
<path d="M0 16.2002H42V30.0002H0V16.2002Z" fill="#183070"/>
<path d="M-2.52002 16.8002C-1.12002 16.0002 0.27998 16.0002 1.67998 16.8002C3.07998 17.6002 4.47998 17.6002 5.87998 16.8002C7.27998 16.0002 8.67998 16.0002 10.08 16.8002C11.48 17.6002 12.88 17.6002 14.28 16.8002C15.68 16.0002 17.15 16.0002 18.69 16.8002C20.23 17.6002 21.77 17.6002 23.31 16.8002C24.85 16.0002 26.32 16.0002 27.72 16.8002C29.12 17.6002 30.52 17.6002 31.92 16.8002C33.32 16.0002 34.72 16.0002 36.12 16.8002C37.52 17.6002 38.92 17.6002 40.32 16.8002C41.72 16.0002 43.12 16.0002 44.52 16.8002" stroke="white" stroke-width="11.76"/>
<path d="M-2.52002 21.6C-1.12002 20.8 0.27998 20.8 1.67998 21.6C3.07998 22.4 4.47998 22.4 5.87998 21.6C7.27998 20.8 8.67998 20.8 10.08 21.6C11.48 22.4 12.88 22.4 14.28 21.6C15.68 20.8 17.15 20.8 18.69 21.6C20.23 22.4 21.77 22.4 23.31 21.6C24.85 20.8 26.32 20.8 27.72 21.6C29.12 22.4 30.52 22.4 31.92 21.6C33.32 20.8 34.72 20.8 36.12 21.6C37.52 22.4 38.92 22.4 40.32 21.6C41.72 20.8 43.12 20.8 44.52 21.6" stroke="white" stroke-width="11.76"/>
<path d="M-2.52002 26.3998C-1.12002 25.5998 0.27998 25.5998 1.67998 26.3998C3.07998 27.1998 4.47998 27.1998 5.87998 26.3998C7.27998 25.5998 8.67998 25.5998 10.08 26.3998C11.48 27.1998 12.88 27.1998 14.28 26.3998C15.68 25.5998 17.15 25.5998 18.69 26.3998C20.23 27.1998 21.77 27.1998 23.31 26.3998C24.85 25.5998 26.32 25.5998 27.72 26.3998C29.12 27.1998 30.52 27.1998 31.92 26.3998C33.32 25.5998 34.72 25.5998 36.12 26.3998C37.52 27.1998 38.92 27.1998 40.32 26.3998C41.72 25.5998 43.12 25.5998 44.52 26.3998" stroke="white" stroke-width="11.76"/>
</g>
</g>
<defs>
<clipPath id="clip0_2906_61505">
<rect width="42" height="30" rx="2" fill="white"/>
</clipPath>
</defs>
</svg>
