<svg width="42" height="30" viewBox="0 0 42 30" fill="none" xmlns="http://www.w3.org/2000/svg">
<g clip-path="url(#clip0_2906_61466)">
<rect width="42" height="30" rx="2" fill="white"/>
<path d="M0 0H42V30H0V0Z" fill="#012169"/>
<mask id="mask0_2906_61466" style="mask-type:luminance" maskUnits="userSpaceOnUse" x="0" y="0" width="42" height="30">
<path d="M0 0H42V30H0V0Z" fill="white"/>
</mask>
<g mask="url(#mask0_2906_61466)">
<path d="M0 0L21 15M0 15L21 0" stroke="white" stroke-width="14.7"/>
<mask id="mask1_2906_61466" style="mask-type:luminance" maskUnits="userSpaceOnUse" x="0" y="0" width="22" height="16">
<path d="M0 0V7.5H21.7V15.5L0 0ZM0 15V15.5H10.5V0H21L0 15Z" fill="white"/>
</mask>
<g mask="url(#mask1_2906_61466)">
<path d="M0 0L21 15M0 15L21 0" stroke="#C8102E" stroke-width="9.8"/>
</g>
<path d="M10.5 0V15.5M0 7.5H21.7" stroke="white" stroke-width="24.5"/>
<path d="M10.5 0V15.5M0 7.5H21.7" stroke="#C8102E" stroke-width="14.7"/>
</g>
<path d="M21 0H42V30H0V15H21V0Z" fill="#009CDE"/>
<path d="M16.0541 24.3711L17.493 29.1264L13.7261 26.1874H18.3822L14.6153 29.1264L16.0541 24.3711Z" fill="#FEDD00"/>
<path d="M21.8744 21.8783L20.4356 17.123L24.2025 20.062H19.5464L23.3133 17.123L21.8744 21.8783Z" fill="#FEDD00"/>
<path d="M21.8744 28.1283L20.4356 23.373L24.2025 26.312H19.5464L23.3133 23.373L21.8744 28.1283Z" fill="#FEDD00"/>
<path d="M27.6943 13.3783L26.2554 8.62305L30.0223 11.562H25.3662L29.1331 8.62305L27.6943 13.3783Z" fill="#FEDD00"/>
<path d="M27.6943 26.3783L26.2554 21.623L30.0223 24.562H25.3662L29.1331 21.623L27.6943 26.3783Z" fill="#FEDD00"/>
<path d="M32.5834 11.3783L31.1446 6.62305L34.9115 9.562H30.2554L34.0223 6.62305L32.5834 11.3783Z" fill="#FEDD00"/>
<path d="M32.5834 16.6211L34.0223 21.3764L30.2554 18.4374H34.9115L31.1446 21.3764L32.5834 16.6211Z" fill="#FEDD00"/>
<path d="M37.4721 1.37109L38.9109 6.12639L35.144 3.18744H39.8002L36.0333 6.12639L37.4721 1.37109Z" fill="#FEDD00"/>
<path d="M37.4721 13.3711L38.9109 18.1264L35.144 15.1874H39.8002L36.0333 18.1264L37.4721 13.3711Z" fill="#FEDD00"/>
</g>
<defs>
<clipPath id="clip0_2906_61466">
<rect width="42" height="30" rx="2" fill="white"/>
</clipPath>
</defs>
</svg>
