<svg width="42" height="30" viewBox="0 0 42 30" fill="none" xmlns="http://www.w3.org/2000/svg">
<rect width="42" height="30" rx="2" fill="white"/>
<mask id="mask0_2898_29526" style="mask-type:luminance" maskUnits="userSpaceOnUse" x="0" y="0" width="42" height="30">
<rect width="42" height="30" rx="2" fill="white"/>
</mask>
<g mask="url(#mask0_2898_29526)">
<rect width="42" height="30" fill="#262626"/>
<path fill-rule="evenodd" clip-rule="evenodd" d="M0 0H42V30L0 0Z" fill="#E8283F"/>
<path fill-rule="evenodd" clip-rule="evenodd" d="M10 25L8.58579 25.4142L9 24L8.58579 22.5858L10 23L11.4142 22.5858L11 24L11.4142 25.4142L10 25Z" fill="white"/>
<path fill-rule="evenodd" clip-rule="evenodd" d="M10 13L8.58579 13.4142L9 12L8.58579 10.5858L10 11L11.4142 10.5858L11 12L11.4142 13.4142L10 13Z" fill="white"/>
<path fill-rule="evenodd" clip-rule="evenodd" d="M5 18L3.58579 18.4142L4 17L3.58579 15.5858L5 16L6.41421 15.5858L6 17L6.41421 18.4142L5 18Z" fill="white"/>
<path fill-rule="evenodd" clip-rule="evenodd" d="M14 17L12.5858 17.4142L13 16L12.5858 14.5858L14 15L15.4142 14.5858L15 16L15.4142 17.4142L14 17Z" fill="white"/>
<path fill-rule="evenodd" clip-rule="evenodd" d="M28.2918 13.8984C28.0524 13.7547 27.8583 13.4163 27.8583 13.1456L27.8583 11.3025C27.8583 11.0304 27.6625 10.8751 27.3663 10.9738L26.229 11.3529C25.9572 11.4435 25.5412 11.4517 25.245 11.3529L24.1076 10.9738C23.8359 10.8832 23.8057 10.6958 24.0492 10.5497L26.7176 8.94861C26.9571 8.80495 27.0859 8.49273 26.9872 8.19649L26.6081 7.05918C26.5175 6.78745 26.6398 6.63243 26.9361 6.73117L28.0734 7.11028C28.3451 7.20085 28.6794 7.08419 28.8255 6.84075L30.4266 4.17227C30.5702 3.93284 30.752 3.93451 30.8507 4.23075L31.2298 5.36806C31.3204 5.63979 31.3286 6.05583 31.2298 6.35207L30.8507 7.48938C30.7601 7.76111 30.9086 7.98139 31.1794 7.98139H33.0225C33.2946 7.98139 33.6292 8.17147 33.7752 8.41491L35.3763 11.0834C35.52 11.3228 35.4045 11.5633 35.1449 11.6152L32.5925 12.1257C32.321 12.18 32.0545 12.456 32.0026 12.7156L31.4921 15.268C31.4378 15.5395 31.2037 15.6455 30.9603 15.4994L28.2918 13.8984Z" fill="#FFD84E"/>
</g>
</svg>
