<svg width="42" height="30" viewBox="0 0 42 30" fill="none" xmlns="http://www.w3.org/2000/svg">
<rect width="42" height="30" rx="2" fill="white"/>
<mask id="mask0_2898_29494" style="mask-type:luminance" maskUnits="userSpaceOnUse" x="0" y="0" width="42" height="30">
<rect width="42" height="30" rx="2" fill="white"/>
</mask>
<g mask="url(#mask0_2898_29494)">
<rect width="42" height="30" fill="#79CFF6"/>
<rect width="18" height="14" fill="url(#paint0_linear_2898_29494)"/>
<path fill-rule="evenodd" clip-rule="evenodd" d="M26 15C26 12 26 8 26 8H36C36 8 36 12 36 15C36 20 31 22 31 22C31 22 26 20 26 15Z" fill="white"/>
<mask id="mask1_2898_29494" style="mask-type:luminance" maskUnits="userSpaceOnUse" x="26" y="8" width="10" height="14">
<path fill-rule="evenodd" clip-rule="evenodd" d="M26 15C26 12 26 8 26 8H36C36 8 36 12 36 15C36 20 31 22 31 22C31 22 26 20 26 15Z" fill="white"/>
</mask>
<g mask="url(#mask1_2898_29494)">
<path fill-rule="evenodd" clip-rule="evenodd" d="M29 12C29 12.5523 28.5523 13 28 13C27.4477 13 27 12.5523 27 12C27 11.4477 27.4477 11 28 11C28.5523 11 29 11.4477 29 12ZM35 12C35 12.5523 34.5523 13 34 13C33.4477 13 33 12.5523 33 12C33 11.4477 33.4477 11 34 11C34.5523 11 35 11.4477 35 12Z" fill="#2A915C"/>
<path fill-rule="evenodd" clip-rule="evenodd" d="M26 8H36V10H32V14H36V16H32V22H30V16H26V14H30V10H26V8Z" fill="#EB1D43"/>
</g>
<path d="M0 -0.333333H-0.901086L-0.21693 0.253086L6.66667 6.15331V7.82846L-0.193746 12.7288L-0.333333 12.8285V13V14V14.6014L0.176666 14.2827L8.0956 9.33333H9.89318L16.72 14.2096C16.8326 14.2901 16.9676 14.3333 17.106 14.3333C17.7225 14.3333 18.0062 13.5663 17.5381 13.1651L11.3333 7.84669V6.17154L18.0542 1.37095C18.2294 1.24581 18.3333 1.04376 18.3333 0.828461V0V-0.601416L17.8233 -0.282666L9.9044 4.66667H8.10682L1.19375 -0.271244L1.10682 -0.333333H1H0Z" fill="#DB1E36" stroke="white" stroke-width="0.666667"/>
<path fill-rule="evenodd" clip-rule="evenodd" d="M0 5V9H7V14.3333C7 14.7015 7.29848 15 7.66667 15H10.3333C10.7015 15 11 14.7015 11 14.3333V9H18.3333C18.7015 9 19 8.70152 19 8.33333V5.66667C19 5.29848 18.7015 5 18.3333 5H11V0H7V5H0Z" fill="url(#paint1_linear_2898_29494)"/>
<path fill-rule="evenodd" clip-rule="evenodd" d="M0 6H8V5V0H10V5V6H18V8H10V9V14H8V9V8H0V6Z" fill="#DB1E36"/>
</g>
<defs>
<linearGradient id="paint0_linear_2898_29494" x1="0" y1="0" x2="0" y2="14" gradientUnits="userSpaceOnUse">
<stop stop-color="#042C90"/>
<stop offset="1" stop-color="#00247E"/>
</linearGradient>
<linearGradient id="paint1_linear_2898_29494" x1="0" y1="0" x2="0" y2="15" gradientUnits="userSpaceOnUse">
<stop stop-color="white"/>
<stop offset="1" stop-color="#F0F0F0"/>
</linearGradient>
</defs>
</svg>
