<svg width="42" height="30" viewBox="0 0 42 30" fill="none" xmlns="http://www.w3.org/2000/svg">
<rect width="42" height="30" rx="2" fill="white"/>
<mask id="mask0_2898_29475" style="mask-type:luminance" maskUnits="userSpaceOnUse" x="0" y="0" width="42" height="30">
<rect width="42" height="30" rx="2" fill="white"/>
</mask>
<g mask="url(#mask0_2898_29475)">
<rect width="42" height="30" fill="#0A17A7"/>
<path d="M0 -0.333333H-0.901086L-0.21693 0.253086L6.66667 6.15331V7.82846L-0.193746 12.7288L-0.333333 12.8285V13V14V14.6014L0.176666 14.2827L8.0956 9.33333H9.89318L16.72 14.2096C16.8326 14.2901 16.9676 14.3333 17.106 14.3333C17.7225 14.3333 18.0062 13.5663 17.5381 13.1651L11.3333 7.84669V6.17154L18.0542 1.37095C18.2294 1.24581 18.3333 1.04376 18.3333 0.828461V0V-0.601416L17.8233 -0.282666L9.9044 4.66667H8.10682L1.19375 -0.271244L1.10682 -0.333333H1H0Z" fill="#FF2E3B" stroke="white" stroke-width="0.666667"/>
<path fill-rule="evenodd" clip-rule="evenodd" d="M0 5V9H7V14.3333C7 14.7015 7.29848 15 7.66667 15H10.3333C10.7015 15 11 14.7015 11 14.3333V9H18.3333C18.7015 9 19 8.70152 19 8.33333V5.66667C19 5.29848 18.7015 5 18.3333 5H11V0H7V5H0Z" fill="url(#paint0_linear_2898_29475)"/>
<path fill-rule="evenodd" clip-rule="evenodd" d="M0 6H8V5V0H10V5V6H18V8H10V9V14H8V9V8H0V6Z" fill="url(#paint1_linear_2898_29475)"/>
<path fill-rule="evenodd" clip-rule="evenodd" d="M9 24.5L7.23664 25.4271L7.57342 23.4635L6.14683 22.0729L8.11832 21.7865L9 20L9.88168 21.7865L11.8532 22.0729L10.4266 23.4635L10.7634 25.4271L9 24.5Z" fill="white"/>
<path fill-rule="evenodd" clip-rule="evenodd" d="M30 26L28.5858 26.4142L29 25L28.5858 23.5858L30 24L31.4142 23.5858L31 25L31.4142 26.4142L30 26Z" fill="white"/>
<path fill-rule="evenodd" clip-rule="evenodd" d="M30 7L28.5858 7.41421L29 6L28.5858 4.58579L30 5L31.4142 4.58579L31 6L31.4142 7.41421L30 7Z" fill="white"/>
<path fill-rule="evenodd" clip-rule="evenodd" d="M36 13L34.5858 13.4142L35 12L34.5858 10.5858L36 11L37.4142 10.5858L37 12L37.4142 13.4142L36 13Z" fill="white"/>
<path fill-rule="evenodd" clip-rule="evenodd" d="M24 15L22.5858 15.4142L23 14L22.5858 12.5858L24 13L25.4142 12.5858L25 14L25.4142 15.4142L24 15Z" fill="white"/>
<path fill-rule="evenodd" clip-rule="evenodd" d="M33 17.5L32.2929 17.7071L32.5 17L32.2929 16.2929L33 16.5L33.7071 16.2929L33.5 17L33.7071 17.7071L33 17.5Z" fill="white"/>
</g>
<defs>
<linearGradient id="paint0_linear_2898_29475" x1="0" y1="0" x2="0" y2="15" gradientUnits="userSpaceOnUse">
<stop stop-color="white"/>
<stop offset="1" stop-color="#F0F0F0"/>
</linearGradient>
<linearGradient id="paint1_linear_2898_29475" x1="0" y1="0" x2="0" y2="14" gradientUnits="userSpaceOnUse">
<stop stop-color="#FF2E3B"/>
<stop offset="1" stop-color="#FC0D1B"/>
</linearGradient>
</defs>
</svg>
