<svg width="42" height="30" viewBox="0 0 42 30" fill="none" xmlns="http://www.w3.org/2000/svg">
<rect width="42" height="30" rx="2" fill="#D4AF2C"/>
<path d="M1.99976 2H39.9998V28H1.99976V2Z" fill="#AF010D"/>
<path fill-rule="evenodd" clip-rule="evenodd" d="M20.9999 9.55598L18.6659 7.99998L17.1119 9.55598H18.6659L17.1119 11.112L13.9999 9.55598V17.336L18.6659 15.776L17.1119 18.888H15.5559L17.1119 20.444L18.6659 18.888L20.9999 22V9.55598ZM23.3339 7.99998L24.8879 9.55598H23.3339L24.8879 11.112L27.9999 9.55598V17.336L23.3339 15.776L24.8879 18.888H26.4439L24.8879 20.444L23.3339 18.888L20.9999 22V9.55598L23.3339 7.99998Z" fill="#D4AF2C"/>
<path fill-rule="evenodd" clip-rule="evenodd" d="M18 13.0099C18 11.3499 19.332 9.99994 21 9.99994C22.656 9.99994 24 11.3459 24 13.0099V12.3239C24 13.9839 22.984 16.2359 21.76 17.3279L21 17.9999L20.24 17.3279C19.006 16.2279 18 13.9879 18 12.3239V13.0099Z" fill="#1A47B8"/>
<path fill-rule="evenodd" clip-rule="evenodd" d="M18 12H24V14H18V12Z" fill="#AE6A3E"/>
</svg>
