<svg width="42" height="30" viewBox="0 0 42 30" fill="none" xmlns="http://www.w3.org/2000/svg">
<g clip-path="url(#clip0_2906_61001)">
<rect width="42" height="30" rx="2" fill="#1A47B8"/>
<path fill-rule="evenodd" clip-rule="evenodd" d="M0 20H42V30H0V20Z" fill="white"/>
<path fill-rule="evenodd" clip-rule="evenodd" d="M0 0H42V10H0V0ZM16 20V10H8V20C8 22.21 9.79 24 12 24C14.21 24 16 22.21 16 20Z" fill="#F93939"/>
<path fill-rule="evenodd" clip-rule="evenodd" d="M10 12L8.00004 14L12 16L10 20L12 24L14 20L12 16L16 14L14 12L12 14L10 12Z" fill="white"/>
<path fill-rule="evenodd" clip-rule="evenodd" d="M12 16L8.00004 18H16L12 16Z" fill="#88605F"/>
<path fill-rule="evenodd" clip-rule="evenodd" d="M10 12H8.00004V14L10 12ZM14 12H16V14L14 12Z" fill="#FFDA2C"/>
<path fill-rule="evenodd" clip-rule="evenodd" d="M10 9.99998L8.00004 7.99998C8.00004 7.99998 10 5.99998 12 5.99998C14 5.99998 16 7.99998 16 7.99998L14 9.99998H10Z" fill="#FFDA2C"/>
<path fill-rule="evenodd" clip-rule="evenodd" d="M12 5.99998L10.0002 7.99998L12.0002 9.99998L14.0002 7.99998L12 5.99998Z" fill="#A75835"/>
</g>
<defs>
<clipPath id="clip0_2906_61001">
<rect width="42" height="30" rx="2" fill="white"/>
</clipPath>
</defs>
</svg>
