<svg width="42" height="30" viewBox="0 0 42 30" fill="none" xmlns="http://www.w3.org/2000/svg">
<g clip-path="url(#clip0_2906_61053)">
<rect width="42" height="30" rx="2" fill="#1A47B8"/>
<path fill-rule="evenodd" clip-rule="evenodd" d="M0 20H42V30H0V20Z" fill="#F93939"/>
<path fill-rule="evenodd" clip-rule="evenodd" d="M0 0H42V10H0V0ZM19.86 20H20V10H6V20H6.14C6.048 20.324 6 20.66 6 21C6 23.76 13 26 13 26C13 26 20 23.76 20 21C20 20.66 19.952 20.324 19.86 20Z" fill="white"/>
<path fill-rule="evenodd" clip-rule="evenodd" d="M17.9998 20V8.00004H7.99984V20C7.99984 22.21 12.9998 24 12.9998 24C12.9998 24 17.9998 22.21 17.9998 20Z" fill="#F93939"/>
<path fill-rule="evenodd" clip-rule="evenodd" d="M11.9999 16.0001V14H9.99992V12.0001H11.9999V10.0001H13.9999V12.0001H15.9999V14H13.9999V16.0001H16.9999V18H13.9999V20H11.9999V18H8.99992V16.0001H11.9999Z" fill="white"/>
<path fill-rule="evenodd" clip-rule="evenodd" d="M12.9998 24C12.9998 24 17.9998 22.21 17.9998 20C17.9998 17.79 15.9998 17.9999 12.9998 19.9999C9.99984 17.9999 7.99984 17.79 7.99984 20C7.99984 22.21 12.9998 24 12.9998 24Z" fill="#1A47B8"/>
</g>
<defs>
<clipPath id="clip0_2906_61053">
<rect width="42" height="30" rx="2" fill="white"/>
</clipPath>
</defs>
</svg>
