<svg width="42" height="30" viewBox="0 0 42 30" fill="none" xmlns="http://www.w3.org/2000/svg">
<g clip-path="url(#clip0_2906_60977)">
<rect width="42" height="30" rx="2" fill="#F93939"/>
<path d="M38 0H4C1.79086 0 0 1.79086 0 4V26C0 28.2091 1.79086 30 4 30H38C40.2091 30 42 28.2091 42 26V4C42 1.79086 40.2091 0 38 0Z" fill="#F93939"/>
<path fill-rule="evenodd" clip-rule="evenodd" d="M21 7.99998L18 5.99998L16 7.99998H18L16 9.99998L12 7.99998V18L18 16L16 20H14L16 22L18 20L21 24V7.99998ZM24 5.99998L26 7.99998H24L26 9.99998L30 7.99998V18L24 16L26 20H28L26 22L24 20L21 24V7.99998L24 5.99998Z" fill="#151515"/>
</g>
<defs>
<clipPath id="clip0_2906_60977">
<rect width="42" height="30" rx="2" fill="white"/>
</clipPath>
</defs>
</svg>
