<svg width="42" height="30" viewBox="0 0 42 30" fill="none" xmlns="http://www.w3.org/2000/svg">
<rect width="42" height="30" rx="2" fill="#244AA5"/>
<path d="M24.0294 6.14246C23.8789 6.14246 23.7441 6.04515 23.6944 5.90303C23.5798 5.57483 23.1098 5.57375 22.9964 5.90239C22.9472 6.04507 22.8123 6.14246 22.6614 6.14246H22.6188C22.2828 6.14246 22.1496 6.57724 22.4278 6.76548C22.5559 6.85212 22.6093 7.01506 22.5583 7.16104C22.4479 7.47696 22.8031 7.75449 23.0799 7.56638L23.1359 7.52831C23.261 7.44326 23.4254 7.44308 23.5507 7.52785L23.6111 7.56873C23.8888 7.75657 24.244 7.47767 24.1334 7.16119C24.0824 7.01521 24.1357 6.85212 24.2638 6.76548C24.5421 6.57724 24.4088 6.14246 24.0729 6.14246H24.0294Z" fill="white"/>
<path d="M28.4535 6.86793C28.303 6.86793 28.1683 6.77082 28.1185 6.62888C28.0036 6.30129 27.5346 6.3002 27.4209 6.62823C27.3716 6.77073 27.2368 6.86793 27.086 6.86793H27.0431C26.7071 6.86793 26.5739 7.3027 26.8522 7.49095C26.9802 7.57759 27.0336 7.74053 26.9826 7.88651C26.8722 8.20243 27.2274 8.47996 27.5042 8.29185L27.5602 8.25377C27.6853 8.16873 27.8497 8.16855 27.975 8.25332L28.0354 8.2942C28.3131 8.48203 28.6683 8.20314 28.5577 7.88666C28.5067 7.74068 28.56 7.57759 28.6881 7.49095C28.9664 7.3027 28.8331 6.86793 28.4972 6.86793H28.4535Z" fill="white"/>
<path d="M32.6745 8.29762C32.5237 8.29762 32.3889 8.20042 32.3395 8.05792C32.2259 7.72989 31.7569 7.73098 31.642 8.05857C31.5922 8.2005 31.4574 8.29762 31.307 8.29762H31.2633C30.9273 8.29762 30.7941 8.73239 31.0724 8.92064C31.2005 9.00727 31.2538 9.17037 31.2028 9.31635C31.0922 9.63283 31.4474 9.91172 31.7251 9.72389L31.7855 9.68301C31.9108 9.59824 32.0751 9.59842 32.2003 9.68346L32.2563 9.72154C32.5331 9.90964 32.8882 9.63212 32.7779 9.3162C32.7269 9.17022 32.7802 9.00727 32.9083 8.92064C33.1866 8.73239 33.0534 8.29762 32.7174 8.29762H32.6745Z" fill="white"/>
<path d="M19.5364 6.14246C19.3854 6.14246 19.2505 6.04507 19.2013 5.90239C19.0879 5.57375 18.618 5.57483 18.5033 5.90303C18.4537 6.04515 18.3189 6.14246 18.1683 6.14246H18.1249C17.7889 6.14246 17.6557 6.57724 17.9339 6.76548C18.062 6.85212 18.1153 7.01521 18.0643 7.16119C17.9538 7.47767 18.309 7.75657 18.5866 7.56873L18.6471 7.52785C18.7724 7.44308 18.9367 7.44326 19.0618 7.52831L19.1179 7.56638C19.3946 7.75449 19.7498 7.47696 19.6395 7.16104C19.5885 7.01506 19.6418 6.85212 19.7699 6.76548C20.0482 6.57724 19.9149 6.14246 19.579 6.14246H19.5364Z" fill="white"/>
<path d="M15.1118 6.86793C14.961 6.86793 14.8262 6.77073 14.7768 6.62823C14.6632 6.3002 14.1941 6.30129 14.0792 6.62888C14.0294 6.77082 13.8947 6.86793 13.7443 6.86793H13.7006C13.3646 6.86793 13.2314 7.3027 13.5096 7.49095C13.6377 7.57759 13.691 7.74068 13.64 7.88666C13.5295 8.20314 13.8846 8.48203 14.1623 8.2942L14.2228 8.25332C14.3481 8.16855 14.5124 8.16873 14.6375 8.25378L14.6935 8.29185C14.9703 8.47996 15.3255 8.20243 15.2151 7.88651C15.1641 7.74053 15.2175 7.57759 15.3456 7.49095C15.6239 7.3027 15.4906 6.86793 15.1546 6.86793H15.1118Z" fill="white"/>
<path d="M10.8905 8.29762C10.7401 8.29762 10.6053 8.2005 10.5555 8.05857C10.4406 7.73098 9.97158 7.72989 9.85795 8.05792C9.80859 8.20042 9.67378 8.29762 9.52298 8.29762H9.4801C9.14413 8.29762 9.01089 8.73239 9.28917 8.92064C9.41725 9.00727 9.47061 9.17022 9.41962 9.3162C9.30926 9.63212 9.66445 9.90964 9.94121 9.72154L9.99723 9.68346C10.1224 9.59842 10.2867 9.59824 10.412 9.68301L10.4724 9.72389C10.7501 9.91172 11.1053 9.63283 10.9947 9.31635C10.9437 9.17037 10.997 9.00727 11.1251 8.92064C11.4034 8.73239 11.2702 8.29762 10.9342 8.29762H10.8905Z" fill="white"/>
<path d="M18.8226 11.2813C18.6055 11.1077 19.1701 10.7188 19.346 10.6309C19.5517 10.4252 19.9627 10.3886 20.2402 10.4163C20.4858 10.4409 20.604 10.5249 20.5439 10.7853C20.4666 11.1205 20.425 11.3394 20.5817 11.664C20.7807 12.0762 21.2546 12.21 21.6904 12.2681C21.9782 12.3065 22.294 12.3242 22.5553 12.4603C22.6777 12.5241 22.8652 12.6621 22.8677 12.8139C22.8747 13.242 22.7942 13.6746 23.2435 13.8899C23.7609 14.1379 24.3606 14.5667 24.6594 15.0724C24.8754 15.438 24.6284 15.7044 24.6594 16.0918C24.6776 16.3199 25.0549 16.4615 25.2154 16.5363C25.8481 16.8312 26.4869 17.1269 27.1616 17.3121C27.375 17.3706 28.288 17.4312 28.3046 17.7977L28.3046 17.7978C28.3108 17.9344 28.3176 18.0842 28.3012 18.2199C28.276 18.4274 28.1552 18.6083 28.121 18.8137C28.0112 19.4725 27.0538 19.3922 26.633 19.7903C26.4492 19.9642 26.46 20.3068 26.3893 20.5334C26.3521 20.6527 26.3472 20.929 26.2589 21.0174C26.0713 21.205 25.7425 21.2908 25.5141 21.4189C25.1939 21.5985 24.8828 21.7846 24.6251 22.0488C24.5268 22.1495 24.364 22.3759 24.2029 22.3148C23.9775 22.2293 23.7597 22.0623 23.5576 21.9338C23.3128 21.7782 23.0197 21.8665 22.7475 21.9115C22.3265 21.9811 21.9255 22.1161 21.5119 22.2153C21.155 22.3008 20.7985 22.3499 20.4478 22.4607C20.2679 22.5175 20.1462 22.6741 19.9879 22.7679C19.6957 22.941 19.1483 23.1209 18.8449 22.8949C18.6122 22.7215 18.3887 22.6141 18.2528 22.3423C18.1961 22.229 18.1867 22.0938 18.1721 21.9699C18.1171 21.5021 18.1259 21.1265 17.7396 20.7822C17.0191 20.14 16.1755 19.6536 15.4571 19.0025C14.9797 18.5699 14.5124 18.13 14.1356 17.6055C13.9321 17.3223 13.8782 17.1376 13.8782 16.8023C13.8782 16.5783 14.0292 16.4535 14.2111 16.3218C14.5546 16.0731 14.9964 16.0379 15.3884 15.9168C16.0435 15.7144 16.6356 15.3715 17.2232 15.0313L17.2471 15.0175C17.6078 14.8087 17.9318 14.5808 18.2648 14.331C18.5621 14.108 18.733 13.7677 18.8672 13.4283C18.9896 13.1188 19.143 12.8417 19.2242 12.517C19.2935 12.2396 19.5227 12.1 19.3838 11.8047C19.254 11.529 19.0558 11.4679 18.8226 11.2813Z" fill="#D0A650"/>
</svg>
