<svg width="42" height="30" viewBox="0 0 42 30" fill="none" xmlns="http://www.w3.org/2000/svg">
<rect width="42" height="30" rx="2" fill="#F93939"/>
<path fill-rule="evenodd" clip-rule="evenodd" d="M28.0043 17.3041L25.6803 18.5241L26.1243 15.9381L24.2443 14.1041L26.8443 13.7241L28.0043 11.3721L29.1643 13.7261L31.7643 14.1061L29.8843 15.9361L30.3283 18.5221" fill="white"/>
<path fill-rule="evenodd" clip-rule="evenodd" d="M19.0002 22C22.8662 22 26.0002 18.866 26.0002 15C26.0002 11.134 22.8662 8 19.0002 8C15.1342 8 12.0002 11.134 12.0002 15C12.0002 18.866 15.1342 22 19.0002 22ZM21.0002 20C23.7602 20 26.0002 17.76 26.0002 15C26.0002 12.24 23.7602 10 21.0002 10C18.2402 10 16.0002 12.24 16.0002 15C16.0002 17.76 18.2402 20 21.0002 20Z" fill="white"/>
</svg>
