<svg width="42" height="30" viewBox="0 0 42 30" fill="none" xmlns="http://www.w3.org/2000/svg">
<g clip-path="url(#clip0_2906_61303)">
<path fill-rule="evenodd" clip-rule="evenodd" d="M0 0L26 16H12L26 30H0V0Z" fill="#003495"/>
<path fill-rule="evenodd" clip-rule="evenodd" d="M2.00008 4.00002L18.0001 14H6.00008L20.0001 28H1.99998C1.99996 27 2.00008 27.088 2.00008 25.996V4.00002Z" fill="#DF0A37"/>
<path d="M7.00012 26.0001C8.65697 26.0001 10.0001 24.657 10.0001 23.0001C10.0001 21.3432 8.65697 20.0001 7.00012 20.0001C5.34327 20.0001 4.00012 21.3432 4.00012 23.0001C4.00012 24.657 5.34327 26.0001 7.00012 26.0001Z" fill="white"/>
<path fill-rule="evenodd" clip-rule="evenodd" d="M9.83012 10C9.94012 10.156 10.0001 10.324 10.0001 10.5C10.0001 11.328 8.65612 12 7.00012 12C5.34412 12 4.00012 11.328 4.00012 10.5C4.00012 10.324 4.06012 10.156 4.17012 10C4.58212 10.292 5.69412 10.5 7.00012 10.5C8.30612 10.5 9.42012 10.292 9.83012 10Z" fill="white"/>
</g>
<defs>
<clipPath id="clip0_2906_61303">
<rect width="42" height="30" rx="2" fill="white"/>
</clipPath>
</defs>
</svg>
