<svg width="42" height="30" viewBox="0 0 42 30" fill="none" xmlns="http://www.w3.org/2000/svg">
<rect width="42" height="30" rx="2" fill="#FF0000"/>
<path d="M0 0H20.2041V15.102H0V0Z" fill="#000095"/>
<path d="M9.60401 5.22778C9.77484 4.7649 10.4295 4.7649 10.6004 5.22778C10.7076 5.51828 11.0396 5.6558 11.3208 5.5262C11.7689 5.31969 12.2319 5.78263 12.0253 6.23074C11.8957 6.51196 12.0333 6.84397 12.3238 6.95118C12.7867 7.12201 12.7867 7.7767 12.3238 7.94754C12.0333 8.05475 11.8957 8.38676 12.0253 8.66798C12.2319 9.11609 11.7689 9.57903 11.3208 9.37252C11.0396 9.24291 10.7076 9.38044 10.6004 9.67093C10.4295 10.1338 9.77484 10.1338 9.60401 9.67093C9.4968 9.38044 9.16479 9.24291 8.88357 9.37252C8.43546 9.57903 7.97252 9.11609 8.17903 8.66798C8.30863 8.38676 8.17111 8.05475 7.88062 7.94754C7.41773 7.7767 7.41773 7.12201 7.88062 6.95118C8.17111 6.84397 8.30863 6.51196 8.17903 6.23074C7.97252 5.78263 8.43546 5.31969 8.88357 5.5262C9.16479 5.6558 9.4968 5.51828 9.60401 5.22778Z" fill="white"/>
</svg>
