<svg width="42" height="30" viewBox="0 0 42 30" fill="none" xmlns="http://www.w3.org/2000/svg">
<g clip-path="url(#clip0_2906_61336)">
<rect width="42" height="30" rx="2" fill="white"/>
<path d="M2.53982e-05 25.8462H42V28H2.53982e-05V25.8462Z" fill="#AF010D"/>
<path d="M2.53982e-05 21.5386H42V23.6924H2.53982e-05V21.5386Z" fill="#AF010D"/>
<path d="M2.53982e-05 17.2307H42V19.3845H2.53982e-05V17.2307Z" fill="#AF010D"/>
<path d="M2.53982e-05 12.9231H42V15.0769H2.53982e-05V12.9231Z" fill="#AF010D"/>
<path d="M2.53982e-05 8.6155H42V10.7693H2.53982e-05V8.6155Z" fill="#AF010D"/>
<path d="M2.53982e-05 4.3076H42V6.46144H2.53982e-05V4.3076Z" fill="#AF010D"/>
<path d="M0 0H42V2.15385H0V0Z" fill="#AF010D"/>
<path fill-rule="evenodd" clip-rule="evenodd" d="M0 0H22.0002V17.24H0.000199298L0 0Z" fill="#1A47B8"/>
<path fill-rule="evenodd" clip-rule="evenodd" d="M14.0001 8.00004H16.0001V10H14.0001V8.00004Z" fill="#FFDA2C"/>
<path fill-rule="evenodd" clip-rule="evenodd" d="M15.0001 12C14.0881 13.214 12.6361 14 11.0001 14C8.24008 14 6.00008 11.76 6.00008 9.00002C6.00008 6.24002 8.24008 4.00002 11.0001 4.00002C12.6361 4.00002 14.0881 4.78602 15.0001 6.00002H12.0001C10.3441 6.00002 9.00008 7.34402 9.00008 9.00002C9.00008 10.656 10.3441 12 12.0001 12H15.0001Z" fill="#FFDA2C"/>
</g>
<defs>
<clipPath id="clip0_2906_61336">
<rect width="42" height="30" rx="2" fill="white"/>
</clipPath>
</defs>
</svg>
