<svg width="42" height="30" viewBox="0 0 42 30" fill="none" xmlns="http://www.w3.org/2000/svg">
<g clip-path="url(#clip0_2906_61227)">
<rect width="42" height="30" rx="2" fill="#249F58"/>
<path d="M38 0H4C1.79086 0 0 1.79086 0 4V26C0 28.2091 1.79086 30 4 30H38C40.2091 30 42 28.2091 42 26V4C42 1.79086 40.2091 0 38 0Z" fill="#249F58"/>
<path d="M19 24C23.9706 24 28 19.9705 28 15C28 10.0294 23.9706 5.99998 19 5.99998C14.0294 5.99998 10 10.0294 10 15C10 19.9705 14.0294 24 19 24Z" fill="#F93939"/>
</g>
<defs>
<clipPath id="clip0_2906_61227">
<rect width="42" height="30" rx="2" fill="white"/>
</clipPath>
</defs>
</svg>
