<svg width="42" height="30" viewBox="0 0 42 30" fill="none" xmlns="http://www.w3.org/2000/svg">
<g clip-path="url(#clip0_2906_61174)">
<rect width="42" height="30" rx="2" fill="#FF6C2D"/>
<path d="M38 0H4C1.79086 0 0 1.79086 0 4V26C0 28.2091 1.79086 30 4 30H38C40.2091 30 42 28.2091 42 26V4C42 1.79086 40.2091 0 38 0Z" fill="#FF6C2D"/>
<path fill-rule="evenodd" clip-rule="evenodd" d="M0 30L42 0H0V30Z" fill="#FFDA2C"/>
<path fill-rule="evenodd" clip-rule="evenodd" d="M5.99988 20L6.99988 23L10.9999 24L11.9999 22L19.9999 23L17.9999 18H21.9999L27.9999 20L29.9999 18L23.9999 16L25.9999 14H31.9999L32.9999 12H27.9999V9.99998H31.9999L33.9999 7.99998L25.9999 5.99998L19.9999 12L21.9999 14L15.9999 13L11.9999 20L9.99988 22L5.99988 20Z" fill="white"/>
</g>
<defs>
<clipPath id="clip0_2906_61174">
<rect width="42" height="30" rx="2" fill="white"/>
</clipPath>
</defs>
</svg>
