<svg width="42" height="30" viewBox="0 0 42 30" fill="none" xmlns="http://www.w3.org/2000/svg">
<rect width="42" height="30" rx="2" fill="#249F58"/>
<path fill-rule="evenodd" clip-rule="evenodd" d="M31.9997 20.0005V18.0005H9.99972L13.9997 20.0005H25.9997C25.9997 21.1045 27.3437 22.0005 28.9997 22.0005C30.6557 22.0005 31.9997 21.1045 31.9997 20.0005ZM17.4597 7.8125C17.4357 7.8125 17.3997 7.8245 17.3537 7.8525C17.2457 7.9245 17.0337 8.1465 17.0257 8.4025C17.0197 8.5485 16.9917 8.5485 17.0857 8.6425C17.1537 8.7385 17.2257 8.7305 17.3617 8.6565C17.4417 8.5965 17.4677 8.5625 17.4957 8.4645C17.5277 8.3045 17.3217 8.5445 17.2957 8.3605C17.2497 8.1925 17.3817 8.1205 17.5057 7.9605C17.5097 7.8805 17.5097 7.8205 17.4597 7.8165V7.8125ZM19.4657 7.8225C19.4257 7.8305 19.3797 7.8825 19.3137 7.9985C19.2677 8.1225 19.0657 8.3105 19.2137 8.6985C19.3297 8.9445 19.3797 9.3425 19.3257 9.7885C19.2417 9.9145 19.2257 9.9585 19.1157 10.0845C18.9637 10.2505 18.7957 10.2085 18.6717 10.1445C18.5517 10.0645 18.4597 10.0245 18.4057 9.7725C18.4157 9.3725 18.4397 8.7085 18.3657 8.5685C18.2577 8.3525 18.0777 8.4285 18.0017 8.4945C17.6357 8.8345 17.4537 9.4005 17.3417 9.8545C17.2417 10.1825 17.1317 10.0865 17.0557 9.9545C16.8697 9.7785 16.8557 8.4145 16.6317 8.6405C16.2717 9.6685 16.8377 10.7945 17.2317 10.6845C17.5117 10.8045 17.6917 10.2645 17.8077 9.6745C17.8877 9.5085 17.9477 9.4885 17.9877 9.5745C17.9777 10.3585 18.0477 10.5345 18.2477 10.7705C18.6957 11.1185 19.0677 10.8145 19.0977 10.7865L19.4477 10.4385C19.5277 10.3585 19.6277 10.3505 19.7377 10.4225C19.8457 10.5225 19.8317 10.6885 20.0577 10.8025C20.2537 10.8825 20.6637 10.8225 20.7577 10.6565C20.8877 10.4365 20.9177 10.3605 20.9777 10.2765C21.0697 10.1565 21.2277 10.2105 21.2277 10.2485C21.2137 10.3185 21.1217 10.3885 21.1837 10.5085C21.2937 10.5885 21.3197 10.5365 21.3837 10.5185C21.6117 10.4105 21.7837 9.9145 21.7837 9.9145C21.7937 9.7305 21.6897 9.7445 21.6237 9.7825C21.5337 9.8365 21.5297 9.8545 21.4437 9.9085C21.3297 9.9245 21.1137 9.9985 21.0077 9.8325C20.8977 9.6325 20.8977 9.3565 20.8137 9.1525C20.8137 9.1405 20.6677 8.8385 20.8017 8.8205C20.8677 8.8325 21.0157 8.8705 21.0377 8.7485C21.1097 8.6285 20.8837 8.2885 20.7297 8.1205C20.5977 7.9745 20.4137 7.9565 20.2357 8.1045C20.1097 8.2205 20.1297 8.3485 20.1037 8.4705C20.0737 8.6105 20.0797 8.7845 20.2237 8.9705C20.3477 9.2145 20.5737 9.5305 20.4977 9.9745C20.4977 9.9745 20.3677 10.1865 20.1377 10.1585C20.0377 10.1385 19.8817 10.0985 19.7977 9.4785C19.7377 9.0125 19.8137 8.3585 19.6177 8.0525C19.5717 7.9385 19.5337 7.8265 19.4697 7.8325L19.4657 7.8225ZM18.8297 7.8745C18.7697 7.8805 18.7037 7.9505 18.6497 8.0845C18.6037 8.1885 18.5457 8.7245 18.5557 8.7245C18.5157 8.8845 18.7217 8.9525 18.8157 8.7485C18.9557 8.3685 18.9557 8.2085 18.9637 8.0525C18.9437 7.9325 18.8897 7.8725 18.8297 7.8765V7.8745ZM21.1757 7.9145C21.1157 7.9225 21.0657 7.9585 21.0477 8.0505C21.0217 8.2625 21.0357 8.3805 21.0717 8.5585C21.0977 8.6785 21.2717 8.8745 21.3557 8.9905C21.7617 9.5365 22.1557 10.0845 22.5317 10.6505C22.5917 11.0745 22.6317 11.4865 22.6617 11.8985C22.7257 12.7985 22.7417 13.9185 22.6877 14.8685C22.8557 14.8745 23.1277 14.5945 23.2217 14.1885C23.2817 13.6205 23.2017 12.4685 23.1937 12.1325L23.1737 11.6565C23.6137 12.3765 24.0377 13.1365 24.4537 13.9685C24.6077 13.8965 24.5737 13.0385 24.4857 12.9185C24.1497 12.1985 23.6857 11.4865 23.5397 11.2125C23.4857 11.1125 23.3037 10.8385 23.0897 10.5205C23.0497 10.0645 23.0057 9.6805 22.9777 9.5645C22.9077 9.0845 23.1737 9.6185 23.1377 9.3405C23.0497 8.8605 22.7857 8.5365 22.4737 8.0965C22.3737 7.9565 22.3737 7.9245 22.2197 8.1325C22.1297 8.3425 22.1297 8.5185 22.1597 8.6825C22.1157 8.6225 22.0657 8.5545 21.9937 8.4665L21.4837 8.0345C21.4137 7.9845 21.2777 7.9085 21.1757 7.9145ZM28.1277 7.9885C28.0977 7.9845 28.0677 7.9985 28.0277 8.0525C27.9577 8.1125 27.8837 8.2265 27.8877 8.3725C27.9017 8.6225 27.9477 8.8805 27.9637 9.1325L27.9837 9.2325C27.9557 9.2005 27.9317 9.1725 27.9177 9.1605C27.4237 8.6405 28.1437 9.0725 27.8217 8.6745C27.5517 8.3745 27.4717 8.2825 27.2417 8.1025C27.1217 8.0305 27.0537 7.8865 27.0157 8.1305C26.9997 8.3445 26.9837 8.5945 26.9957 8.7745C26.9957 8.8745 27.1017 9.0645 27.1917 9.1745C27.5197 9.5805 27.8557 10.0105 28.1917 10.4585C28.2637 11.3725 28.2817 12.2105 28.3517 13.1265C28.3437 13.5185 28.2237 14.0385 28.1117 14.0865C28.1117 14.0865 27.9357 14.1865 27.8197 14.0765C27.7337 14.0425 27.3957 13.5105 27.3957 13.5105C27.2217 13.3505 27.1057 13.3965 26.9837 13.5105C26.6437 13.8385 26.4877 14.4545 26.2577 14.8785C26.1977 14.9725 26.0317 15.0545 25.8457 14.8705C25.3717 14.2225 25.6457 13.3005 25.5897 13.5385C25.1697 14.0145 25.3537 14.8025 25.4497 14.9725C25.5897 15.2525 25.7017 15.4325 25.9697 15.5665C26.2197 15.7465 26.4097 15.6365 26.5177 15.5065C26.7657 15.2505 26.7697 14.5925 26.8857 14.4625C26.9657 14.2225 27.1717 14.2625 27.2717 14.3705C27.3717 14.5105 27.4837 14.6005 27.6257 14.6765C27.8577 14.8805 28.1337 14.9165 28.4057 14.7305C28.5917 14.6265 28.7137 14.4905 28.8217 14.2225C28.9417 13.9105 28.8817 12.2705 28.8557 11.3585L29.3757 12.1105C29.4477 12.9105 29.4817 13.7005 29.4557 14.4565C29.4397 14.6065 29.9817 14.0085 29.9757 13.7245C29.9757 13.4785 29.9797 13.2525 29.9757 13.0445C30.2417 13.4645 30.4957 13.8905 30.7357 14.3245C30.8857 14.2445 30.8357 13.3985 30.7417 13.2845C30.4897 12.8605 30.1657 12.4045 29.9157 12.0485C29.8657 11.6025 29.7997 11.0765 29.7677 10.9145C29.7217 10.6625 29.6737 10.2845 29.6017 9.9865C29.5817 9.8725 29.5217 9.5005 29.5417 9.4665C29.5697 9.3805 29.6817 9.4665 29.7357 9.3705C29.8157 9.2805 29.4517 8.3305 29.2657 8.0625C29.1997 7.9425 29.0777 7.9825 28.9297 8.1825C28.7897 8.3105 28.8417 8.6065 28.8937 8.8885C29.0297 9.6085 29.1537 10.3365 29.2497 11.0685C29.0697 10.7985 28.8497 10.4745 28.6337 10.1645L28.6057 10.0245C28.6057 10.0085 28.5777 9.4345 28.5517 9.2985C28.5457 9.2425 28.5317 9.2265 28.5917 9.2345C28.6517 9.2865 28.6597 9.2885 28.6977 9.3065C28.7617 9.3145 28.8177 9.2105 28.7777 9.1125L28.1977 8.0445C28.1777 8.0185 28.1497 7.9945 28.1177 7.9905L28.1277 7.9885ZM10.1877 8.0085C10.0777 8.0045 9.96172 8.0685 10.0077 8.1985C9.97972 8.2685 10.2157 8.5045 10.2577 8.6345C10.2917 8.7285 10.2177 9.0245 10.2977 9.0545C10.3677 9.0845 10.4657 8.8465 10.5017 8.6285C10.5217 8.5085 10.5077 8.0965 10.2277 8.0125C10.2137 8.0085 10.1997 8.0085 10.1837 8.0065L10.1877 8.0085ZM30.6277 8.0085C30.6017 8.0125 30.5717 8.0485 30.5277 8.1485C30.4177 8.3285 30.3797 8.6485 30.4237 8.9285C30.6837 10.7085 30.8837 12.4325 30.9237 14.0085C30.8997 14.1605 30.8917 14.2405 30.8237 14.4285C30.6677 14.6285 30.4957 14.8765 30.3337 14.9965C30.1737 15.1165 29.8297 15.2325 29.7177 15.3205C29.3577 15.5245 29.3577 15.7605 29.6457 15.7705C30.1417 15.7105 30.7297 15.6705 31.1337 15.0605C31.2417 14.8905 31.3697 14.4265 31.3737 14.1405C31.4137 12.4805 31.3537 10.8505 31.1037 9.6485C31.0877 9.5285 31.0357 9.2625 31.0557 9.2285C31.0857 9.1445 31.2477 9.2345 31.3057 9.1405C31.3917 9.0525 30.8857 8.4065 30.7097 8.1305C30.6737 8.0625 30.6497 8.0045 30.6217 8.0105L30.6277 8.0085ZM25.4217 8.0365C25.4017 8.0405 25.3737 8.0725 25.3177 8.1465C25.1777 8.5985 25.1297 8.9665 25.1837 9.2505C25.5437 11.1105 25.9037 12.8005 25.8477 14.5705C26.0157 14.5705 26.2117 14.1845 26.2957 13.8005C26.3417 13.2705 26.2637 12.9485 26.2517 12.6405C26.2377 12.3285 25.8997 9.8085 25.8317 9.5745C25.7477 9.1305 26.1597 9.5145 26.1157 9.2585C25.9717 8.9305 25.6157 8.4585 25.5077 8.1725C25.4677 8.0965 25.4597 8.0265 25.4277 8.0325L25.4217 8.0365ZM12.7537 8.0725C12.7137 8.0805 12.6677 8.1165 12.6537 8.1725C12.6437 8.2125 12.6697 8.2785 12.6337 8.2985C12.6137 8.3185 12.5377 8.3045 12.5417 8.1985C12.5417 8.1625 12.5157 8.1265 12.5017 8.1045C12.4857 8.0965 12.4757 8.0945 12.4477 8.0945C12.4137 8.0945 12.4137 8.1045 12.3957 8.1345C12.3877 8.1625 12.3757 8.1905 12.3757 8.2225C12.3717 8.2625 12.3557 8.2725 12.3297 8.2785C12.2977 8.2785 12.3037 8.2825 12.2797 8.2645C12.2597 8.2505 12.2437 8.2445 12.2437 8.2165C12.2437 8.1865 12.2357 8.1365 12.2277 8.1205C12.2137 8.1005 12.1917 8.0925 12.1677 8.0865C12.0357 8.0865 12.0277 8.2425 12.0337 8.2985C12.0237 8.3105 12.0197 8.5785 12.1997 8.6545C12.4397 8.7705 12.8957 8.7205 12.8797 8.3305C12.8797 8.2965 12.8697 8.1805 12.8657 8.1505C12.8417 8.0905 12.7957 8.0705 12.7517 8.0765L12.7537 8.0725ZM16.0057 8.0765C15.9217 8.0805 15.8457 8.1045 15.7857 8.1365C15.6257 8.2905 15.5857 8.5365 15.7137 8.6905C15.8337 8.7505 15.9597 8.8705 15.8777 8.9405C15.5297 9.3105 14.6237 9.9325 14.5777 10.0465V10.0585H14.5857V10.0625C14.6317 10.0925 15.1997 10.0925 15.2617 10.0625H15.2657C15.4617 9.9885 16.3857 8.9325 16.3857 8.9325C16.3377 8.8925 16.2937 8.8605 16.2457 8.8185C16.1937 8.7745 16.1997 8.7305 16.2457 8.6865C16.4737 8.5545 16.4017 8.2605 16.2817 8.1265C16.1817 8.0825 16.0897 8.0665 16.0057 8.0725V8.0765ZM24.5057 8.0765C24.4817 8.0825 24.4517 8.1165 24.4057 8.2165C24.2957 8.3965 24.2217 8.7065 24.2317 8.9965C24.4677 10.6365 24.5397 12.0705 24.6957 13.7105C24.7077 13.8705 24.6837 14.0985 24.5797 14.1905C24.1877 14.5985 23.6257 15.0985 23.0137 15.3305C22.9477 15.4045 23.1777 15.7185 23.4737 15.7185C23.9697 15.6585 24.4057 15.3825 24.8137 14.6485C24.9197 14.4785 25.1097 14.1125 25.1137 13.8285C25.1537 12.1645 25.0337 10.8685 24.7817 9.6685C24.7677 9.5485 24.7777 9.4085 24.7977 9.3765C24.8297 9.3365 24.9377 9.3765 24.9977 9.2825C25.0817 9.1945 24.7697 8.4765 24.5937 8.2025C24.5577 8.1325 24.5377 8.0765 24.5057 8.0785V8.0765ZM11.3377 8.1305C11.2697 8.1385 11.2057 8.1905 11.1737 8.2705C11.1637 8.5305 11.1617 8.7905 11.1937 9.0345C11.3137 9.4605 11.3477 9.8345 11.4057 10.2685C11.4257 10.8525 11.0697 10.5205 11.0857 10.2325C11.1657 9.8565 11.1457 9.2665 11.0737 9.1165C11.0137 8.9665 10.9497 8.9305 10.8097 8.9565C10.6997 8.9485 10.4137 9.2565 10.3337 9.7765C10.3337 9.7765 10.2657 10.0405 10.2377 10.2765C10.1977 10.5425 10.0217 10.7325 9.89772 10.2405C9.79172 9.8805 9.72772 9.0005 9.54972 9.2045C9.49772 9.8925 9.43772 11.1045 10.0217 11.2285C10.7297 11.2965 10.3377 10.0325 10.5937 9.8025C10.6437 9.6925 10.7337 9.6905 10.7397 9.8325V10.9065C10.7317 11.2545 10.9597 11.3585 11.1397 11.4305C11.3257 11.4165 11.4477 11.4225 11.5197 11.6025L11.6097 13.4625C11.6097 13.4625 12.0377 13.5825 12.0577 12.4165C12.0777 11.7305 11.9177 11.1565 12.0117 11.0225C12.0157 10.8905 12.1837 10.8825 12.2997 10.9485C12.4857 11.0785 12.5677 11.2385 12.8557 11.1745C13.2957 11.0545 13.5557 10.8425 13.5617 10.5065C13.5417 10.1865 13.5017 9.8665 13.3617 9.5465C13.3817 9.4905 13.2817 9.3405 13.3017 9.2825C13.3777 9.4025 13.4977 9.3945 13.5217 9.2825C13.4497 9.0365 13.3337 8.8025 13.1457 8.7025C12.9917 8.5625 12.7657 8.5925 12.6817 8.8765C12.6417 9.2045 12.8017 9.5925 13.0417 9.9105C13.0897 10.0345 13.1617 10.2405 13.1297 10.4265C13.0037 10.4985 12.8777 10.4665 12.7697 10.3565C12.7697 10.3565 12.4237 10.0965 12.4237 10.0365C12.5177 9.4465 12.4437 9.3765 12.3937 9.2165C12.3577 8.9885 12.2497 8.9165 12.1637 8.7605C12.0757 8.6665 11.9577 8.6665 11.9037 8.7605C11.7477 9.0265 11.8197 9.6005 11.9317 9.8545C12.0117 10.0905 12.1357 10.2385 12.0777 10.2385C12.0297 10.3685 11.9297 10.3385 11.8577 10.1845C11.7577 9.8645 11.7337 9.3925 11.7337 9.1785C11.7037 8.9145 11.6697 8.3485 11.4937 8.2045C11.4477 8.1405 11.3937 8.1185 11.3397 8.1245L11.3377 8.1305ZM13.8217 8.1305C13.7877 8.1385 13.7477 8.1585 13.7017 8.1705C13.5517 8.2165 13.4117 8.3465 13.4557 8.5985C13.6357 9.6785 13.7497 10.5045 13.9277 11.5845C13.9537 11.7125 13.8477 11.8785 13.7117 11.8645C13.4797 11.7045 13.4217 11.3845 13.0257 11.4005C12.7377 11.4005 12.4097 11.7165 12.3697 12.0165C12.3217 12.2565 12.3057 12.5165 12.3697 12.7245C12.5697 12.9645 12.8137 12.9405 13.0257 12.8845C13.1997 12.8145 13.3457 12.6445 13.4057 12.6845C13.4457 12.7505 13.4017 13.3125 12.5857 13.7445C12.0817 13.9725 11.6817 14.0245 11.4657 13.6165C11.3337 13.3605 11.4777 12.3845 11.1497 12.6085C10.1777 15.1125 13.4237 15.4605 13.7857 12.7125C13.8097 12.6325 13.8797 12.5565 13.9317 12.5765C13.9517 12.5865 13.9717 12.6165 13.9797 12.6725C13.9037 15.1605 11.4677 15.3325 11.0557 14.5485C10.9517 14.3645 10.9217 13.9525 10.9117 13.7085C10.8917 13.5585 10.8557 13.4725 10.8117 13.4385C10.7117 13.3645 10.5797 13.5585 10.5517 13.8925C10.5117 14.1625 10.5217 14.2365 10.5217 14.4965C10.6537 16.4625 13.7877 15.6165 14.2977 13.9965C14.5497 13.1565 14.2917 12.5225 14.3777 12.4445L14.3837 12.4405H14.3897L14.3997 12.4365C14.7117 12.7725 15.1477 12.4765 15.2437 12.3625C15.2837 12.3025 15.3877 12.2625 15.4597 12.3425C15.6997 12.5145 16.1277 12.4325 16.2157 12.1225C16.2677 11.8225 16.3117 11.5145 16.3217 11.1925C16.1617 11.2425 16.0337 11.2785 15.9817 11.3325C15.9697 11.3465 15.9617 11.3625 15.9577 11.3785L15.9177 11.6445C15.9177 11.6545 15.9137 11.6605 15.9097 11.6645C15.9037 11.6785 15.8897 11.6885 15.8817 11.6945C15.8257 11.7245 15.7277 11.7085 15.7217 11.6265C15.6477 11.2865 15.3377 11.2425 15.1497 11.7725C15.0237 11.8725 14.7897 11.8925 14.7697 11.7405C14.7997 11.3845 14.6557 11.3365 14.3697 11.5045L14.0937 9.4245C14.2137 9.4185 14.3217 9.5045 14.4337 9.3685C14.3137 9.0005 14.0637 8.2525 13.9217 8.1805H13.9177L13.8977 8.1605C13.8977 8.1565 13.8917 8.1545 13.8877 8.1525L13.8797 8.1405C13.8717 8.1405 13.8637 8.1365 13.8597 8.1345C13.8457 8.1305 13.8337 8.1305 13.8197 8.1305H13.8217ZM23.5057 8.1385C23.3817 8.1345 23.2457 8.2125 23.2977 8.3685C23.2657 8.4545 23.5637 8.7425 23.6117 8.8985C23.6977 9.1385 23.5457 9.3725 23.6357 9.4065C23.7197 9.4425 23.8357 9.1565 23.8757 8.8905C23.9277 8.6745 23.7757 8.2345 23.5557 8.1445L23.5057 8.1405V8.1385ZM15.9597 8.4005C16.0157 8.3965 16.0837 8.4485 16.1197 8.5205C16.1537 8.6005 16.1357 8.6745 16.0797 8.6885C16.0197 8.7025 15.9437 8.6525 15.9077 8.5725C15.8717 8.4925 15.8877 8.4185 15.9477 8.4045H15.9597V8.4005ZM29.9537 8.7645C29.8397 8.7605 29.7137 8.8445 29.7657 9.0145C29.7377 9.1065 30.0057 9.4185 30.0517 9.5905C30.0917 9.7105 29.9917 10.1025 30.0717 10.1385C30.1477 10.1785 30.2517 9.8665 30.2917 9.5785C30.3157 9.4185 30.1997 8.8685 30.0017 8.7705C29.9877 8.7665 29.9717 8.7625 29.9557 8.7625L29.9537 8.7645ZM22.2137 8.9565C22.2277 9.0025 22.2377 9.0485 22.2437 9.0965C22.2677 9.1965 22.2877 9.2965 22.3077 9.4005C22.2197 9.2765 22.1477 9.1765 22.1137 9.1405C21.9137 8.9005 22.1177 8.9845 22.2137 8.9565ZM23.9997 9.8325C23.9557 9.8405 23.9137 9.8785 23.8997 9.9385C23.8877 9.9745 23.9157 10.0385 23.8797 10.0585C23.8597 10.0785 23.7797 10.0665 23.7857 9.9585C23.7857 9.9225 23.7597 9.8845 23.7457 9.8645C23.7297 9.8545 23.7197 9.8505 23.6917 9.8505C23.6577 9.8505 23.6577 9.8605 23.6397 9.8905C23.6317 9.9185 23.6197 9.9465 23.6197 9.9805C23.6197 10.0205 23.6037 10.0325 23.5757 10.0405C23.5437 10.0405 23.5497 10.0405 23.5237 10.0265C23.5077 10.0065 23.4897 10.0025 23.4897 9.9745C23.4897 9.9445 23.4837 9.8985 23.4737 9.8785C23.4597 9.8585 23.4397 9.8525 23.4137 9.8445C23.2837 9.8445 23.2737 9.9965 23.2817 10.0525C23.2737 10.0645 23.2677 10.3365 23.4477 10.4125C23.6917 10.5265 24.1477 10.4725 24.1277 10.0845C24.1277 10.0505 24.1177 9.9345 24.1157 9.9045C24.0897 9.8445 24.0437 9.8245 24.0017 9.8305L23.9997 9.8325ZM15.8597 9.9125C15.8317 9.9125 15.7917 9.9205 15.7457 9.9485C15.5317 10.0645 15.4497 10.4085 15.5857 10.6085C15.7057 10.7885 15.9057 10.7225 15.9317 10.7225C16.1417 10.7505 16.2657 10.3305 16.2657 10.3305C16.2657 10.3305 16.2717 10.2105 16.0257 10.4345C15.9177 10.4545 15.9057 10.4145 15.8777 10.3545C15.8537 10.2485 15.8577 10.1345 15.9077 10.0285C15.9317 9.9625 15.9077 9.9205 15.8597 9.9165V9.9125ZM27.3657 9.9665C27.2457 9.9605 27.1197 10.0385 27.0857 10.2005C27.0857 10.2965 27.1297 10.3485 27.1217 10.4365C27.1117 10.4865 27.0617 10.5165 26.9377 10.4605C26.9577 10.4405 26.8577 10.3045 26.8577 10.3045C26.7637 10.2445 26.6377 10.3045 26.5537 10.3605C26.5077 10.4445 26.4737 10.5865 26.5257 10.7305C26.6617 10.9845 27.1317 11.4165 27.3557 11.4205C27.3597 11.1925 27.3817 10.8885 27.3957 10.7005C27.3997 10.6285 27.4157 10.5505 27.4857 10.5325C27.5537 10.5125 27.6717 10.6005 27.6717 10.5265C27.6597 10.3825 27.6317 10.1665 27.5517 10.0665C27.5077 10.0065 27.4377 9.9705 27.3677 9.9665H27.3657ZM17.8397 10.7605L17.8337 10.7665C17.8337 10.7665 17.8297 10.7665 17.8277 10.7705C17.8037 10.7905 17.7757 10.8305 17.7137 10.8705C17.6077 10.9905 17.5897 11.0765 17.5937 11.3165C17.6017 11.3425 17.7937 11.8825 17.9597 12.2605C18.0717 12.6545 18.1737 13.1065 18.0997 13.5325C17.8397 14.0965 17.3197 14.6025 16.8137 14.8785C16.5537 14.9585 16.3337 14.9305 16.2737 14.8745C16.1257 14.7745 16.1237 14.5945 16.1337 14.5665V14.5605C16.5577 14.2645 17.0437 14.0245 17.4237 13.2265C17.5357 12.9205 17.5717 12.7365 17.4597 12.2665C17.4157 12.0865 17.3597 11.9465 17.2397 11.8185H17.2437C17.3157 11.7845 17.5037 11.9225 17.5337 11.8385C17.4877 11.6105 17.3337 11.3085 17.1637 11.1525C17.0117 11.0125 16.8437 10.9985 16.7077 11.1245C16.5517 11.2125 16.5197 11.5245 16.5937 11.7965C16.6777 12.0005 16.9037 12.0365 17.0637 12.4505C17.0677 12.4785 17.1177 12.7605 17.0377 12.8765C16.9697 13.0805 16.1277 13.7445 16.0677 13.7845L16.0617 13.7885L16.0577 13.7925H16.0497V13.7865C16.0457 13.7705 16.0497 13.7265 16.0497 13.6605C16.0437 13.5365 16.0957 13.2545 16.0897 13.2045V13.2005C15.8097 13.3805 15.7157 13.9305 15.6657 14.0945C14.9597 14.5805 14.1597 14.9425 13.6977 15.4345C13.4577 15.8145 15.3537 15.0065 15.5737 14.9085L15.5797 14.9145C15.6237 14.9605 15.6257 15.1205 15.7517 15.2665C15.9517 15.5325 16.3677 15.6965 16.7757 15.5945C17.4597 15.3485 17.8557 14.8825 18.2557 14.3645C18.3117 14.2845 18.4017 14.2165 18.4857 14.2805C18.7597 14.8965 19.5557 15.3365 20.5817 15.3805C20.8217 15.0925 20.7077 14.9505 20.6117 14.8905C20.5817 14.8705 20.1017 14.6825 20.0257 14.4965C19.9797 14.3245 20.0937 14.1705 20.3217 14.0565C20.9817 13.9765 21.6297 13.8865 22.2577 13.6845C22.2637 13.4725 22.3877 13.1585 22.4717 13.0205C22.5317 12.9265 22.5657 12.9165 22.5797 12.9045V12.9005H22.5837V12.8745L22.4757 12.8105L20.3697 12.8025C20.3437 12.7925 20.3257 12.7825 20.3137 12.7725L20.3097 12.7665C20.3097 12.7665 20.3057 12.7665 20.3057 12.7625C20.3057 12.7585 20.3017 12.7585 20.3017 12.7585V12.7605V12.7485L20.3057 12.7425C20.3157 12.7305 20.3417 12.7165 20.3717 12.7025C20.8757 12.6365 21.7677 12.4905 21.8277 11.6325C21.8177 11.1845 21.6357 10.8925 21.0877 10.8125C20.6837 10.8425 20.3957 11.2325 20.4417 11.6605C20.4217 11.7745 20.4817 12.0005 20.3617 12.0265C19.5897 12.0985 18.7457 12.5825 18.7177 12.9305H18.7057C18.7057 12.9345 18.7017 12.9345 18.6997 12.9345H18.6797C18.6297 12.9185 18.5657 12.8345 18.5757 12.7205C18.5457 12.1205 18.3497 11.4405 18.0457 10.9205C17.9357 10.8105 17.8857 10.7665 17.8577 10.7605H17.8397ZM19.8557 11.0765C19.8157 11.0845 19.7697 11.1205 19.7557 11.1805C19.7457 11.2205 19.7757 11.2845 19.7397 11.3045C19.7197 11.3245 19.6397 11.3125 19.6437 11.2045C19.6437 11.1705 19.6177 11.1325 19.6037 11.1105C19.5877 11.1005 19.5777 11.0985 19.5517 11.0985C19.5177 11.0985 19.5157 11.1065 19.4977 11.1345C19.4877 11.1625 19.4777 11.1945 19.4777 11.2245C19.4737 11.2645 19.4577 11.2765 19.4317 11.2805C19.3997 11.2805 19.4077 11.2865 19.3817 11.2705C19.3657 11.2545 19.3457 11.2465 19.3457 11.2185C19.3457 11.1885 19.3397 11.1385 19.3317 11.1185C19.3177 11.1045 19.2957 11.0985 19.2717 11.0905C19.1377 11.0905 19.1317 11.2405 19.1377 11.2985C19.1277 11.3085 19.1217 11.5785 19.3017 11.6545C19.5417 11.7705 20.1217 11.7025 19.9817 11.3285C19.9817 11.2945 19.9717 11.1785 19.9697 11.1485C19.9437 11.0885 19.8977 11.0685 19.8537 11.0745L19.8557 11.0765ZM27.9857 11.4105H27.9657C27.9657 11.4105 26.8417 12.2105 26.8157 12.2385C26.7037 12.3385 26.7597 12.6845 26.8157 12.6445C26.8957 12.6745 28.0257 11.9085 28.0037 11.8185C28.0537 11.8225 28.0777 11.4245 27.9837 11.4085L27.9857 11.4105ZM20.9177 11.5305C20.9617 11.5245 21.0217 11.5405 21.0777 11.5705C21.1637 11.6225 21.2177 11.6945 21.2077 11.7505V11.7585C21.2037 11.7585 21.2037 11.7585 21.2037 11.7625V11.7665C21.2037 11.7665 21.1997 11.7665 21.1997 11.7705C21.1997 11.7745 21.1937 11.7785 21.1897 11.7825C21.1497 11.8225 21.0577 11.8145 20.9697 11.7625C20.8857 11.7165 20.8357 11.6425 20.8397 11.5905V11.5845L20.8497 11.5645C20.8497 11.5645 20.8497 11.5605 20.8537 11.5585L20.8637 11.5465C20.8777 11.5365 20.8957 11.5265 20.9177 11.5265V11.5305ZM11.0817 11.7305C10.5017 11.7425 9.64772 12.4945 9.62572 12.9105L11.4657 12.0305C11.3657 11.8785 11.4597 11.7425 11.0817 11.7305ZM12.9677 11.9905C13.0237 11.9945 13.0837 12.0225 13.1157 12.1025C13.1437 12.1765 13.1157 12.2525 13.0817 12.2905V12.2965C13.0537 12.3285 12.9697 12.3165 12.9077 12.3165C12.8337 12.3125 12.7977 12.3005 12.7537 12.2405C12.7297 12.1705 12.7937 12.1045 12.8237 12.0565L12.8377 12.0365C12.8577 12.0165 12.8977 12.0005 12.9377 11.9965L12.9637 11.9925L12.9677 11.9905ZM27.7677 12.2245C27.6617 12.2365 27.5637 12.3345 27.6077 12.4905C27.5797 12.5825 27.7477 12.9045 27.7937 13.0745C27.8337 13.1945 27.7417 13.5405 27.8237 13.5745C27.8997 13.6145 28.0977 13.3745 28.0917 13.0665C28.1117 12.9065 28.0357 12.3265 27.8377 12.2305C27.8137 12.2245 27.7897 12.2225 27.7657 12.2245H27.7677ZM15.1997 12.7925C15.1077 12.7985 15.0257 12.8465 15.0637 12.9765C15.0577 13.0685 15.3237 13.1825 15.3377 13.3965C15.3737 13.4885 15.2777 13.7765 15.3577 13.8005C15.4297 13.8305 15.5297 13.6005 15.5677 13.3925C15.5877 13.2765 15.4757 12.8725 15.2877 12.7985C15.2577 12.7905 15.2277 12.7885 15.1977 12.7905L15.1997 12.7925ZM18.9597 13.3045H18.9837C19.2197 13.3685 19.5637 13.3765 19.8637 13.4045C20.1097 13.4245 20.2297 13.6125 20.0037 13.6945C19.7757 13.7705 19.5577 13.8345 19.5577 14.1585C19.5857 14.3185 19.5777 14.4025 19.5537 14.4385C19.5537 14.4445 19.5477 14.4485 19.5457 14.4505C19.5457 14.4505 19.5457 14.4545 19.5417 14.4545V14.4585H19.5357L19.5217 14.4645H19.5117C19.4577 14.4745 19.3797 14.4245 19.3217 14.3925C19.1817 14.2925 18.7917 14.0525 18.7357 13.5325C18.7277 13.4125 18.8157 13.3125 18.9557 13.3025L18.9597 13.3045ZM9.77172 13.7045C9.75772 13.7045 9.73172 13.7485 9.69172 13.7985C9.34372 14.3485 9.31172 15.1705 9.50372 15.4185C9.60372 15.5325 9.77172 15.5845 9.89572 15.5485C10.1157 15.4545 10.2097 15.0125 10.1557 14.8525C10.0857 14.7385 10.0277 14.7205 9.95572 14.8165C9.80172 15.1265 9.73572 14.9125 9.72572 14.7365C9.70172 14.4105 9.73372 14.1065 9.76972 13.8665C9.78972 13.7465 9.78972 13.7005 9.76972 13.7005L9.77172 13.7045ZM21.5657 14.4285C21.5397 14.4285 21.5137 14.4325 21.4857 14.4485C21.4797 14.4485 21.2377 14.6085 21.1597 14.7245C21.1117 14.7605 21.1197 14.7905 21.1317 14.8545C21.1677 14.9405 21.2317 14.9145 21.3077 14.8745C21.4077 14.8585 21.4537 14.9245 21.4477 15.0425C21.4017 15.1925 21.4677 15.2465 21.4677 15.2565C21.4677 15.2645 21.5617 15.3465 21.6737 15.2825C21.9077 15.1925 22.0537 15.1025 22.3837 15.0325C22.4697 15.0325 22.4637 14.8005 22.3277 14.7925C22.1477 14.8005 21.9877 14.8125 21.8077 14.9525C21.6977 14.9765 21.6797 14.9085 21.6537 14.8485C21.6257 14.7005 21.7177 14.5965 21.6977 14.4845C21.7017 14.4905 21.6417 14.4365 21.5637 14.4325L21.5657 14.4285ZM29.1177 14.7085L28.9577 14.7245C28.8857 14.7385 28.8617 14.7705 28.8477 14.8585C28.8537 14.9885 28.9337 14.9825 29.0177 15.0345C29.0657 15.0945 29.0977 15.1505 29.0137 15.2545C28.9337 15.3245 28.8797 15.3645 28.7997 15.4345C28.7657 15.4985 28.7397 15.5945 28.8557 15.6265C29.0657 15.6865 29.5517 15.3705 29.5517 15.3665C29.6317 15.3065 29.6037 15.1925 29.5977 15.1925C29.5497 15.1405 29.4457 15.1725 29.3777 15.1625C29.3437 15.1625 29.2377 15.1465 29.2857 15.0505C29.3297 14.9905 29.3457 14.9565 29.3757 14.8825C29.4057 14.8105 29.3757 14.7625 29.2597 14.7225C29.1997 14.7105 29.1597 14.7065 29.1137 14.7085H29.1177ZM26.2117 22.4285C26.7517 22.4545 27.2557 22.4345 27.7917 22.4605C27.8797 22.5325 27.8377 22.7005 27.7817 22.7285L27.7717 22.7325H27.7577L27.3057 22.7205V22.6945C27.2617 22.5705 26.9617 22.5785 26.8897 22.6745V22.6805C26.8857 22.6805 26.8837 22.6865 26.8837 22.6885L26.8797 22.6985V22.7225C26.6397 22.7525 26.4297 22.7145 26.1937 22.7065C26.1237 22.6205 26.1337 22.4665 26.2137 22.4265L26.2117 22.4285Z" fill="white"/>
</svg>
