<svg width="42" height="30" viewBox="0 0 42 30" fill="none" xmlns="http://www.w3.org/2000/svg">
<g clip-path="url(#clip0_2906_61370)">
<rect width="42" height="30" rx="2" fill="#FFDA2C"/>
<rect width="42" height="30" fill="#FFDA2C"/>
<rect opacity="0.3" width="42" height="30" fill="#FF6C2D"/>
<path fill-rule="evenodd" clip-rule="evenodd" d="M18 4H38V26H18V4ZM25.07 21.232L25.186 21.144L25.234 21.232C25.3 21.352 25.482 21.348 25.602 21.232L25.696 21.138L25.776 21.228C25.876 21.348 26.064 21.348 26.184 21.228C26.272 21.144 26.284 21.142 26.34 21.208C26.372 21.244 26.47 21.288 26.556 21.302C26.712 21.33 26.716 21.328 26.806 21.146C26.886 20.994 26.896 20.934 26.878 20.786C26.866 20.686 26.852 20.53 26.848 20.436C26.844 20.264 26.844 20.262 27.032 20.176C27.132 20.128 27.252 20.064 27.298 20.032C27.372 19.98 27.578 19.658 27.578 19.592C27.578 19.576 27.498 19.552 27.398 19.536C27.008 19.476 26.942 19.196 27.198 18.676C27.612 17.832 27.862 17.006 27.864 16.48C27.864 16.246 27.874 16.166 27.898 16.22C27.99 16.426 27.824 17.3 27.572 17.93L27.472 18.184L27.568 18.154C27.62 18.134 27.934 17.96 28.262 17.762C29.162 17.222 29.472 17.114 30.056 17.146C30.544 17.174 30.752 17.3 31.096 17.782C31.28 18.036 31.456 18.218 31.776 18.486C32.464 19.058 32.492 19.106 32.524 19.778C32.558 20.458 32.544 20.498 32.154 20.61C31.824 20.706 31.614 20.91 31.56 21.196C31.532 21.35 31.594 21.356 31.76 21.212L31.88 21.108L31.936 21.212C32.008 21.352 32.16 21.352 32.286 21.212L32.38 21.112L32.476 21.212C32.628 21.372 32.83 21.336 32.886 21.132C32.896 21.096 32.926 21.108 32.986 21.176C33.096 21.304 33.378 21.36 33.41 21.256C33.422 21.22 33.398 21.126 33.36 21.048C33.196 20.72 33.144 20.562 33.14 20.384C33.14 20.136 33.194 20.016 33.408 19.812C33.668 19.566 33.748 19.252 33.552 19.252C33.432 19.252 33.308 19.106 33.232 18.872C33.072 18.402 33.102 17.872 33.34 16.992C33.58 16.092 33.608 15.932 33.61 15.332C33.61 14.846 33.604 14.762 33.52 14.496C33.47 14.336 33.366 14.092 33.292 13.96L33.158 13.72L33.332 13.524C33.866 12.936 33.758 11.972 33.112 11.604C32.918 11.488 32.868 11.478 32.524 11.484C32.316 11.484 32.004 11.52 31.824 11.564C31.64 11.604 31.332 11.64 31.12 11.64C30.784 11.64 30.728 11.632 30.6 11.54C30.464 11.444 30.44 11.4 30.414 11.18C30.41 11.132 30.386 11.088 30.362 11.08C30.316 11.06 30.102 11.3 30.074 11.412C30.058 11.464 30.044 11.46 30 11.392C29.97 11.342 29.928 11.232 29.906 11.148C29.852 10.932 29.918 10.768 30.106 10.648L30.256 10.556L30.172 10.484C29.992 10.336 29.686 10.436 29.576 10.684C29.544 10.75 29.51 10.808 29.5 10.808C29.49 10.808 29.43 10.742 29.368 10.662C29.136 10.362 29.216 9.91404 29.528 9.77604C29.692 9.70404 29.838 9.76004 29.868 9.90604C29.914 10.13 30.06 9.83604 30.034 9.57004C30.014 9.39404 30.014 9.38604 30.108 9.38604C30.236 9.38604 30.508 9.61004 30.594 9.78604C30.694 9.98604 30.684 10.306 30.574 10.542L30.494 10.728L30.602 10.7C30.762 10.656 30.922 10.52 31.002 10.36C31.086 10.188 31.096 9.85404 31.022 9.67204C30.948 9.49804 30.956 9.47204 31.062 9.53204C31.246 9.63204 31.342 9.74004 31.416 9.93204C31.484 10.102 31.488 10.144 31.452 10.322C31.432 10.432 31.382 10.576 31.344 10.642C31.284 10.748 31.284 10.766 31.33 10.766C31.416 10.766 31.6 10.656 31.664 10.566C31.696 10.518 31.744 10.406 31.77 10.31L31.816 10.142L31.87 10.27C31.946 10.45 32.09 10.616 32.27 10.718C32.464 10.83 32.544 10.838 32.444 10.734C32.376 10.664 32.25 10.174 32.288 10.128C32.308 10.1 32.572 10.368 32.868 10.724C33.152 11.064 33.328 11.172 33.588 11.172C33.922 11.172 34.114 10.788 33.968 10.426C33.878 10.214 33.684 10.186 33.572 10.366C33.52 10.45 33.506 10.516 33.52 10.602C33.54 10.71 33.532 10.722 33.46 10.722C33.36 10.722 33.172 10.562 32.836 10.186C32.322 9.61604 31.696 9.13204 31.246 8.95604C30.956 8.84004 30.338 8.79604 30.046 8.86804C29.726 8.94404 29.346 9.18804 29.142 9.44804C28.778 9.90804 28.774 10.518 29.128 11.076L29.228 11.236L29.16 11.376C29.06 11.584 29.068 11.862 29.18 12.066C29.23 12.156 29.28 12.23 29.292 12.23C29.304 12.23 29.316 12.17 29.32 12.1C29.33 11.92 29.388 11.8 29.488 11.754C29.576 11.71 29.634 11.73 30.044 11.946C30.474 12.176 31.18 12.19 31.932 11.986C32.302 11.89 32.736 11.896 32.928 12.002C33.278 12.198 33.36 12.706 33.102 13.092C32.99 13.256 32.882 13.324 32.522 13.456C32.246 13.556 32.182 13.564 31.556 13.556C31.022 13.548 30.83 13.562 30.612 13.622C30.376 13.688 30.232 13.694 29.536 13.672L28.732 13.644L28.822 13.744C28.87 13.796 28.942 13.864 28.976 13.89C29.036 13.934 29.036 13.94 28.944 13.984C28.89 14.012 28.774 14.032 28.684 14.032H28.518L28.498 14.22C28.486 14.324 28.486 14.44 28.498 14.486C28.518 14.552 28.512 14.56 28.458 14.536C28.426 14.516 28.33 14.486 28.246 14.462C28.162 14.438 28.05 14.392 27.996 14.356C27.904 14.296 27.896 14.296 27.86 14.376C27.832 14.448 27.552 14.724 27.51 14.724C27.504 14.724 27.496 14.67 27.49 14.604C27.49 14.54 27.45 14.37 27.402 14.228C27.358 14.088 27.31 13.932 27.298 13.884C27.278 13.812 27.272 13.808 27.248 13.864C27.234 13.898 27.212 13.994 27.2 14.078C27.19 14.158 27.148 14.298 27.108 14.378L27.036 14.526L26.99 14.398C26.942 14.262 26.86 14.118 26.83 14.118C26.82 14.118 26.802 14.164 26.79 14.218C26.77 14.328 26.576 14.638 26.53 14.638C26.51 14.638 26.496 14.55 26.496 14.444C26.496 14.336 26.482 14.25 26.462 14.25C26.446 14.25 26.43 14.276 26.43 14.31C26.43 14.39 26.264 14.636 26.21 14.636C26.184 14.636 26.146 14.664 26.122 14.7C26.062 14.792 26.012 14.78 26.036 14.68C26.05 14.63 26.042 14.52 26.02 14.43L25.966 14.22C25.958 14.188 25.9 14.196 25.774 14.25C25.57 14.336 25.502 14.322 25.606 14.21C25.646 14.17 25.706 14.034 25.736 13.906C25.768 13.778 25.816 13.666 25.844 13.652C25.88 13.64 25.878 13.658 25.834 13.736C25.804 13.792 25.778 13.868 25.778 13.904C25.778 13.94 25.752 14.024 25.724 14.094C25.696 14.166 25.678 14.228 25.684 14.234C25.692 14.244 25.768 14.206 25.856 14.15L26.016 14.05V14.14C26.016 14.19 26.036 14.32 26.056 14.432L26.1 14.632L26.208 14.566C26.318 14.498 26.424 14.256 26.424 14.07C26.424 13.974 26.464 13.99 26.48 14.09L26.536 14.33L26.584 14.518L26.658 14.398C26.698 14.332 26.752 14.204 26.774 14.112C26.814 13.956 26.87 13.888 26.87 14.002C26.87 14.086 27.042 14.382 27.074 14.358C27.09 14.346 27.122 14.234 27.144 14.11C27.192 13.85 27.268 13.674 27.318 13.71C27.338 13.726 27.342 13.75 27.332 13.77C27.324 13.79 27.362 13.96 27.42 14.146C27.48 14.332 27.54 14.52 27.55 14.562C27.57 14.632 27.59 14.622 27.714 14.476C27.794 14.386 27.862 14.286 27.87 14.252C27.882 14.204 27.9 14.206 27.97 14.264C28.07 14.348 28.41 14.484 28.436 14.448C28.446 14.436 28.456 14.318 28.456 14.188L28.462 13.948L28.562 13.974C28.616 13.99 28.728 13.988 28.812 13.974L28.964 13.944L28.83 13.82C28.756 13.752 28.68 13.664 28.662 13.624C28.642 13.584 28.574 13.544 28.502 13.538C28.296 13.514 27.934 13.244 27.934 13.118C27.934 13.092 27.984 13.132 28.046 13.208C28.182 13.372 28.37 13.476 28.534 13.476H28.658L28.582 13.344C28.538 13.264 28.498 13.12 28.488 12.998C28.474 12.808 28.458 12.778 28.308 12.638C28.218 12.554 28.104 12.428 28.058 12.358L27.974 12.232L27.93 12.382C27.906 12.466 27.876 12.532 27.866 12.532C27.854 12.532 27.806 12.484 27.766 12.426C27.72 12.366 27.674 12.318 27.666 12.318C27.652 12.318 27.614 12.398 27.576 12.498L27.51 12.672L27.458 12.572C27.428 12.512 27.362 12.416 27.308 12.352C27.254 12.284 27.224 12.232 27.244 12.232C27.264 12.232 27.332 12.3 27.394 12.382L27.508 12.534L27.554 12.422C27.58 12.358 27.59 12.256 27.578 12.174C27.558 12.054 27.562 12.05 27.598 12.124C27.618 12.172 27.684 12.264 27.744 12.324L27.852 12.444L27.926 12.264C28 12.084 28.002 12.084 28.034 12.188C28.08 12.332 28.404 12.688 28.68 12.892C28.72 12.924 28.704 12.812 28.626 12.562C28.606 12.496 28.586 12.376 28.586 12.296C28.586 12.176 28.562 12.122 28.446 12.006C28.282 11.838 28.23 11.72 28.198 11.45C28.186 11.34 28.158 11.218 28.134 11.18C28.1 11.12 28.094 11.154 28.104 11.356C28.108 11.496 28.094 11.664 28.072 11.736L28.032 11.864L28 11.756C27.98 11.696 27.906 11.596 27.83 11.526C27.75 11.46 27.7 11.394 27.71 11.38C27.72 11.368 27.8 11.428 27.884 11.516C28.014 11.65 28.044 11.664 28.06 11.606C28.08 11.536 28.06 11.234 28.02 11.026C28 10.918 28 10.918 28.1 11.046C28.172 11.146 28.21 11.258 28.24 11.458C28.28 11.712 28.3 11.758 28.476 11.958C28.582 12.084 28.676 12.178 28.68 12.17C28.688 12.162 28.7 11.842 28.71 11.46C28.73 10.73 28.71 10.556 28.576 10.33L28.508 10.214L28.614 10.06C28.754 9.86004 28.818 9.70004 28.846 9.48004L28.87 9.30004L28.75 9.45404C28.65 9.57804 28.604 9.60604 28.49 9.60604C28.376 9.60604 28.33 9.58204 28.256 9.47204C28.164 9.34204 28 9.21804 27.844 9.15604C27.784 9.13604 27.764 9.14404 27.764 9.19604C27.764 9.23604 27.734 9.34404 27.694 9.44004L27.624 9.61604L27.476 9.42004C27.384 9.30004 27.276 9.20804 27.196 9.18004C26.99 9.10804 26.98 9.11404 26.98 9.32004C26.98 9.62604 26.88 9.68404 26.7 9.48004C26.566 9.32004 26.452 9.28804 26.194 9.32604L25.994 9.35604L26.034 9.47604C26.062 9.57604 26.054 9.61604 25.99 9.73004C25.886 9.91404 25.75 9.99404 25.542 9.99404C25.446 9.99404 25.326 10.02 25.274 10.054C25.224 10.084 25.098 10.122 24.994 10.134C24.89 10.148 24.78 10.174 24.748 10.188C24.7 10.212 24.694 10.192 24.708 10.044C24.734 9.81604 24.616 9.65004 24.428 9.65004C24.188 9.65004 24.078 9.93604 24.172 10.314C24.1898 10.3779 24.2075 10.4765 24.2197 10.544L24.224 10.568C24.238 10.638 24.344 10.824 24.48 11.002C24.608 11.174 24.728 11.352 24.748 11.398C24.768 11.444 24.834 11.518 24.894 11.562L25.004 11.642L24.99 11.488C24.974 11.316 25.002 11.288 25.07 11.408C25.096 11.454 25.158 11.524 25.21 11.568C25.29 11.632 25.304 11.634 25.304 11.576C25.304 11.536 25.32 11.456 25.34 11.388L25.38 11.268L25.44 11.432C25.476 11.522 25.592 11.728 25.696 11.892C25.9 12.202 26.024 12.552 25.96 12.632C25.934 12.666 25.864 12.662 25.72 12.624C25.606 12.596 25.466 12.58 25.408 12.59C25.288 12.61 25.282 12.59 25.354 12.47C25.43 12.344 25.418 12.324 25.268 12.324C25.094 12.324 24.664 12.212 24.498 12.124C24.338 12.044 24.298 12.064 24.252 12.264L24.166 12.634L24.12 12.834L24.294 12.814C24.39 12.8 24.514 12.774 24.568 12.75C24.624 12.73 24.674 12.718 24.68 12.724C24.686 12.732 24.66 12.812 24.626 12.9L24.558 13.06L24.668 13.032C24.728 13.016 24.818 12.976 24.868 12.944C24.956 12.888 24.962 12.892 25.032 13.038C25.116 13.218 25.184 13.212 25.198 13.018C25.214 12.822 25.264 12.852 25.358 13.114C25.444 13.366 25.538 13.454 25.554 13.306C25.56 13.258 25.606 13.176 25.66 13.126C25.766 13.026 25.846 13.058 25.89 13.214C25.94 13.374 25.834 13.542 25.53 13.79C24.91 14.286 24.554 14.966 24.45 15.83C24.358 16.61 24.646 17.418 25.224 17.998C25.5 18.278 25.94 18.568 25.912 18.458C25.796 17.982 25.8 17.078 25.92 16.924C25.94 16.9 25.932 16.994 25.906 17.132C25.81 17.648 25.852 18.058 26.1 19.02C26.32 19.892 26.292 20.264 25.976 20.508C25.876 20.588 25.808 20.6 25.536 20.596C25.24 20.592 25.208 20.6 25.112 20.7C25.02 20.8 24.902 21.12 24.902 21.268C24.902 21.348 24.968 21.338 25.102 21.236L25.07 21.232ZM22.83 19.632C22.862 19.578 22.886 19.492 22.886 19.442C22.886 19.366 22.912 19.346 23.04 19.322L23.194 19.294L23.094 19.184C22.97 19.056 22.958 18.956 23.066 18.956C23.172 18.956 23.354 18.808 23.382 18.696C23.396 18.648 23.388 18.58 23.366 18.544C23.306 18.454 23.192 18.468 23.172 18.568C23.148 18.676 23.112 18.678 23.026 18.568C22.898 18.408 22.894 18.072 23.02 17.876C23.076 17.784 23.076 17.776 23 17.684C22.92 17.58 22.86 17.378 22.9 17.33C22.912 17.316 22.976 17.33 23.04 17.358C23.136 17.398 23.174 17.402 23.212 17.358C23.332 17.238 23.202 17.078 23.012 17.114C22.938 17.128 22.908 17.114 22.896 17.062C22.888 17.022 22.822 16.968 22.746 16.942C22.614 16.898 22.612 16.902 22.612 17.022C22.612 17.156 22.552 17.182 22.446 17.096C22.356 17.026 22.27 17.08 22.27 17.206C22.27 17.322 22.36 17.38 22.518 17.366C22.638 17.356 22.644 17.478 22.528 17.65L22.444 17.776L22.51 17.902C22.61 18.088 22.6 18.398 22.49 18.552L22.41 18.672L22.354 18.576C22.278 18.442 22.174 18.452 22.144 18.596C22.124 18.69 22.144 18.732 22.23 18.832C22.29 18.898 22.376 18.952 22.422 18.952C22.538 18.952 22.534 19.072 22.414 19.196L22.32 19.292L22.468 19.322C22.548 19.338 22.612 19.37 22.612 19.392C22.612 19.472 22.712 19.728 22.746 19.728C22.766 19.728 22.806 19.688 22.832 19.634L22.83 19.632ZM23.336 15.292C23.668 15.098 23.696 14.604 23.384 14.472C23.254 14.42 23.172 14.452 23.124 14.566C23.084 14.656 23.11 14.818 23.164 14.818C23.18 14.818 23.194 14.846 23.194 14.882C23.194 15.054 22.688 15.132 22.482 14.992C22.41 14.942 22.382 14.816 22.442 14.816C22.482 14.816 22.516 14.684 22.494 14.592C22.462 14.468 22.366 14.424 22.23 14.472C21.92 14.58 21.93 15.064 22.244 15.272C22.504 15.438 23.072 15.448 23.34 15.292H23.336ZM23.13 14.912C23.15 14.892 23.142 14.852 23.11 14.818C23.04 14.744 23.044 14.634 23.12 14.508C23.18 14.414 23.186 14.274 23.206 12.856C23.24 10.408 23.376 8.57004 23.556 8.13004C23.628 7.95404 23.616 7.95004 23.432 8.12004C23.192 8.33604 23.012 8.62004 22.852 9.02004C22.548 9.78004 22.442 10.804 22.442 12.988C22.442 14.228 22.45 14.388 22.502 14.508C22.554 14.616 22.556 14.658 22.522 14.776C22.498 14.852 22.488 14.926 22.498 14.936C22.566 15.024 23.058 15.002 23.132 14.91L23.13 14.912ZM22 6H20V8H22V6ZM36 6H34V8H36V6ZM22 22H20V24H22V22ZM36 22H34V24H36V22Z" fill="#AF010D"/>
<path fill-rule="evenodd" clip-rule="evenodd" d="M10 4H16V26H10V4Z" fill="#FF6C2D"/>
<path opacity="0.2" fill-rule="evenodd" clip-rule="evenodd" d="M10 4H16V26H10V4Z" fill="#151515"/>
<path fill-rule="evenodd" clip-rule="evenodd" d="M4.00049 4H10.0005V26H4.00049V4Z" fill="#0A6A30"/>
</g>
<defs>
<clipPath id="clip0_2906_61370">
<rect width="42" height="30" rx="2" fill="white"/>
</clipPath>
</defs>
</svg>
