<svg width="42" height="30" viewBox="0 0 42 30" fill="none" xmlns="http://www.w3.org/2000/svg">
<rect width="42" height="30" rx="2" fill="white"/>
<path fill-rule="evenodd" clip-rule="evenodd" d="M0 0H42V18H0V0Z" fill="#F93939"/>
<path fill-rule="evenodd" clip-rule="evenodd" d="M12.0001 15.726C11.4201 15.906 10.8001 16 10.1541 16C6.75412 16 4.00012 13.314 4.00012 9.99997C4.00012 6.68597 6.75612 3.99997 10.1541 3.99997C10.7981 3.99997 11.4181 4.09597 12.0001 4.27397C9.50412 5.03997 7.69212 7.31397 7.69212 9.99997C7.69212 12.686 9.50412 14.96 12.0001 15.726ZM16.0001 5.99997H18.0001V7.99997H16.0001V5.99997ZM20.0001 7.99997H22.0001V9.99997H20.0001V7.99997ZM18.0001 12H20.0001V14H18.0001V12ZM12.0001 7.99997H14.0001V9.99997H12.0001V7.99997ZM14.0001 12H16.0001V14H14.0001V12Z" fill="white"/>
</svg>
