<svg width="42" height="30" viewBox="0 0 42 30" fill="none" xmlns="http://www.w3.org/2000/svg">
<g clip-path="url(#clip0_2906_61219)">
<path d="M38 0H4C1.79086 0 0 1.79086 0 4V26C0 28.2091 1.79086 30 4 30H38C40.2091 30 42 28.2091 42 26V4C42 1.79086 40.2091 0 38 0Z" fill="#F93939"/>
<path fill-rule="evenodd" clip-rule="evenodd" d="M20.9999 20C23.7599 20 25.9999 17.76 25.9999 15C25.9999 12.24 23.7599 10 20.9999 10C18.2399 10 15.9999 12.24 15.9999 15C15.9999 17.76 18.2399 20 20.9999 20ZM20.9999 18C22.6559 18 23.9999 16.21 23.9999 14C23.9999 11.79 22.6559 10 20.9999 10C19.3439 10 17.9999 11.79 17.9999 14C17.9999 16.21 19.3439 18 20.9999 18ZM20.9999 16C21.5519 16 21.9999 15.104 21.9999 14C21.9999 12.896 21.5519 12 20.9999 12C20.4479 12 19.9999 12.896 19.9999 14C19.9999 15.104 20.4479 16 20.9999 16Z" fill="white"/>
<path fill-rule="evenodd" clip-rule="evenodd" d="M27.9998 0H41.9998V30H27.9998V0Z" fill="#249F58"/>
<path fill-rule="evenodd" clip-rule="evenodd" d="M0 0H14V30H0V0Z" fill="#151515"/>
</g>
<defs>
<clipPath id="clip0_2906_61219">
<rect width="42" height="30" rx="2" fill="white"/>
</clipPath>
</defs>
</svg>
