<svg width="42" height="30" viewBox="0 0 42 30" fill="none" xmlns="http://www.w3.org/2000/svg">
<g clip-path="url(#clip0_2906_61340)">
<rect width="42" height="30" rx="2" fill="#F93939"/>
<path d="M38 0H4C1.79086 0 0 1.79086 0 4V26C0 28.2091 1.79086 30 4 30H38C40.2091 30 42 28.2091 42 26V4C42 1.79086 40.2091 0 38 0Z" fill="#F93939"/>
<path fill-rule="evenodd" clip-rule="evenodd" d="M12 20H42V30H12V20Z" fill="#249F58"/>
<path fill-rule="evenodd" clip-rule="evenodd" d="M11.9994 0H41.9994V10H11.9994V0ZM9.15136 7.806C9.04136 7.972 8.91536 8.126 8.77136 8.272C7.59736 9.444 5.69736 9.444 4.52736 8.272C3.35536 7.102 3.35536 5.202 4.52736 4.032C4.67136 3.884 4.82736 3.758 4.99336 3.648C4.54336 4.488 4.91336 5.832 5.94136 6.858C6.96936 7.882 8.31136 8.254 9.15336 7.804L9.15136 7.806Z" fill="white"/>
<path fill-rule="evenodd" clip-rule="evenodd" d="M4.84774 7.80591C4.95774 7.97191 5.08374 8.12591 5.22774 8.27191C6.40174 9.44391 8.30174 9.44391 9.47174 8.27191C10.6437 7.10191 10.6437 5.20191 9.47174 4.03191C9.32774 3.88391 9.17174 3.75791 9.00574 3.64791C9.45574 4.48791 9.08574 5.83191 8.05774 6.85791C7.02974 7.88191 5.68774 8.25391 4.84574 7.80391L4.84774 7.80591Z" fill="white"/>
</g>
<defs>
<clipPath id="clip0_2906_61340">
<rect width="42" height="30" rx="2" fill="white"/>
</clipPath>
</defs>
</svg>
