<svg width="42" height="30" viewBox="0 0 42 30" fill="none" xmlns="http://www.w3.org/2000/svg">
<g clip-path="url(#clip0_2906_61182)">
<rect width="42" height="30" rx="2" fill="#F93939"/>
<path fill-rule="evenodd" clip-rule="evenodd" d="M0 22H42V30H0V22Z" fill="#00B731"/>
<path fill-rule="evenodd" clip-rule="evenodd" d="M0 0H42V8H0V0Z" fill="#03BCDB"/>
<path fill-rule="evenodd" clip-rule="evenodd" d="M0 10H42V20H0V10ZM10 7.83001C9.688 7.94001 9.35 8.00001 9 8.00001C7.344 8.00001 6 6.65601 6 5.00001C6 3.34401 7.344 2.00001 9 2.00001C9.35 2.00001 9.688 2.06001 10 2.17001C8.834 2.58201 8 3.69401 8 5.00001C8 6.30601 8.834 7.42001 10 7.83001Z" fill="white"/>
<path fill-rule="evenodd" clip-rule="evenodd" d="M12 4.00001H14V6.00001H12V4.00001ZM14 2.00001H16V4.00001H14V2.00001ZM16 4.00001H18V6.00001H16V4.00001ZM18 2.00001H20V4.00001H18V2.00001ZM20 4.00001H22V6.00001H20V4.00001ZM18 6.00001H20V8.00001H18V6.00001ZM14 6.00001H16V8.00001H14V6.00001Z" fill="#1A47B8"/>
</g>
<defs>
<clipPath id="clip0_2906_61182">
<rect width="42" height="30" rx="2" fill="white"/>
</clipPath>
</defs>
</svg>
