<svg width="42" height="30" viewBox="0 0 42 30" fill="none" xmlns="http://www.w3.org/2000/svg">
<g clip-path="url(#clip0_2906_61231)">
<rect width="42" height="30" rx="2" fill="white"/>
<path fill-rule="evenodd" clip-rule="evenodd" d="M0 20H42V30H0V20Z" fill="#151515"/>
<path fill-rule="evenodd" clip-rule="evenodd" d="M20 16H22V16.99C22 17.57 22.448 18 23 18C23.536 18 24 17.548 24 16.99V12.99C24 12.444 24.464 12 25 12C25.552 12 26 12.432 26 12.99V16H28.98C29.544 16 30 16.464 30 17C30 17.552 29.556 18 28.98 18H13.02C12.456 18 12 17.536 12 17C12 16.576 12.26 16.214 12.64 16.068C12.69 15.94 12.766 15.818 12.872 15.714L15.712 12.874C16.1 12.486 16.742 12.5 17.122 12.878C17.514 13.268 17.526 13.888 17.13 14.284L15.414 16H18V15.01C18 14.45 18.464 14 19 14C19.552 14 20 14.428 20 15.01V16Z" fill="#249F58"/>
<path fill-rule="evenodd" clip-rule="evenodd" d="M0 0H42V10H0V0Z" fill="#F93939"/>
</g>
<defs>
<clipPath id="clip0_2906_61231">
<rect width="42" height="30" rx="2" fill="white"/>
</clipPath>
</defs>
</svg>
