<svg width="42" height="30" viewBox="0 0 42 30" fill="none" xmlns="http://www.w3.org/2000/svg">
<rect width="42" height="30" rx="2" fill="#03BCDB"/>
<path d="M23.0002 17.9999C25.7616 17.9999 28.0002 15.7613 28.0002 12.9999C28.0002 10.2385 25.7616 7.99992 23.0002 7.99992C20.2387 7.99992 18.0002 10.2385 18.0002 12.9999C18.0002 15.7613 20.2387 17.9999 23.0002 17.9999Z" fill="#FFDA2C"/>
<path fill-rule="evenodd" clip-rule="evenodd" d="M16.0002 14L18.0002 18L23.0002 20L28.0002 18L30.0002 14V20L23.0002 22L16.0002 20V14Z" fill="#FFDA2C"/>
<path fill-rule="evenodd" clip-rule="evenodd" d="M4.00024 4.99C4.00024 4.444 4.46424 4 5.00024 4C5.55224 4 6.00024 4.432 6.00024 4.99V9.01C6.00024 9.556 5.53624 10 5.00024 10C4.44824 10 4.00024 9.568 4.00024 9.01V4.99ZM6.00024 8.99C6.00024 8.444 6.46424 8 7.00024 8C7.55224 8 8.00024 8.432 8.00024 8.99V13.01C8.00024 13.556 7.53624 14 7.00024 14C6.44824 14 6.00024 13.568 6.00024 13.01V8.99ZM6.00024 16.99C6.00024 16.444 6.46424 16 7.00024 16C7.55224 16 8.00024 16.432 8.00024 16.99V21.01C8.00024 21.556 7.53624 22 7.00024 22C6.44824 22 6.00024 21.568 6.00024 21.01V16.99ZM4.00024 20.99C4.00024 20.444 4.46424 20 5.00024 20C5.55224 20 6.00024 20.432 6.00024 20.99V25.01C6.00024 25.556 5.53624 26 5.00024 26C4.44824 26 4.00024 25.568 4.00024 25.01V20.99ZM4.00024 13C4.00024 12.448 4.46424 12 5.00024 12C5.55224 12 6.00024 12.464 6.00024 13C6.00024 13.552 5.53624 14 5.00024 14C4.44824 14 4.00024 13.536 4.00024 13ZM6.00024 5C6.00024 4.448 6.46424 4 7.00024 4C7.55224 4 8.00024 4.464 8.00024 5C8.00024 5.552 7.53624 6 7.00024 6C6.44824 6 6.00024 5.536 6.00024 5ZM4.00024 15C4.00024 14.448 4.46424 14 5.00024 14C5.55224 14 6.00024 14.464 6.00024 15C6.00024 15.552 5.53624 16 5.00024 16C4.44824 16 4.00024 15.536 4.00024 15ZM6.00024 25C6.00024 24.448 6.46424 24 7.00024 24C7.55224 24 8.00024 24.464 8.00024 25C8.00024 25.552 7.53624 26 7.00024 26C6.44824 26 6.00024 25.536 6.00024 25ZM4.00024 17C4.00024 16.448 4.46424 16 5.00024 16C5.55224 16 6.00024 16.464 6.00024 17C6.00024 17.552 5.53624 18 5.00024 18C4.44824 18 4.00024 17.536 4.00024 17Z" fill="#FFDA2C"/>
</svg>
