<svg width="42" height="30" viewBox="0 0 42 30" fill="none" xmlns="http://www.w3.org/2000/svg">
<g clip-path="url(#clip0_2958_63410)">
<path d="M0 0H42V30H0V0Z" fill="#032EA1"/>
<path d="M0 7.5H42V22.5H0V7.5Z" fill="#E00025"/>
<path d="M16.5637 14.1377H25.5255V17.4227H16.5637V14.1377Z" fill="white"/>
<path fill-rule="evenodd" clip-rule="evenodd" d="M16.5244 14.1381L16.5638 14.1006H25.5255L25.5649 14.1381V17.4231L25.5255 17.4606H16.5638L16.5244 17.4231V14.1381ZM16.6032 14.1756V17.3856H25.4862V14.1756H16.6032Z" fill="black"/>
<path d="M25.0687 15.946H25.3443V17.1835H25.0687V15.946ZM16.5637 15.3385H25.5255V15.7135H16.5637V15.3385ZM16.5637 14.8135H25.5255V15.1585H16.5637V14.8135Z" fill="white"/>
<path fill-rule="evenodd" clip-rule="evenodd" d="M16.5244 14.8129L16.5638 14.7754H25.5255L25.5649 14.8129V15.1579L25.5255 15.1954H16.5638L16.5244 15.1579V14.8129ZM16.6032 14.8504V15.1204H25.4862V14.8504H16.6032ZM16.5244 15.3379L16.5638 15.3004H25.5255L25.5649 15.3379V15.7129L25.5255 15.7504H16.5638L16.5244 15.7129V15.3379ZM16.6032 15.3754V15.6754H25.4862V15.3754H16.6032ZM25.0294 15.9454L25.0688 15.9079H25.3444L25.3838 15.9454V17.1829L25.3444 17.2204H25.0688L25.0294 17.1829V15.9454ZM25.1082 15.9829V17.1454H25.305V15.9829H25.1082Z" fill="black"/>
<path d="M16.5637 14.3027H25.5255V14.6252H16.5637V14.3027Z" fill="white"/>
<path fill-rule="evenodd" clip-rule="evenodd" d="M16.5283 14.3033L16.5638 14.2695H25.5255L25.5609 14.3033V14.6258L25.5255 14.6595H16.5638L16.5283 14.6258V14.3033ZM16.5992 14.337V14.592H25.4901V14.337H16.5992Z" fill="black"/>
<path d="M18.9263 15.9453H19.2098V17.1828H18.9263V15.9453ZM22.7851 15.9453H23.0686V17.1828H22.7851V15.9453ZM16.6426 15.9453H16.9182V17.1828H16.6426V15.9453ZM17.1938 15.9453H17.4695V17.1828H17.1938V15.9453ZM17.7845 15.9453H18.0601V17.1828H17.7845V15.9453ZM18.3751 15.9453H18.6507V17.1828H18.3751V15.9453ZM23.3206 15.9453H23.6041V17.1828H23.3206V15.9453ZM23.9112 15.9453H24.1947V17.1828H23.9112V15.9453ZM24.5018 15.9453H24.7853V17.1828H24.5018V15.9453Z" fill="white"/>
<path fill-rule="evenodd" clip-rule="evenodd" d="M16.603 15.9457L16.6424 15.9082H16.918L16.9574 15.9457V17.1832L16.918 17.2207H16.6424L16.603 17.1832V15.9457ZM16.6818 15.9832V17.1457H16.8787V15.9832H16.6818ZM17.1543 15.9457L17.1937 15.9082H17.4693L17.5087 15.9457V17.1832L17.4693 17.2207H17.1937L17.1543 17.1832V15.9457ZM17.233 15.9832V17.1457H17.4299V15.9832H17.233ZM17.7449 15.9457L17.7843 15.9082H18.0599L18.0993 15.9457V17.1832L18.0599 17.2207H17.7843L17.7449 17.1832V15.9457ZM17.8237 15.9832V17.1457H18.0205V15.9832H17.8237ZM18.3355 15.9457L18.3749 15.9082H18.6505L18.6899 15.9457V17.1832L18.6505 17.2207H18.3749L18.3355 17.1832V15.9457ZM18.4143 15.9832V17.1457H18.6112V15.9832H18.4143ZM18.8868 15.9457L18.9262 15.9082H19.2097L19.249 15.9457V17.1832L19.2097 17.2207H18.9262L18.8868 17.1832V15.9457ZM18.9655 15.9832V17.1457H19.1703V15.9832H18.9655ZM22.7455 15.9457L22.7849 15.9082H23.0684L23.1078 15.9457V17.1832L23.0684 17.2207H22.7849L22.7455 17.1832V15.9457ZM22.8243 15.9832V17.1457H23.029V15.9832H22.8243ZM23.281 15.9457L23.3204 15.9082H23.6039L23.6433 15.9457V17.1832L23.6039 17.2207H23.3204L23.281 17.1832V15.9457ZM23.3598 15.9832V17.1457H23.5645V15.9832H23.3598ZM23.8717 15.9457L23.911 15.9082H24.1945L24.2339 15.9457V17.1832L24.1945 17.2207H23.911L23.8717 17.1832V15.9457ZM23.9504 15.9832V17.1457H24.1552V15.9832H23.9504ZM24.4623 15.9457L24.5017 15.9082H24.7852L24.8245 15.9457V17.1832L24.7852 17.2207H24.5017L24.4623 17.1832V15.9457ZM24.541 15.9832V17.1457H24.7458V15.9832H24.541Z" fill="black"/>
<path d="M13.0593 17.5879C13.224 17.5026 13.348 17.3603 13.4058 17.1904H28.6125C28.6703 17.3603 28.7943 17.5026 28.959 17.5879H13.0593Z" fill="white"/>
<path fill-rule="evenodd" clip-rule="evenodd" d="M13.3772 17.1533H28.6411L28.6499 17.1793C28.7046 17.34 28.822 17.4746 28.9778 17.5554L28.959 17.6258H13.0594L13.0405 17.5554C13.1963 17.4746 13.3137 17.34 13.3684 17.1793L13.3772 17.1533ZM13.4339 17.2283C13.385 17.3557 13.3002 17.4671 13.1898 17.5508H28.8286C28.7182 17.4671 28.6334 17.3557 28.5844 17.2283H13.4339Z" fill="black"/>
<path d="M20.8162 9.13531C20.8162 9.13531 20.8084 8.82781 20.9974 8.82031C21.1785 8.82031 21.1706 9.13531 21.1706 9.13531H20.8162ZM19.8319 13.2228V12.8103C19.8319 12.6003 19.6114 12.5853 19.6114 12.4353C19.6114 12.4353 19.5799 12.2103 19.6429 12.1053C19.7295 12.4053 19.8791 12.3528 19.8791 12.2253C19.8791 12.1203 19.8004 12.0153 19.6192 11.7528C19.5562 11.6703 19.5956 11.4078 19.6744 11.3103C19.7059 11.5353 19.7452 11.6478 19.8476 11.6478C19.9106 11.6478 19.9579 11.6103 19.9579 11.4978C19.9579 11.3478 19.8555 11.2728 19.8004 11.1378C19.7732 11.0706 19.7669 10.9974 19.7823 10.9269C19.7977 10.8565 19.834 10.7917 19.887 10.7403C19.9264 10.9653 19.9185 11.0553 20.0209 11.0553C20.2335 10.9878 20.0209 10.6953 19.9736 10.6203C19.9264 10.5378 20.0524 10.3653 20.0524 10.3653C20.1154 10.5678 20.1311 10.5828 20.2099 10.5603C20.3044 10.5378 20.2886 10.4103 20.1784 10.3053C20.1075 10.2303 20.1154 10.1328 20.1941 10.0578C20.2729 10.2003 20.3674 10.1928 20.3752 10.1028L20.3122 9.77281H21.6825L21.6116 10.0953C21.5959 10.1853 21.7219 10.2078 21.8006 10.0578C21.8794 10.1328 21.8872 10.2378 21.8164 10.3053C21.7061 10.4103 21.6904 10.5378 21.7849 10.5603C21.8636 10.5828 21.8794 10.5603 21.9424 10.3653C21.9424 10.3653 22.0605 10.4778 22.0211 10.6203C21.9739 10.6953 21.7612 10.9953 21.9739 11.0553C22.0762 11.0553 22.0684 10.9653 22.1077 10.7403C22.1594 10.7925 22.1943 10.8576 22.2082 10.9281C22.2222 10.9985 22.2146 11.0713 22.1865 11.1378C22.1392 11.2728 22.029 11.3478 22.029 11.4978C22.029 11.6103 22.0841 11.6478 22.1471 11.6478C22.2495 11.6478 22.2889 11.5428 22.3204 11.3103C22.3991 11.4078 22.4385 11.6703 22.3755 11.7603C22.1944 12.0153 22.1077 12.1203 22.1077 12.2253C22.1077 12.3528 22.2652 12.4053 22.344 12.1053C22.4149 12.2103 22.3834 12.4353 22.3834 12.4353C22.3834 12.5853 22.1707 12.6003 22.1629 12.8103V13.2228H19.8319ZM20.3989 9.77281L20.3674 9.54032H21.6195L21.588 9.77281H20.3989ZM20.4776 9.53281L20.4619 9.34531H21.525L21.5014 9.53281H20.4776ZM20.6587 9.33781L20.6351 9.14282H21.3439L21.336 9.33781H20.6587ZM23.2575 17.5878C23.1 17.5353 22.8637 17.3703 22.8637 17.2128V15.3903L23.0685 15.1353H18.9262L19.1231 15.3903V17.2128C19.1231 17.3703 18.9656 17.5353 18.8081 17.5878H23.2575Z" fill="white"/>
<path d="M19.6506 15.9453H19.9341V17.1828H19.6506V15.9453ZM22.0446 15.9453H22.3281V17.1828H22.0446V15.9453Z" fill="white"/>
<path fill-rule="evenodd" clip-rule="evenodd" d="M19.6113 15.9457L19.6507 15.9082H19.9342L19.9736 15.9457V17.1832L19.9342 17.2207H19.6507L19.6113 17.1832V15.9457ZM19.6901 15.9832V17.1457H19.8948V15.9832H19.6901ZM22.0053 15.9457L22.0447 15.9082H22.3282L22.3676 15.9457V17.1832L22.3282 17.2207H22.0447L22.0053 17.1832V15.9457ZM22.0841 15.9832V17.1457H22.2888V15.9832H22.0841Z" fill="black"/>
<path d="M18.8475 13.0654V15.1354H23.1V13.0654C23.0508 13.0825 23.0067 13.1105 22.9711 13.147C22.9355 13.1835 22.9095 13.2275 22.8952 13.2754V14.1604H19.0601V13.2754C19.0601 13.2754 19.0128 13.1254 18.8396 13.0654H18.8475Z" fill="white"/>
<path fill-rule="evenodd" clip-rule="evenodd" d="M23.1394 13.0117V15.1728H18.8081V13.0653H18.8327L18.8396 13.0278H18.8869V13.0434C18.9636 13.0775 19.0146 13.1276 19.047 13.1712C19.0654 13.1959 19.0779 13.2187 19.0859 13.2355C19.0899 13.2439 19.0928 13.2508 19.0947 13.2558C19.0957 13.2583 19.0964 13.2603 19.0969 13.2618L19.0975 13.2636L19.0977 13.2642L19.0978 13.2644L19.0978 13.2645C19.0978 13.2645 19.0978 13.2646 19.0601 13.2753L19.0978 13.2646L19.0995 13.2698V14.1228H22.8559V13.2701L22.8573 13.2651C22.8733 13.2115 22.9024 13.1622 22.9422 13.1214C22.9821 13.0805 23.0315 13.0492 23.0865 13.0301L23.1394 13.0117ZM19.0207 13.2816C19.0194 13.2781 19.0172 13.2729 19.0142 13.2664C19.0079 13.2532 18.9977 13.2347 18.9827 13.2145C18.9614 13.1859 18.9306 13.1541 18.8869 13.1285V15.0978H23.0606V13.125C23.0383 13.1381 23.0179 13.154 22.9999 13.1724C22.9698 13.2033 22.9474 13.2404 22.9346 13.2807V14.1978H19.0207V13.2816Z" fill="black"/>
<path d="M22.5172 17.588C22.3755 17.5355 22.0762 17.3705 22.0762 17.213V15.173C22.1077 15.0605 22.2652 14.993 22.3676 14.918H19.5562C19.6901 14.993 19.8397 15.0455 19.8948 15.173V17.213C19.8948 17.3705 19.6586 17.5355 19.5168 17.588H22.5172Z" fill="white"/>
<path fill-rule="evenodd" clip-rule="evenodd" d="M19.4116 14.8799H22.4834L22.3916 14.9471C22.3647 14.9668 22.3344 14.9859 22.305 15.0043L22.3043 15.0048C22.2747 15.0234 22.2457 15.0416 22.219 15.0608C22.1661 15.0988 22.129 15.136 22.1156 15.1776V17.2124C22.1156 17.2405 22.1291 17.2725 22.1567 17.3075C22.184 17.3423 22.2229 17.3769 22.2675 17.4095C22.3568 17.4746 22.4638 17.5273 22.5315 17.5524L22.5172 17.6249H19.5168L19.5026 17.5524C19.5686 17.528 19.6589 17.4762 19.7323 17.4117C19.8073 17.3458 19.8555 17.2746 19.8555 17.2124V15.1801C19.8315 15.1296 19.789 15.0915 19.7333 15.0565C19.7043 15.0382 19.6726 15.0213 19.639 15.0039C19.6323 15.0004 19.6254 14.9968 19.6185 14.9933C19.5915 14.9794 19.5635 14.965 19.5363 14.9497L19.4116 14.8799ZM19.7088 14.9549C19.732 14.9672 19.7549 14.9801 19.7768 14.9939C19.8409 15.0343 19.8994 15.0844 19.9313 15.1581L19.9342 15.165V17.2124C19.9342 17.3076 19.8643 17.3977 19.7857 17.4668C19.7508 17.4975 19.7124 17.5256 19.674 17.5499H22.3477C22.3047 17.5262 22.2606 17.4989 22.2196 17.469C22.1717 17.4341 22.1269 17.3947 22.0937 17.3525C22.0607 17.3107 22.0368 17.263 22.0368 17.2124V15.1675L22.0382 15.1627C22.0575 15.0936 22.1142 15.0421 22.1716 15.0009C22.194 14.9848 22.2177 14.9695 22.2408 14.9549H19.7088Z" fill="black"/>
<path d="M22.8952 14.9406V13.4706H22.5093V13.3281H19.4538V13.4781H19.0601V14.9406H22.8952ZM21.9187 17.5881C21.7769 17.5356 21.5801 17.3706 21.5801 17.2131V15.4731L21.6903 15.3156H20.2964L20.4146 15.4656V17.2131C20.4146 17.3706 20.2098 17.5356 20.0759 17.5881H21.9187Z" fill="white"/>
<path fill-rule="evenodd" clip-rule="evenodd" d="M19.4145 13.29H22.5488V13.4325H22.9346V14.9775H19.0208V13.44H19.4145V13.29ZM19.4933 13.365V13.515H19.0995V14.9025H22.8559V13.5075H22.47V13.365H19.4933ZM20.2178 15.2775H21.764L21.6195 15.4839V17.2125C21.6195 17.2772 21.6608 17.349 21.7249 17.4137C21.7883 17.4776 21.8682 17.5286 21.933 17.5526L21.9188 17.625H20.076L20.061 17.5529C20.1223 17.5288 20.2025 17.4776 20.2671 17.4135C20.3325 17.3484 20.3753 17.2768 20.3753 17.2125V15.4775L20.2178 15.2775ZM20.3753 15.3525L20.454 15.4525V17.2125C20.454 17.3058 20.3943 17.3954 20.3239 17.4654C20.2925 17.4966 20.2575 17.5253 20.2221 17.55H21.7692C21.7335 17.5252 21.6987 17.4965 21.6677 17.4652C21.5979 17.3949 21.5408 17.3054 21.5408 17.2125V15.4612L21.6168 15.3525H20.3753Z" fill="black"/>
<path d="M20.635 15.3154H21.3438V17.5879H20.635V15.3154Z" fill="white"/>
<path fill-rule="evenodd" clip-rule="evenodd" d="M20.5957 15.2773H21.3832V17.6248H20.5957V15.2773ZM20.6745 15.3523V17.5498H21.3045V15.3523H20.6745Z" fill="black"/>
<path d="M21.7138 14.8123C21.7138 14.6623 22.1705 14.6548 22.4068 14.5273H19.5718C19.808 14.6548 20.2569 14.6623 20.2569 14.8123L20.3514 15.1048L21.5327 15.1498L21.7138 14.8123Z" fill="white"/>
<path fill-rule="evenodd" clip-rule="evenodd" d="M19.5525 14.5604L19.5719 14.4902H22.4069L22.4263 14.5604C22.3632 14.5944 22.2868 14.6198 22.2099 14.641C22.1618 14.6542 22.1115 14.6664 22.0634 14.678C22.0352 14.6848 22.0078 14.6915 21.982 14.698C21.91 14.7163 21.8496 14.7344 21.8076 14.7559C21.7644 14.778 21.7533 14.7969 21.7533 14.8127L21.749 14.8298L21.5678 15.1673L21.5312 15.1877L20.35 15.1427L20.3139 15.1163L20.2194 14.8238L20.2177 14.8127C20.2177 14.7966 20.2065 14.7777 20.1643 14.7558C20.1231 14.7343 20.0637 14.7163 19.9928 14.698C19.967 14.6914 19.9396 14.6846 19.9114 14.6777C19.8642 14.6662 19.8148 14.6541 19.7676 14.641C19.6914 14.6197 19.6156 14.5944 19.5525 14.5604ZM19.7764 14.5652C19.7808 14.5665 19.7852 14.5677 19.7897 14.569C19.8361 14.5819 19.8826 14.5933 19.9286 14.6045C19.9571 14.6115 19.9854 14.6184 20.0134 14.6256C20.0841 14.6439 20.1518 14.6638 20.2021 14.6899C20.2497 14.7147 20.2932 14.7512 20.2962 14.8066L20.381 15.0688L21.5092 15.1118L21.675 14.8029C21.6797 14.7493 21.7233 14.7139 21.7703 14.6898C21.8213 14.6637 21.8899 14.6438 21.9616 14.6256C21.9895 14.6185 22.0178 14.6116 22.0463 14.6048C22.0933 14.5934 22.1408 14.582 22.188 14.5689C22.1924 14.5677 22.1969 14.5665 22.2013 14.5652H19.7764Z" fill="black"/>
<path d="M22.2652 13.2224C22.2652 12.8549 22.281 12.7199 22.3991 12.7199V13.8749C22.1077 13.9799 21.903 14.3249 21.903 14.3249H20.076C20.076 14.3249 19.8712 13.9799 19.5798 13.8749V12.7124C19.7216 12.7124 19.7216 12.8624 19.7216 13.2149L22.2652 13.2224ZM22.3991 13.0724C22.3991 12.6524 22.785 12.6074 22.785 12.6074V12.9824C22.6353 12.9749 22.5645 13.1024 22.5645 13.2824C22.5645 13.4699 22.6826 13.4699 22.6826 13.4699V14.5349H22.3991V13.0724Z" fill="white"/>
<path fill-rule="evenodd" clip-rule="evenodd" d="M22.8242 12.5654V13.0223L22.7827 13.0202C22.7225 13.0172 22.6805 13.0403 22.6515 13.0829C22.6208 13.1279 22.6037 13.1965 22.6037 13.2828C22.6037 13.3688 22.6304 13.4037 22.6486 13.4181C22.6583 13.4258 22.6678 13.4295 22.6745 13.4312C22.6779 13.4321 22.6805 13.4325 22.682 13.4327C22.6825 13.4328 22.6829 13.4328 22.6831 13.4328H22.7218V14.5728H22.3595V13.9328C22.2456 13.9876 22.1464 14.0791 22.0717 14.1638C22.0291 14.2122 21.9952 14.2574 21.9721 14.2905C21.9606 14.3071 21.9517 14.3205 21.9458 14.3298C21.9428 14.3344 21.9406 14.338 21.9391 14.3404L21.9375 14.343L21.9371 14.3436L21.9371 14.3438L21.9258 14.3628H20.0528L20.0415 14.3438L20.0414 14.3436L20.0411 14.343L20.0394 14.3404C20.038 14.338 20.0358 14.3344 20.0328 14.3298C20.0269 14.3205 20.018 14.3071 20.0065 14.2905C19.9833 14.2574 19.9495 14.2122 19.9068 14.1638C19.8207 14.0661 19.702 13.9595 19.5657 13.9104L19.5403 13.9012V12.6753H19.5797C19.623 12.6753 19.6608 12.6871 19.6899 12.7156C19.7174 12.7427 19.7328 12.7807 19.7422 12.8243C19.7596 12.9043 19.7607 13.0223 19.7608 13.1779L22.2257 13.1852C22.2263 13.0222 22.2308 12.9042 22.2492 12.8256C22.2592 12.7831 22.2743 12.7471 22.2994 12.7215C22.3262 12.6943 22.3605 12.6828 22.3989 12.6828H22.4383V12.7827C22.4756 12.7256 22.5222 12.6832 22.5694 12.652C22.6217 12.6174 22.6738 12.5972 22.7127 12.5856C22.7323 12.5798 22.7486 12.5761 22.7603 12.5738C22.7662 12.5727 22.7709 12.5719 22.7742 12.5714C22.7759 12.5711 22.7772 12.5709 22.7782 12.5708L22.7794 12.5707L22.7798 12.5706L22.7799 12.5706C22.7799 12.5706 22.78 12.5706 22.7848 12.6078L22.78 12.5706L22.8242 12.5654ZM22.7454 12.6546C22.7425 12.6554 22.7394 12.6562 22.7362 12.6572C22.7028 12.6671 22.6585 12.6844 22.6143 12.7136C22.5276 12.7709 22.4383 12.876 22.4383 13.0728V14.4978H22.643V13.5003C22.6295 13.4957 22.6138 13.4881 22.5981 13.4757C22.5572 13.4432 22.5249 13.3843 22.5249 13.2828C22.5249 13.1891 22.5432 13.104 22.5854 13.0421C22.6222 12.9881 22.6762 12.9535 22.7454 12.9463V12.6546ZM22.3595 12.7703C22.3586 12.7711 22.3578 12.7719 22.3569 12.7728C22.3459 12.784 22.3348 12.8047 22.3261 12.8419C22.3085 12.9168 22.3044 13.0379 22.3044 13.2228V13.2604L19.682 13.2527V13.2153C19.682 13.037 19.6818 12.9163 19.6651 12.8395C19.6569 12.8015 19.6457 12.7799 19.6333 12.7679C19.6293 12.7639 19.6247 12.7605 19.619 12.7577V13.85C19.7628 13.9091 19.8829 14.02 19.9671 14.1156C20.0121 14.1665 20.0477 14.2141 20.072 14.249C20.0831 14.2648 20.0918 14.278 20.0981 14.2878H21.8804C21.8867 14.278 21.8955 14.2648 21.9065 14.249C21.9309 14.2141 21.9665 14.1665 22.0114 14.1156C22.0956 14.02 22.2157 13.9091 22.3595 13.85V12.7703Z" fill="black"/>
<path d="M19.5797 13.0724C19.5797 12.6524 19.1938 12.6074 19.1938 12.6074V12.9824C19.3435 12.9749 19.4143 13.1024 19.4143 13.2824C19.4143 13.4699 19.2962 13.4699 19.2962 13.4699V14.5349H19.5797V13.0724Z" fill="white"/>
<path fill-rule="evenodd" clip-rule="evenodd" d="M19.1987 12.5706L19.1939 12.6078C19.1987 12.5706 19.1987 12.5706 19.1987 12.5706L19.1988 12.5706L19.1989 12.5706L19.1993 12.5707L19.2005 12.5708C19.2015 12.5709 19.2028 12.5711 19.2045 12.5714C19.2078 12.5719 19.2125 12.5727 19.2184 12.5738C19.2301 12.5761 19.2464 12.5798 19.266 12.5856C19.3049 12.5972 19.357 12.6174 19.4093 12.652C19.5156 12.7222 19.6192 12.8496 19.6192 13.0728V14.5728H19.2569V13.4328H19.2956C19.2958 13.4328 19.2962 13.4328 19.2967 13.4327C19.2982 13.4325 19.3008 13.4321 19.3042 13.4312C19.3109 13.4295 19.3204 13.4258 19.3301 13.4181C19.3483 13.4037 19.375 13.3688 19.375 13.2828C19.375 13.1965 19.3579 13.1279 19.3272 13.0829C19.2982 13.0403 19.2562 13.0172 19.196 13.0202L19.1545 13.0223V12.5654L19.1987 12.5706ZM19.3357 13.5003V14.4978H19.5404V13.0728C19.5404 12.876 19.4511 12.7709 19.3644 12.7136C19.3202 12.6844 19.2759 12.6671 19.2424 12.6572C19.2393 12.6562 19.2362 12.6554 19.2333 12.6546V12.9463C19.3025 12.9535 19.3565 12.9881 19.3933 13.0421C19.4355 13.104 19.4538 13.1891 19.4538 13.2828C19.4538 13.3843 19.4215 13.4432 19.3806 13.4757C19.3649 13.4881 19.3492 13.4957 19.3357 13.5003Z" fill="black"/>
<path fill-rule="evenodd" clip-rule="evenodd" d="M21.6825 10.2006H20.328V10.1406H21.6825V10.2006ZM21.8242 10.6056H20.1705V10.5456H21.8242V10.6056ZM21.9739 11.0931H20.013V11.0331H21.9739V11.0931ZM22.1707 11.6856H19.8476V11.6256H22.1707V11.6856ZM22.1865 12.3606H19.7925V12.3006H22.1865V12.3606Z" fill="black"/>
<path fill-rule="evenodd" clip-rule="evenodd" d="M20.2412 14.5877H19.0679V14.5127H22.8951V14.5877H21.7375V15.0827H20.2412V14.5877ZM20.32 14.5877V15.0077H21.6587V14.5877H20.32Z" fill="black"/>
<path d="M20.1074 13.4407C20.3437 13.7107 20.3122 14.1682 20.3122 14.4382H21.6824C21.6824 14.1682 21.6509 13.7107 21.8872 13.4407H20.1074ZM20.8713 10.3657L20.6823 10.2682V10.0057C20.761 10.0282 20.8398 10.0357 20.8555 10.1557C20.8792 9.98316 20.9343 9.99816 21.0052 9.93066C21.0839 9.99816 21.1233 9.98316 21.1548 10.1557C21.1548 10.0357 21.2493 10.0282 21.3202 10.0057V10.2682L21.139 10.3582L20.8713 10.3657Z" fill="white"/>
<path fill-rule="evenodd" clip-rule="evenodd" d="M21.0038 9.87891L21.0316 9.90271C21.0475 9.91635 21.0615 9.92619 21.0754 9.93599C21.0772 9.93727 21.0791 9.93855 21.0809 9.93984C21.0963 9.95072 21.1127 9.9627 21.1277 9.9793C21.141 9.99413 21.1522 10.0115 21.1619 10.0336C21.1706 10.0253 21.18 10.0183 21.1898 10.0124C21.2103 9.99997 21.2325 9.99202 21.2525 9.98592C21.2617 9.9831 21.271 9.98054 21.2796 9.97816L21.2818 9.97755C21.2912 9.97495 21.2998 9.97256 21.3078 9.97L21.3596 9.95355V10.2908L21.1493 10.3953L20.8619 10.4034L20.643 10.2904V9.95518L20.6937 9.96966C20.7002 9.97151 20.7078 9.97355 20.7158 9.97569C20.7282 9.97899 20.7414 9.98252 20.7525 9.98594C20.7727 9.99214 20.7942 10.0002 20.8142 10.0127C20.8255 10.0197 20.8358 10.0278 20.8449 10.0372C20.8555 10.0128 20.8684 9.99404 20.8839 9.97819C20.8991 9.96261 20.9157 9.95102 20.9303 9.94092C20.9309 9.9405 20.9315 9.94008 20.9321 9.93967C20.9475 9.92895 20.962 9.9187 20.9774 9.90406L21.0038 9.87891ZM21.0062 9.98019C20.9962 9.98792 20.9869 9.99442 20.9785 10.0002C20.9625 10.0114 20.9514 10.0192 20.9416 10.0292C20.924 10.0472 20.906 10.0776 20.8947 10.1604L20.8166 10.1602C20.8099 10.1091 20.7912 10.088 20.771 10.0754C20.7595 10.0682 20.7456 10.0626 20.7284 10.0573C20.7261 10.0566 20.7239 10.056 20.7218 10.0553V10.2457L20.8808 10.3278L21.1289 10.3208L21.2809 10.2453V10.056C21.2794 10.0565 21.278 10.0569 21.2765 10.0573C21.2588 10.0627 21.2441 10.0684 21.2321 10.0757C21.2206 10.0826 21.2118 10.091 21.2056 10.1022C21.1992 10.1136 21.1943 10.1303 21.1943 10.1556L21.1161 10.162C21.1007 10.0775 21.0844 10.0464 21.0679 10.0281C21.0592 10.0185 21.0491 10.0108 21.034 10.0001C21.0323 9.99887 21.0305 9.99765 21.0287 9.99638C21.0219 9.99159 21.0143 9.98628 21.0062 9.98019ZM20.0234 13.4031H21.9713L21.9175 13.4646C21.8067 13.5913 21.7567 13.7644 21.7354 13.9436C21.7184 14.0866 21.7199 14.2291 21.7212 14.3506C21.7216 14.3812 21.7219 14.4105 21.7219 14.4381V14.4756H20.2729V14.4381C20.2729 14.4105 20.2732 14.3812 20.2735 14.3506C20.2748 14.2291 20.2764 14.0866 20.2593 13.9436C20.238 13.7644 20.1881 13.5913 20.0773 13.4646L20.0234 13.4031ZM20.1854 13.4781C20.277 13.6121 20.3186 13.7758 20.3376 13.9351C20.3552 14.0832 20.3536 14.2318 20.3523 14.3534C20.3521 14.3697 20.3519 14.3854 20.3518 14.4006H21.643C21.6428 14.3854 21.6427 14.3697 21.6425 14.3534C21.6412 14.2318 21.6395 14.0832 21.6572 13.9351C21.6761 13.7758 21.7178 13.6121 21.8094 13.4781H20.1854Z" fill="black"/>
<path d="M20.8555 10.7931L20.5405 10.5831V10.3506C20.6587 10.3731 20.7768 10.3881 20.7925 10.5156C20.824 10.3281 20.8949 10.2381 21.0052 10.1631C21.1075 10.2381 21.1784 10.3281 21.2178 10.5156C21.2257 10.3881 21.3517 10.3731 21.454 10.3506V10.5906L21.1469 10.7931H20.8555Z" fill="white"/>
<path fill-rule="evenodd" clip-rule="evenodd" d="M21.0061 10.1162L21.0292 10.1332C21.0832 10.1727 21.1302 10.2172 21.1688 10.2774C21.1914 10.3127 21.2107 10.3527 21.2269 10.3994C21.2432 10.3828 21.2624 10.3702 21.2823 10.3603C21.3252 10.339 21.3775 10.3281 21.4212 10.3189C21.4296 10.3172 21.4376 10.3155 21.4452 10.3138L21.4935 10.3032V10.61L21.1593 10.8304H20.8432L20.5012 10.6024V10.3046L20.5483 10.3136C20.5546 10.3148 20.5609 10.316 20.5674 10.3172C20.619 10.3268 20.6763 10.3375 20.7229 10.3601C20.7435 10.3701 20.7629 10.3829 20.7797 10.3995C20.7945 10.3529 20.8131 10.3128 20.8358 10.2774C20.8747 10.2167 20.9242 10.1719 20.9823 10.1324L21.0061 10.1162ZM20.903 10.3165C20.8709 10.3665 20.8467 10.431 20.8315 10.5213L20.7535 10.5198C20.7502 10.4934 20.742 10.4749 20.7314 10.4611C20.7207 10.4472 20.7061 10.4362 20.6871 10.4269C20.6576 10.4126 20.6216 10.4042 20.58 10.3961V10.5634L20.868 10.7554H21.1347L21.4147 10.5707V10.3972C21.3789 10.405 21.3463 10.4131 21.3187 10.4268C21.3001 10.436 21.2859 10.447 21.2759 10.4605C21.2661 10.4739 21.2587 10.4918 21.2572 10.5176L21.1792 10.5227C21.1602 10.4321 21.134 10.3671 21.1015 10.3165C21.0745 10.2743 21.0424 10.2409 21.0044 10.2103C20.9633 10.241 20.9299 10.2745 20.903 10.3165Z" fill="black"/>
<path d="M20.8319 11.4603L20.4775 11.1603V10.8078C20.6035 10.8378 20.7453 10.8528 20.761 11.0403C20.8004 10.7778 20.8791 10.6353 20.9973 10.5303C21.1233 10.6353 21.202 10.7778 21.2493 11.0403C21.265 10.8528 21.4068 10.8378 21.5328 10.8078V11.1603L21.1705 11.4603H20.8319ZM21.4934 11.8578L21.1784 12.2853H20.8083L20.4854 11.8578H21.4934ZM20.2964 12.5703C20.4539 12.6528 20.5169 12.8253 20.5326 13.1403H21.4461C21.4619 12.8253 21.5249 12.6528 21.6824 12.5703H20.2964Z" fill="white"/>
<path fill-rule="evenodd" clip-rule="evenodd" d="M20.9963 10.4795L21.0231 10.5018C21.1332 10.5935 21.2077 10.7112 21.2576 10.8962C21.2769 10.8696 21.3012 10.8489 21.3291 10.8327C21.3791 10.8036 21.4403 10.7898 21.4933 10.778C21.5036 10.7757 21.5136 10.7734 21.5231 10.7711L21.5721 10.7595V11.1771L21.1852 11.4975H20.8168L20.4381 11.1769V10.7595L20.487 10.7711C20.4965 10.7734 20.5065 10.7757 20.5168 10.778C20.5698 10.7898 20.631 10.8036 20.6811 10.8327C20.7076 10.8482 20.7309 10.8677 20.7498 10.8925C20.7952 10.7098 20.8681 10.5935 20.9703 10.5026L20.9963 10.4795ZM20.9981 10.5819C20.9023 10.6774 20.8353 10.8093 20.7999 11.0453L20.7217 11.043C20.7147 10.9602 20.6815 10.9209 20.64 10.8967C20.6052 10.8764 20.5638 10.8659 20.5168 10.8552V11.1432L20.8468 11.4225H21.1557L21.4933 11.1429V10.8552C21.4464 10.8659 21.405 10.8764 21.3701 10.8967C21.3286 10.9209 21.2954 10.9602 21.2884 11.043L21.2104 11.0464C21.1677 10.8091 21.0999 10.6773 20.9981 10.5819ZM20.4085 11.82H21.5691L21.1988 12.3225H20.788L20.4085 11.82ZM20.5621 11.895L20.8284 12.2475H21.1578L21.4176 11.895H20.5621ZM20.2773 12.6029L20.2963 12.5325H21.6823L21.7013 12.6029C21.5641 12.6748 21.5011 12.8271 21.4854 13.1418L21.4836 13.1775H20.495L20.4932 13.1418C20.4775 12.8271 20.4145 12.6748 20.2773 12.6029ZM20.4111 12.6075C20.5119 12.7096 20.5551 12.8713 20.5699 13.1025H21.4088C21.4235 12.8713 21.4667 12.7096 21.5676 12.6075H20.4111Z" fill="black"/>
<path d="M21.698 11.85V11.43C21.6302 11.4438 21.5672 11.4737 21.5149 11.517C21.4625 11.5603 21.4226 11.6155 21.3988 11.6775C21.3988 11.5275 21.2019 11.205 20.9893 11.04C20.7766 11.22 20.5719 11.52 20.5798 11.67C20.5404 11.5575 20.438 11.4675 20.2805 11.43V11.8575L21.698 11.85Z" fill="white"/>
<path fill-rule="evenodd" clip-rule="evenodd" d="M20.9632 11.0128L21.0142 11.0117C21.125 11.0977 21.2301 11.2232 21.3076 11.3458C21.3464 11.4073 21.3787 11.4688 21.4015 11.5251C21.4071 11.5389 21.4121 11.5525 21.4166 11.5659C21.4373 11.5378 21.4617 11.5121 21.4891 11.4894C21.5465 11.442 21.6156 11.4092 21.6899 11.3941L21.7375 11.4308V11.8508L21.6983 11.8883L20.2808 11.8958L20.2412 11.8583V11.4308L20.2901 11.3944C20.4093 11.4228 20.5013 11.48 20.5607 11.5559C20.5646 11.5443 20.5691 11.5325 20.5739 11.5207C20.5965 11.4659 20.6292 11.4066 20.6686 11.3471C20.7471 11.2281 20.8538 11.1053 20.9632 11.0128ZM20.9903 11.0908C20.8958 11.1753 20.8041 11.2827 20.7352 11.387C20.6978 11.4437 20.6675 11.4988 20.6473 11.5481C20.6267 11.598 20.6176 11.6391 20.6192 11.6689L20.5425 11.6826C20.512 11.5956 20.4379 11.5214 20.32 11.4812V11.8206L21.6587 11.8135V11.4803C21.6156 11.495 21.5755 11.5173 21.5407 11.5461C21.4934 11.5852 21.4573 11.6351 21.4358 11.6912L21.3595 11.6783C21.3595 11.6475 21.3491 11.6042 21.328 11.5521C21.3072 11.5006 21.277 11.443 21.2401 11.3845C21.1722 11.277 21.083 11.1689 20.9903 11.0908Z" fill="black"/>
<path d="M21.761 12.5707V12.1507C21.5957 12.1957 21.4854 12.2782 21.4382 12.3982C21.4382 12.2482 21.2255 11.9257 20.9893 11.7607C20.753 11.9482 20.5325 12.2407 20.5404 12.3982C20.501 12.2857 20.3829 12.1957 20.2175 12.1507V12.5782L21.761 12.5707Z" fill="white"/>
<path fill-rule="evenodd" clip-rule="evenodd" d="M20.9641 11.7319L21.0126 11.7305C21.1355 11.8162 21.2507 11.9418 21.3353 12.0645C21.3777 12.126 21.4129 12.1876 21.4376 12.2441C21.4445 12.2596 21.4506 12.275 21.4559 12.2901C21.521 12.2075 21.6218 12.1496 21.7503 12.1147L21.8005 12.1507V12.5707L21.7613 12.6082L20.2178 12.6157L20.1782 12.5782V12.1507L20.2284 12.1147C20.3528 12.1485 20.456 12.2079 20.5208 12.2866C20.5257 12.2725 20.5314 12.2583 20.5378 12.2439C20.5623 12.1885 20.598 12.1291 20.6409 12.0695C20.7266 11.9504 20.8432 11.8279 20.9641 11.7319ZM20.9907 11.8088C20.8839 11.8973 20.7818 12.0063 20.7058 12.1119C20.665 12.1686 20.6323 12.2235 20.6103 12.2731C20.5881 12.3232 20.5782 12.3651 20.5798 12.3964L20.5031 12.4101C20.4731 12.3242 20.3871 12.2484 20.257 12.2024V12.5405L21.7217 12.5334V12.2022C21.5933 12.2469 21.512 12.3176 21.4751 12.4114L21.3988 12.3982C21.3988 12.368 21.3878 12.325 21.365 12.273C21.3425 12.2216 21.3098 12.1641 21.2695 12.1057C21.1945 11.9969 21.0952 11.8874 20.9907 11.8088Z" fill="black"/>
<path d="M21.9501 13.448V12.953C21.7861 13.0018 21.6445 13.1023 21.5485 13.238C21.5485 12.9755 21.2335 12.563 20.9894 12.4355C20.7374 12.5705 20.4303 12.9905 20.4303 13.238C20.3318 13.1014 20.1874 13.0009 20.0208 12.953V13.448H21.9501Z" fill="white"/>
<path fill-rule="evenodd" clip-rule="evenodd" d="M20.9701 12.4025L21.0084 12.4023C21.1379 12.47 21.2819 12.6102 21.393 12.7647C21.4798 12.8853 21.5504 13.02 21.5768 13.1414C21.6729 13.0367 21.7979 12.9587 21.9385 12.9169L21.9896 12.9527V13.4477L21.9502 13.4852H20.0208L19.9814 13.4477V12.9527L20.0322 12.9168C20.1759 12.9581 20.3039 13.0366 20.4024 13.1428C20.4287 13.0262 20.4975 12.8936 20.5827 12.7733C20.6928 12.618 20.8367 12.474 20.9701 12.4025ZM20.9897 12.4786C20.8758 12.5457 20.7488 12.673 20.648 12.8153C20.5409 12.9664 20.4697 13.1255 20.4697 13.2377L20.3979 13.2589C20.3146 13.1434 20.1967 13.0551 20.0602 13.0052V13.4102H21.9108V13.0058C21.7771 13.0564 21.6621 13.1444 21.5812 13.2587L21.5092 13.2377C21.5092 13.118 21.436 12.957 21.3281 12.807C21.2266 12.666 21.1 12.5423 20.9897 12.4786Z" fill="black"/>
<path d="M21.8399 14.5505V14.0405C21.6509 14.108 21.6037 14.273 21.5407 14.393C21.5643 13.8755 21.2414 13.328 20.9894 13.1855C20.7374 13.328 20.4067 13.8905 20.4382 14.3855C20.3752 14.2805 20.32 14.108 20.1389 14.0405V14.543L21.8399 14.5505Z" fill="white"/>
<path fill-rule="evenodd" clip-rule="evenodd" d="M20.572 13.6372C20.6836 13.4143 20.8335 13.2302 20.9694 13.1533H21.0096C21.1454 13.2301 21.2934 13.4105 21.404 13.6326C21.4927 13.8105 21.5594 14.0194 21.5769 14.2315C21.6254 14.1429 21.6955 14.0521 21.8262 14.0055L21.8794 14.0406V14.5506L21.8398 14.5881L20.1388 14.5806L20.0996 14.5431V14.0406L20.1533 14.0056C20.254 14.0432 20.3189 14.1098 20.3659 14.1785C20.3783 14.1966 20.3896 14.215 20.3999 14.2331C20.4149 14.0257 20.4823 13.8166 20.572 13.6372ZM20.6431 13.6695C20.5348 13.8859 20.4623 14.1439 20.4775 14.3833L20.404 14.4042C20.3913 14.3829 20.3788 14.3589 20.3662 14.3347C20.3625 14.3277 20.3588 14.3206 20.3552 14.3137C20.3385 14.282 20.3208 14.25 20.2999 14.2195C20.2684 14.1735 20.2301 14.1316 20.1784 14.1011V14.5057L21.8006 14.5129V14.0995C21.6985 14.1557 21.6539 14.2488 21.6091 14.3427C21.5983 14.3652 21.5876 14.3877 21.576 14.4098L21.5014 14.3914C21.5129 14.1402 21.4401 13.88 21.3329 13.6648C21.2312 13.4605 21.1014 13.3025 20.9895 13.23C20.8775 13.3028 20.7458 13.4642 20.6431 13.6695Z" fill="black"/>
<path d="M21.7139 15.3154V14.8054C21.517 14.8504 21.5091 14.9179 21.4461 15.0304C21.4698 14.7229 21.2414 14.3704 20.9894 14.2354C20.7374 14.3704 20.5169 14.7229 20.5326 15.0304C20.4696 14.9179 20.4618 14.8504 20.2649 14.8054V15.3154H21.7139Z" fill="white"/>
<path fill-rule="evenodd" clip-rule="evenodd" d="M20.9895 14.1924L21.0088 14.2027C21.1423 14.2743 21.2671 14.4017 21.3554 14.5497C21.4185 14.6553 21.4641 14.7733 21.4806 14.8915C21.4867 14.8833 21.4933 14.8753 21.5006 14.8676C21.5424 14.8231 21.6022 14.7924 21.7048 14.7689L21.7533 14.7578V15.3529H20.2256V14.7578L20.2742 14.7689C20.3767 14.7924 20.4365 14.8231 20.4783 14.8676C20.4865 14.8762 20.4938 14.8852 20.5004 14.8943C20.5179 14.7754 20.5635 14.6564 20.6264 14.5498C20.7136 14.402 20.8364 14.2744 20.9702 14.2027L20.9895 14.1924ZM20.695 14.5866C20.613 14.7255 20.5646 14.8835 20.572 15.0286L20.498 15.0481C20.4898 15.0335 20.4826 15.0197 20.4759 15.007C20.4753 15.0059 20.4748 15.0047 20.4742 15.0036C20.4682 14.9921 20.4627 14.9816 20.4572 14.9716C20.4451 14.9499 20.4338 14.9326 20.4197 14.9176C20.3978 14.8944 20.3658 14.8733 20.3043 14.8546V15.2779H21.6746V14.8546C21.6132 14.8733 21.5811 14.8944 21.5592 14.9176C21.5451 14.9326 21.5338 14.9499 21.5218 14.9716C21.5162 14.9816 21.5108 14.9921 21.5047 15.0036C21.5042 15.0047 21.5036 15.0059 21.503 15.007C21.4963 15.0197 21.4891 15.0335 21.481 15.0481L21.4069 15.0277C21.418 14.8833 21.3699 14.7256 21.287 14.5868C21.2085 14.4554 21.1011 14.3443 20.9895 14.2789C20.8782 14.3442 20.7726 14.4552 20.695 14.5866Z" fill="black"/>
<path d="M13.4135 17.1903V15.6603C13.3584 15.4653 13.1773 15.2853 13.0513 15.2553V13.9053L13.3426 14.0553L13.6813 15.4728V17.1978L13.4135 17.1903Z" fill="white"/>
<path fill-rule="evenodd" clip-rule="evenodd" d="M13.012 13.8428L13.3771 14.0308L13.7207 15.469V17.2368L13.3742 17.2271V15.6657C13.348 15.5765 13.2932 15.4897 13.2295 15.4211C13.1639 15.3505 13.0936 15.3044 13.0418 15.2921L13.012 15.285V13.8428ZM13.0907 13.9686V15.2284C13.1568 15.2528 13.2276 15.3059 13.2885 15.3714C13.3596 15.448 13.4222 15.5467 13.4516 15.6509L13.453 15.6557V17.1543L13.642 17.1595V15.4774L13.3083 14.0806L13.0907 13.9686Z" fill="black"/>
<path d="M13.4135 17.1979V15.6604C13.3584 15.4654 13.1773 15.2854 13.0513 15.2554V13.8154C13.2481 13.8154 13.3426 14.0554 13.3426 14.0554L13.6813 15.4729V17.1904L13.4135 17.1979Z" fill="white"/>
<path fill-rule="evenodd" clip-rule="evenodd" d="M13.012 13.7783H13.0513C13.168 13.7783 13.251 13.8494 13.3021 13.913C13.3281 13.9454 13.3473 13.9775 13.36 14.0014C13.3664 14.0134 13.3712 14.0235 13.3744 14.0307C13.3761 14.0343 13.3773 14.0371 13.3781 14.0392L13.3791 14.0416L13.3794 14.0423L13.3795 14.0425L13.3796 14.0426C13.3796 14.0426 13.3796 14.0427 13.3427 14.0558L13.3796 14.0426L13.3805 14.045L13.7207 15.4691V17.2272L13.3742 17.2369V15.6659C13.348 15.5767 13.2932 15.4898 13.2295 15.4213C13.1639 15.3506 13.0936 15.3045 13.0418 15.2922L13.012 15.2851V13.7783ZM13.305 14.0669C13.3043 14.0654 13.3034 14.0632 13.3021 14.0603C13.2994 14.0544 13.2953 14.0457 13.2897 14.0352C13.2786 14.0142 13.2618 13.9863 13.2396 13.9586C13.2019 13.9118 13.1524 13.8701 13.0907 13.8574V15.2285C13.1568 15.253 13.2276 15.306 13.2885 15.3716C13.3596 15.4481 13.4222 15.5469 13.4516 15.6511L13.453 15.6559V17.1597L13.642 17.1544V15.4775L13.305 14.0669Z" fill="black"/>
<path d="M13.2009 17.5876C13.3348 17.5351 13.5317 17.3701 13.5317 17.2126V15.2926L13.4372 15.1426H16.8786L16.7447 15.2926V17.2126C16.7505 17.2921 16.7783 17.3687 16.8253 17.4345C16.8724 17.5004 16.9369 17.5532 17.0124 17.5876H13.2009Z" fill="white"/>
<path fill-rule="evenodd" clip-rule="evenodd" d="M13.3677 15.1055H16.9638L16.7842 15.3068V17.2116C16.7896 17.2841 16.8151 17.3538 16.858 17.4138C16.9011 17.4742 16.9603 17.5227 17.0295 17.5541L17.0125 17.6255H13.201L13.186 17.5533C13.2471 17.5294 13.3252 17.4784 13.3878 17.4143C13.4511 17.3495 13.4924 17.2777 13.4924 17.213V15.3034L13.3677 15.1055ZM13.5068 15.1805L13.5712 15.2826V17.213C13.5712 17.3057 13.514 17.3952 13.4454 17.4654C13.4147 17.4968 13.3805 17.5256 13.3456 17.5505H16.8811C16.8477 17.5229 16.818 17.4912 16.7929 17.456C16.7419 17.3846 16.7118 17.3017 16.7055 17.2156L16.7054 17.2143V15.2792L16.7935 15.1805H13.5068Z" fill="black"/>
<path d="M16.3115 17.5882C16.1776 17.5357 15.9807 17.3707 15.9807 17.2132V15.3907L16.2642 15.1357H13.9332L14.2167 15.3907V17.2132C14.2167 17.3707 14.0199 17.5357 13.886 17.5882H16.3115Z" fill="white"/>
<path fill-rule="evenodd" clip-rule="evenodd" d="M13.8342 15.0977H16.3633L16.0201 15.4063V17.2127C16.0201 17.2774 16.0614 17.3492 16.1248 17.414C16.1874 17.478 16.2655 17.529 16.3265 17.553L16.3115 17.6252H13.886L13.871 17.553C13.9321 17.529 14.0102 17.478 14.0728 17.414C14.1361 17.3492 14.1774 17.2774 14.1774 17.2127V15.4063L13.8342 15.0977ZM14.0323 15.1727L14.2561 15.374V17.2127C14.2561 17.3054 14.199 17.3949 14.1304 17.4651C14.0997 17.4965 14.0655 17.5253 14.0306 17.5502H16.1669C16.132 17.5253 16.0978 17.4965 16.0671 17.4651C15.9985 17.3949 15.9414 17.3054 15.9414 17.2127V15.374L16.1652 15.1727H14.0323Z" fill="black"/>
<path d="M15.9887 17.5879C15.8549 17.5354 15.6501 17.3704 15.6501 17.2129V15.5629L15.8391 15.3154H14.3586L14.5476 15.5629V17.2129C14.5476 17.3704 14.3507 17.5354 14.209 17.5879H15.9887Z" fill="white"/>
<path fill-rule="evenodd" clip-rule="evenodd" d="M14.2812 15.2783H15.9163L15.6894 15.5755V17.2133C15.6894 17.2776 15.7321 17.3492 15.7975 17.4142C15.8621 17.4784 15.9423 17.5296 16.0036 17.5536L15.9886 17.6258H14.2089L14.1946 17.5534C14.2594 17.5294 14.3393 17.4784 14.4027 17.4144C14.4668 17.3498 14.5081 17.278 14.5081 17.2133V15.5755L14.2812 15.2783ZM14.4358 15.3533L14.5869 15.5511V17.2133C14.5869 17.3061 14.5297 17.3956 14.4599 17.4659C14.4289 17.4973 14.3941 17.526 14.3584 17.5508H15.8425C15.8071 17.5261 15.7721 17.4974 15.7407 17.4661C15.6703 17.3962 15.6106 17.3066 15.6106 17.2133V15.5511L15.7617 15.3533H14.4358Z" fill="black"/>
<path d="M14.7523 15.3154H15.4531V17.5954H14.7444L14.7523 15.3154Z" fill="white"/>
<path fill-rule="evenodd" clip-rule="evenodd" d="M14.7132 15.2783H15.4927V17.6333H14.7051L14.7132 15.2783ZM14.7917 15.3533L14.7841 17.5583H15.414V15.3533H14.7917Z" fill="black"/>
<path d="M13.7837 15.9451H14.0672V17.1826H13.7837V15.9451ZM16.2092 15.9451H16.4848V17.1826H16.2013L16.2092 15.9451ZM13.5396 13.8601H13.8861V15.1351H13.5396V13.8601ZM13.5396 13.6201H13.8782V13.8601H13.5396V13.6201ZM16.3431 14.1376H16.8234V15.1126H16.3431V14.1376Z" fill="white"/>
<path fill-rule="evenodd" clip-rule="evenodd" d="M13.5002 13.6205L13.5396 13.583H13.8782L13.9176 13.6205V13.853L13.9255 13.8605V15.1355L13.8861 15.173H13.5396L13.5002 15.1355V13.6205ZM13.579 13.898V15.098H13.8467V13.898H13.579ZM13.8389 13.823H13.579V13.658H13.8389V13.823ZM16.3037 14.138L16.3431 14.1005H16.8235L16.8629 14.138V15.113L16.8235 15.1505H16.3431L16.3037 15.113V14.138ZM16.3825 14.1755V15.0755H16.7841V14.1755H16.3825ZM13.7444 15.9455L13.7837 15.908H14.0672L14.1066 15.9455V17.183L14.0672 17.2205H13.7837L13.7444 17.183V15.9455ZM13.8231 15.983V17.1455H14.0279V15.983H13.8231ZM16.1699 15.9453L16.2092 15.908H16.4849L16.5242 15.9455V17.183L16.4849 17.2205H16.2014L16.162 17.1828L16.1699 15.9453ZM16.2484 15.983L16.241 17.1455H16.4455V15.983H16.2484Z" fill="black"/>
<path d="M13.8781 15.1201V12.9451C13.9726 12.9451 13.9883 13.2676 14.2088 13.2676C14.327 13.2676 14.3191 13.1326 14.2482 13.0276C14.1931 12.9301 14.1222 12.8026 14.2167 12.5551C14.2876 12.7426 14.4608 12.8026 14.4293 12.6901C14.3742 12.4876 14.2088 12.4501 14.3348 12.1426C14.3742 12.3976 14.5475 12.3901 14.5081 12.2401C14.4608 12.0676 14.3585 11.9926 14.4845 11.7526C14.5553 12.0301 14.642 12.0151 14.642 11.8426C14.642 11.5876 14.642 11.3176 14.9727 11.2201C14.9727 11.2201 14.9963 10.9951 15.1223 10.9951C15.2405 10.9951 15.2641 11.2201 15.2641 11.2201C15.6027 11.3176 15.5948 11.5951 15.5948 11.8426C15.5948 12.0151 15.6815 12.0301 15.7523 11.7526C15.8783 11.9926 15.776 12.0676 15.7287 12.2401C15.6893 12.3901 15.8626 12.3976 15.902 12.1426C16.028 12.4501 15.8626 12.4876 15.8075 12.6901C15.776 12.8026 15.9492 12.7426 16.0201 12.5551C16.1146 12.8026 16.0437 12.9301 15.9886 13.0276C15.9256 13.1326 15.9098 13.2676 16.028 13.2676C16.2485 13.2676 16.2642 12.9526 16.3587 12.9526V15.1201H13.8781ZM13.3347 13.4776V15.1351H13.5316V13.4776C13.4607 13.4401 13.3977 13.4401 13.3347 13.4776Z" fill="white"/>
<path fill-rule="evenodd" clip-rule="evenodd" d="M15.012 11.2243L15.0094 11.249L14.9844 11.2563C14.8312 11.3015 14.7578 11.3845 14.7205 11.4852C14.6818 11.5895 14.6814 11.7139 14.6814 11.843C14.6814 11.8881 14.6759 11.9271 14.6638 11.955C14.6578 11.9689 14.6487 11.9836 14.6342 11.9937C14.6178 12.0052 14.5976 12.0085 14.5778 12.0024C14.5603 11.9971 14.5463 11.9854 14.5354 11.9731C14.5242 11.9604 14.5136 11.9441 14.5037 11.925C14.4952 11.9085 14.4867 11.8891 14.4784 11.8667C14.4594 11.9276 14.4607 11.9732 14.4699 12.0142C14.477 12.046 14.4891 12.0764 14.5035 12.1118L14.5049 12.1152C14.5187 12.1491 14.5342 12.187 14.5463 12.231L14.5464 12.2314C14.5576 12.2741 14.5558 12.3142 14.5369 12.3438C14.5272 12.3591 14.5131 12.3712 14.4952 12.3778C14.4774 12.3843 14.4585 12.3844 14.4407 12.3798C14.4059 12.3708 14.3747 12.344 14.3506 12.3065C14.3448 12.2976 14.3393 12.2878 14.3341 12.2773C14.3304 12.2968 14.3286 12.3146 14.3281 12.3308C14.3269 12.3745 14.3361 12.4091 14.3505 12.4415C14.3615 12.4663 14.3749 12.4887 14.3901 12.5141C14.3959 12.5238 14.4019 12.5339 14.4082 12.5447C14.4302 12.5827 14.4525 12.6261 14.4675 12.681C14.4763 12.7126 14.4769 12.7545 14.4395 12.7755C14.4229 12.7848 14.4046 12.7859 14.3892 12.7838C14.3736 12.7817 14.3579 12.7761 14.343 12.7686C14.3039 12.7488 14.261 12.7109 14.2255 12.6577C14.2071 12.7326 14.2069 12.7925 14.2153 12.842C14.2268 12.9096 14.2549 12.9607 14.2823 13.009C14.3202 13.0656 14.3435 13.1332 14.3387 13.1904C14.3363 13.2197 14.326 13.2492 14.3029 13.2716C14.2793 13.2945 14.2467 13.3055 14.2089 13.3055C14.0735 13.3055 14.0047 13.2047 13.9612 13.1238C13.9519 13.1064 13.9432 13.089 13.9352 13.0729C13.9337 13.0698 13.9321 13.0667 13.9306 13.0636C13.926 13.0544 13.9217 13.0458 13.9175 13.0379V15.083H16.3194V13.0436C16.3152 13.0515 16.3108 13.06 16.3062 13.0691C16.3047 13.072 16.3031 13.075 16.3016 13.0781C16.2936 13.0938 16.2849 13.1109 16.2755 13.1279C16.2319 13.2073 16.1629 13.3055 16.028 13.3055C15.9903 13.3055 15.9578 13.2945 15.9345 13.271C15.912 13.2482 15.9029 13.2185 15.9011 13.1896C15.8975 13.1329 15.9208 13.0657 15.9542 13.0098C15.9817 12.9613 16.0101 12.91 16.0217 12.842C16.0301 12.7925 16.0298 12.7326 16.0114 12.6577C15.9759 12.7109 15.9331 12.7488 15.8939 12.7686C15.8791 12.7761 15.8634 12.7817 15.8478 12.7838C15.8323 12.7859 15.814 12.7848 15.7975 12.7755C15.7601 12.7545 15.7606 12.7125 15.7695 12.681C15.7844 12.6261 15.8068 12.5827 15.8288 12.5447C15.835 12.5339 15.8411 12.5238 15.8468 12.5141C15.862 12.4887 15.8754 12.4663 15.8864 12.4415C15.9009 12.4091 15.91 12.3745 15.9088 12.3308C15.9084 12.3146 15.9065 12.2968 15.9028 12.2773C15.8977 12.2878 15.8922 12.2976 15.8864 12.3065C15.8622 12.344 15.831 12.3708 15.7962 12.3798C15.7784 12.3844 15.7595 12.3843 15.7417 12.3778C15.7239 12.3712 15.7097 12.3591 15.7 12.3438C15.6812 12.3142 15.6794 12.2741 15.6906 12.2314L15.6907 12.231C15.7027 12.187 15.7182 12.1491 15.732 12.1152L15.7334 12.1118C15.7478 12.0764 15.7599 12.046 15.7671 12.0142C15.7763 11.9732 15.7776 11.9276 15.7586 11.8667C15.7502 11.8891 15.7418 11.9085 15.7332 11.925C15.7233 11.9441 15.7128 11.9604 15.7015 11.9731C15.6907 11.9854 15.6767 11.9971 15.6592 12.0024C15.6393 12.0085 15.6191 12.0052 15.6027 11.9937C15.5883 11.9836 15.5791 11.9689 15.5731 11.955C15.5611 11.9271 15.5555 11.8881 15.5555 11.843C15.5555 11.8383 15.5555 11.8337 15.5555 11.829C15.5556 11.708 15.5556 11.5891 15.5193 11.4876C15.4829 11.3862 15.4096 11.3016 15.2528 11.2564L15.2276 11.2492L15.225 11.2243L15.2249 11.2239L15.2248 11.2223C15.2246 11.2209 15.2243 11.2187 15.2239 11.2159C15.2231 11.2102 15.2218 11.202 15.2199 11.1921C15.2161 11.1722 15.2099 11.1461 15.2004 11.1204C15.1908 11.0943 15.1787 11.071 15.1644 11.055C15.1506 11.0394 15.137 11.033 15.1224 11.033C15.1049 11.033 15.0897 11.0403 15.0751 11.0558C15.0599 11.0718 15.0473 11.095 15.0373 11.1209C15.0275 11.1465 15.0211 11.1725 15.0171 11.1923C15.0152 11.2022 15.0139 11.2103 15.0131 11.216C15.0126 11.2188 15.0124 11.221 15.0122 11.2224L15.012 11.2239L15.012 11.2243ZM15.2998 11.1921C15.2991 11.188 15.2983 11.1834 15.2974 11.1786C15.2931 11.1563 15.286 11.1262 15.2747 11.0956C15.2637 11.0655 15.2477 11.0325 15.2244 11.0064C15.2006 10.9797 15.1669 10.958 15.1224 10.958C15.077 10.958 15.0419 10.9788 15.0166 11.0056C14.9919 11.0317 14.975 11.0648 14.9634 11.0951C14.9516 11.1258 14.9442 11.1561 14.9398 11.1784C14.9388 11.1834 14.9379 11.188 14.9372 11.1922C14.7752 11.2463 14.6896 11.3434 14.6462 11.4602C14.6027 11.5779 14.6027 11.7145 14.6027 11.8394V11.843C14.6027 11.8799 14.5984 11.9059 14.5929 11.9215C14.5876 11.9149 14.5813 11.9052 14.5744 11.8918C14.558 11.8603 14.5401 11.8121 14.5228 11.7441L14.4974 11.6447L14.4493 11.7362C14.3832 11.8622 14.3749 11.9496 14.3929 12.0299C14.4015 12.0684 14.416 12.1042 14.4301 12.1389L14.4311 12.1413C14.4451 12.1757 14.4591 12.2101 14.47 12.2498C14.4784 12.282 14.4733 12.2991 14.4696 12.305C14.4687 12.3064 14.468 12.3071 14.4676 12.3074C14.4674 12.3075 14.4673 12.3076 14.4672 12.3077C14.467 12.3078 14.4669 12.3078 14.4668 12.3078C14.4668 12.3079 14.4653 12.3085 14.4614 12.3075C14.4529 12.3052 14.4359 12.2955 14.4177 12.2673C14.4 12.2398 14.3831 12.1976 14.3739 12.1376L14.3522 11.9975L14.2982 12.1294C14.2656 12.2089 14.2509 12.2733 14.2494 12.3288C14.2479 12.3849 14.2599 12.4301 14.278 12.4707C14.2909 12.4999 14.3077 12.5279 14.3236 12.5545C14.3289 12.5635 14.3342 12.5723 14.3392 12.5809C14.3597 12.6164 14.3787 12.6536 14.3913 12.6999L14.3914 12.7002C14.3922 12.7032 14.3928 12.7058 14.3932 12.7079C14.3896 12.7068 14.3852 12.705 14.3799 12.7024C14.3419 12.6832 14.2866 12.6295 14.2538 12.5428L14.217 12.4453L14.1798 12.5427C14.1306 12.6715 14.1235 12.7717 14.1376 12.854C14.1515 12.9358 14.186 12.997 14.2136 13.0458L14.2143 13.0471L14.2152 13.0483C14.2476 13.0964 14.2633 13.1483 14.2602 13.1844C14.2587 13.202 14.2532 13.2128 14.2468 13.219C14.2409 13.2247 14.2302 13.2305 14.2089 13.2305C14.1238 13.2305 14.0745 13.17 14.0313 13.0897C14.0226 13.0734 14.0146 13.0572 14.0066 13.0411C14.005 13.0379 14.0034 13.0347 14.0018 13.0315C13.9924 13.0126 13.9828 12.9938 13.9729 12.9772C13.9631 12.961 13.9515 12.9446 13.9373 12.932C13.9227 12.9189 13.903 12.908 13.8782 12.908H13.8388V15.158H16.3982V12.9155H16.3588C16.3343 12.9155 16.3147 12.926 16.2999 12.9389C16.2857 12.9512 16.2741 12.9673 16.2643 12.9832C16.2543 12.9994 16.2447 13.0179 16.2353 13.0363C16.2337 13.0394 16.2321 13.0426 16.2305 13.0457C16.2225 13.0614 16.2145 13.0772 16.2058 13.0931C16.1628 13.1712 16.1136 13.2305 16.028 13.2305C16.0067 13.2305 15.9969 13.2247 15.9918 13.2196C15.9861 13.2137 15.9809 13.2031 15.9797 13.1851C15.9774 13.1482 15.9934 13.0956 16.0228 13.0466L16.0231 13.0462L16.0233 13.0458C16.0509 12.997 16.0854 12.9358 16.0994 12.854C16.1134 12.7717 16.1063 12.6715 16.0572 12.5427L16.02 12.4453L15.9831 12.5428C15.9503 12.6295 15.895 12.6832 15.857 12.7024C15.8518 12.705 15.8474 12.7068 15.8437 12.7079C15.8441 12.7058 15.8447 12.7032 15.8456 12.7002L15.8456 12.6999C15.8583 12.6536 15.8772 12.6164 15.8978 12.5809C15.9028 12.5723 15.908 12.5635 15.9133 12.5545C15.9293 12.5279 15.946 12.4999 15.959 12.4707C15.977 12.4301 15.9891 12.3849 15.9875 12.3288C15.986 12.2733 15.9713 12.2089 15.9387 12.1294L15.8847 11.9975L15.8631 12.1376C15.8538 12.1976 15.837 12.2398 15.8193 12.2673C15.8011 12.2955 15.784 12.3052 15.7755 12.3075C15.7717 12.3085 15.7702 12.3079 15.7701 12.3078C15.77 12.3078 15.77 12.3078 15.7699 12.3077C15.7698 12.3077 15.7696 12.3076 15.7694 12.3074C15.769 12.3071 15.7683 12.3064 15.7674 12.305C15.7636 12.2991 15.7585 12.282 15.7669 12.2498C15.7778 12.2101 15.7918 12.1757 15.8059 12.1413L15.8068 12.1389C15.821 12.1042 15.8354 12.0684 15.8441 12.0299C15.8621 11.9496 15.8537 11.8622 15.7876 11.7362L15.7396 11.6447L15.7142 11.7441C15.6968 11.8121 15.6789 11.8603 15.6626 11.8918C15.6556 11.9052 15.6493 11.9149 15.644 11.9215C15.6386 11.9059 15.6343 11.8799 15.6343 11.843C15.6343 11.8369 15.6343 11.8307 15.6343 11.8245C15.6344 11.7075 15.6345 11.577 15.5938 11.4634C15.5514 11.3454 15.4656 11.2463 15.2998 11.1921ZM15.8434 12.7173C15.8433 12.7173 15.8431 12.717 15.8431 12.7161C15.8434 12.7168 15.8434 12.7172 15.8434 12.7173ZM14.3936 12.7173C14.3935 12.7172 14.3936 12.7168 14.3939 12.7161C14.3938 12.717 14.3936 12.7173 14.3936 12.7173ZM14.4027 12.7097C14.4027 12.7097 14.4028 12.7097 14.4028 12.7097ZM13.4303 13.4124C13.471 13.4124 13.511 13.4242 13.5508 13.4452L13.571 13.4559V15.173H13.2954V13.4572L13.3139 13.4462C13.3506 13.4243 13.3893 13.4124 13.4303 13.4124ZM13.3742 13.5001V15.098H13.4923V13.5011C13.4695 13.4916 13.4491 13.4874 13.4303 13.4874C13.412 13.4874 13.3935 13.4913 13.3742 13.5001Z" fill="black"/>
<path d="M13.3506 14.5509C13.5947 14.6709 13.8388 14.8134 13.9018 15.1359H13.3506V14.5509ZM16.7526 14.0559V15.1359H16.9101V14.0559C16.8628 14.0334 16.792 14.0259 16.7526 14.0559Z" fill="white"/>
<path fill-rule="evenodd" clip-rule="evenodd" d="M16.8298 13.9982C16.8641 13.9993 16.8992 14.0082 16.9278 14.0218L16.9495 14.0322V15.1728H16.7133V14.0373L16.7281 14.0261C16.7578 14.0034 16.796 13.9971 16.8298 13.9982ZM16.792 14.0772V15.0978H16.8708V14.0805C16.8569 14.0763 16.8417 14.0736 16.8271 14.0731C16.813 14.0727 16.8012 14.0743 16.792 14.0772ZM13.3113 14.4888L13.3687 14.517C13.6136 14.6374 13.8739 14.7871 13.9406 15.1285L13.9493 15.1728H13.3113V14.4888ZM13.39 14.6124V15.0978H13.853C13.787 14.8478 13.599 14.7196 13.39 14.6124Z" fill="black"/>
<path d="M16.9101 14.5504C16.666 14.6629 16.4219 14.7979 16.3589 15.1279H16.9101V14.5504ZM15.2879 12.0229L15.4296 11.9104V11.7604C15.3824 11.7604 15.3509 11.7829 15.3115 11.8354C15.2962 11.7872 15.2709 11.7424 15.2371 11.7038C15.2033 11.6651 15.1616 11.6334 15.1146 11.6104C15.067 11.6317 15.0243 11.662 14.9891 11.6993C14.9539 11.7367 14.927 11.7804 14.9099 11.8279C14.8705 11.7754 14.8469 11.7679 14.7917 11.7529V11.9029L14.9335 12.0229H15.2879Z" fill="white"/>
<path fill-rule="evenodd" clip-rule="evenodd" d="M15.1155 11.5684L15.1327 11.5768C15.1844 11.6021 15.2302 11.6371 15.2674 11.6796C15.2899 11.7053 15.3089 11.7334 15.3242 11.7633C15.331 11.7573 15.3381 11.7518 15.3454 11.747C15.371 11.7303 15.3985 11.7226 15.4297 11.7226H15.4691V11.9277L15.3022 12.0601H14.9186L14.7524 11.9195V11.7029L14.8026 11.7166C14.8293 11.7239 14.8543 11.7307 14.8773 11.7441C14.8847 11.7484 14.8916 11.7532 14.8983 11.7586C14.915 11.7282 14.9357 11.6998 14.9598 11.6741C14.9985 11.633 15.0455 11.5997 15.0979 11.5762L15.1155 11.5684ZM15.1139 11.6525C15.0781 11.671 15.0458 11.6952 15.0185 11.7242C14.9868 11.7578 14.9626 11.7971 14.9472 11.8398L14.9223 11.9087L14.8779 11.8494C14.8598 11.8253 14.8477 11.8147 14.8363 11.8081C14.8346 11.8071 14.8329 11.8062 14.8312 11.8054V11.8858L14.9485 11.9851H15.2737L15.3903 11.8926V11.8086C15.3902 11.8087 15.39 11.8088 15.3899 11.8089C15.3769 11.8174 15.3623 11.832 15.3436 11.8569L15.2971 11.919L15.2739 11.846C15.2601 11.8027 15.2373 11.7624 15.2069 11.7276C15.1807 11.6976 15.1492 11.6722 15.1139 11.6525ZM16.9496 14.4903V15.1652H16.3118L16.3202 15.1209C16.3869 14.7715 16.6478 14.6294 16.893 14.5164L16.9496 14.4903ZM16.4076 15.0902H16.8708V14.6105C16.6616 14.7113 16.4733 14.8342 16.4076 15.0902Z" fill="black"/>
<path d="M15.3666 12.3902L15.4296 12.2477V12.0602C15.3824 12.0602 15.3509 12.0827 15.3115 12.1352C15.2962 12.087 15.2709 12.0422 15.2371 12.0036C15.2033 11.9649 15.1616 11.9332 15.1146 11.9102C15.067 11.9315 15.0243 11.9618 14.9891 11.9991C14.9539 12.0365 14.927 12.0802 14.9099 12.1277C14.8705 12.0752 14.8469 12.0677 14.7917 12.0602V12.2477L14.8547 12.3902H15.3666Z" fill="white"/>
<path fill-rule="evenodd" clip-rule="evenodd" d="M15.1155 11.8691L15.1327 11.8776C15.1844 11.9029 15.2302 11.9378 15.2674 11.9804C15.2899 12.006 15.3089 12.0342 15.3242 12.0641C15.331 12.058 15.3381 12.0526 15.3454 12.0478C15.371 12.0311 15.3985 12.0234 15.4297 12.0234H15.4691V12.256L15.3928 12.4284H14.8287L14.7524 12.256V12.0177L14.7974 12.0238C14.825 12.0276 14.8512 12.032 14.8759 12.045C14.8838 12.0492 14.8912 12.0541 14.8982 12.0596C14.9149 12.0291 14.9356 12.0006 14.9598 11.9749C14.9985 11.9338 15.0455 11.9005 15.0979 11.877L15.1155 11.8691ZM15.1139 11.9533C15.0781 11.9717 15.0458 11.996 15.0185 12.0249C14.9868 12.0586 14.9626 12.0979 14.9472 12.1406L14.9223 12.2095L14.8779 12.1502C14.8596 12.1259 14.8479 12.116 14.8377 12.1106C14.8356 12.1095 14.8335 12.1085 14.8312 12.1076V12.2409L14.881 12.3534H15.3405L15.3903 12.2409V12.1094C15.3902 12.1095 15.39 12.1096 15.3899 12.1097C15.3769 12.1182 15.3623 12.1328 15.3436 12.1577L15.2971 12.2198L15.2739 12.1468C15.2601 12.1034 15.2373 12.0632 15.2069 12.0284C15.1807 11.9984 15.1492 11.973 15.1139 11.9533Z" fill="black"/>
<path d="M15.3824 12.8859L15.5872 12.6384V12.3984C15.5084 12.3984 15.469 12.4359 15.4139 12.5184C15.3588 12.3459 15.2564 12.3159 15.1147 12.2334C14.965 12.3084 14.8627 12.3459 14.8154 12.5109C14.7524 12.4284 14.713 12.4059 14.6343 12.3984V12.6384L14.8469 12.8859H15.3824Z" fill="white"/>
<path fill-rule="evenodd" clip-rule="evenodd" d="M15.1159 12.1895L15.135 12.2006C15.1547 12.212 15.1745 12.2229 15.1939 12.2335C15.24 12.2588 15.2843 12.2831 15.3216 12.3124C15.3628 12.3446 15.397 12.3836 15.4241 12.4383C15.4377 12.4224 15.4519 12.4085 15.4673 12.397C15.5016 12.3716 15.5399 12.3601 15.587 12.3601H15.6264V12.6506L15.4013 12.9226H14.8281L14.5947 12.6509V12.3561L14.638 12.3602C14.6808 12.3643 14.7171 12.3729 14.7519 12.3941C14.7693 12.4048 14.7854 12.4182 14.8015 12.4344C14.8265 12.3806 14.8599 12.3412 14.9014 12.3086C14.9467 12.2731 15.0018 12.2459 15.0608 12.2169C15.0724 12.2112 15.0842 12.2053 15.0961 12.1994L15.1159 12.1895ZM14.9515 12.3665C14.9079 12.4007 14.8748 12.4445 14.8532 12.5199L14.8316 12.5953L14.7834 12.5321C14.7528 12.492 14.7306 12.4703 14.7093 12.4572C14.6985 12.4506 14.6871 12.4457 14.6735 12.4421V12.6242L14.8654 12.8476H15.3631L15.5476 12.6246V12.4401C15.5356 12.4436 15.5254 12.449 15.5157 12.4562C15.4949 12.4716 15.4743 12.4968 15.4469 12.5377L15.401 12.6065L15.3761 12.5285C15.3506 12.4489 15.3155 12.4047 15.2716 12.3703C15.2395 12.3451 15.2041 12.3257 15.1613 12.3023C15.1462 12.294 15.1302 12.2853 15.1131 12.2756C15.1069 12.2787 15.1007 12.2817 15.0947 12.2846C15.0359 12.3137 14.9898 12.3365 14.9515 12.3665Z" fill="black"/>
<path d="M15.4374 13.3735C15.4374 13.3735 15.6894 13.171 15.6973 13.0585V12.796C15.6028 12.8035 15.5162 12.826 15.4453 12.9385C15.3823 12.721 15.2878 12.661 15.1146 12.5635C14.9334 12.661 14.8389 12.721 14.7838 12.9385C14.7051 12.826 14.6263 12.8035 14.5239 12.7885V13.0585C14.5901 13.1774 14.6781 13.2841 14.7838 13.3735H15.4374Z" fill="white"/>
<path fill-rule="evenodd" clip-rule="evenodd" d="M15.1151 12.5195L15.1347 12.5306C15.2207 12.579 15.2925 12.6209 15.3502 12.6798C15.3954 12.7261 15.4307 12.7816 15.4595 12.8564C15.4858 12.8289 15.5142 12.8086 15.5446 12.7938C15.5936 12.7699 15.6449 12.7619 15.6941 12.758L15.7367 12.7546V13.0591L15.7367 13.0603C15.734 13.0989 15.7115 13.1397 15.6861 13.1755C15.6597 13.2127 15.6258 13.2502 15.5931 13.2832C15.5603 13.3164 15.5278 13.3459 15.5036 13.3671C15.4915 13.3777 15.4814 13.3862 15.4743 13.3921C15.4707 13.3951 15.4679 13.3974 15.466 13.399L15.4637 13.4008L15.4631 13.4013L15.463 13.4014L15.4629 13.4015C15.4629 13.4015 15.4629 13.4015 15.4375 13.3728L15.4629 13.4015L15.4519 13.4103H14.7689L14.7577 13.4009C14.6485 13.3086 14.5575 13.1983 14.4892 13.0754L14.4846 13.0672V12.7441L14.53 12.7508C14.5822 12.7584 14.6329 12.7685 14.6814 12.7932C14.7117 12.8087 14.74 12.8292 14.7672 12.8569C14.7935 12.782 14.8277 12.7263 14.8732 12.6798C14.9311 12.6206 15.0053 12.5786 15.0952 12.5302L15.1151 12.5195ZM15.4228 13.3353C15.4295 13.3298 15.439 13.3217 15.4504 13.3118C15.4737 13.2915 15.5047 13.2633 15.5358 13.2318C15.5671 13.2002 15.5978 13.166 15.6208 13.1335C15.6443 13.1004 15.6564 13.0741 15.658 13.0564V12.8376C15.63 12.842 15.6044 12.8489 15.5804 12.8606C15.5455 12.8776 15.5113 12.9061 15.4791 12.9571L15.4319 13.0322L15.4074 12.9478C15.3771 12.8431 15.3402 12.7797 15.2925 12.7309C15.2475 12.6849 15.1912 12.6499 15.1142 12.6062C15.0335 12.6501 14.9756 12.685 14.9308 12.7309C14.8835 12.7792 14.8486 12.8422 14.8221 12.9466L14.801 13.03L14.7511 12.9586C14.7146 12.9065 14.6798 12.8775 14.6442 12.8593C14.6196 12.8468 14.5934 12.8388 14.5634 12.8327V13.0484C14.6244 13.156 14.7041 13.253 14.799 13.3353H15.4228Z" fill="black"/>
<path d="M15.5398 14.2732C15.5398 14.2732 15.8863 13.9207 15.8942 13.7782V13.3732C15.7682 13.3882 15.6422 13.4707 15.5477 13.6432C15.469 13.3057 15.343 13.0732 15.1146 12.9082C14.8783 13.0732 14.7523 13.3057 14.6736 13.6432C14.5791 13.4707 14.461 13.3882 14.335 13.3732V13.7782C14.3586 13.9207 14.6815 14.2732 14.6815 14.2732H15.5398Z" fill="white"/>
<path fill-rule="evenodd" clip-rule="evenodd" d="M15.1151 12.8613L15.1385 12.8782C15.3556 13.0351 15.4822 13.2497 15.5635 13.5452C15.6557 13.4175 15.7703 13.3501 15.8894 13.3359L15.9337 13.3306V13.7791L15.9336 13.7801C15.9311 13.8259 15.9029 13.8818 15.8693 13.9349C15.8345 13.9899 15.7893 14.0487 15.7451 14.1023C15.7007 14.1559 15.6566 14.205 15.6237 14.2406C15.6072 14.2584 15.5935 14.2729 15.5839 14.2829C15.5791 14.288 15.5753 14.2919 15.5727 14.2946L15.5697 14.2976L15.5689 14.2984L15.5687 14.2987C15.5687 14.2987 15.5686 14.2987 15.5399 14.2731L15.5687 14.2987L15.557 14.3106H14.6636L14.6519 14.2978L14.6815 14.2731C14.6519 14.2978 14.6519 14.2978 14.6519 14.2978L14.6509 14.2967L14.6481 14.2936C14.6457 14.2909 14.6421 14.287 14.6376 14.282C14.6287 14.272 14.6158 14.2575 14.6004 14.2397C14.5695 14.2041 14.528 14.1552 14.4857 14.1016C14.4434 14.0481 14.4 13.9896 14.3654 13.9349C14.3317 13.8817 14.3033 13.8275 14.2961 13.784L14.2957 13.7811V13.3306L14.3399 13.3359C14.4594 13.3501 14.5682 13.4178 14.6581 13.5447C14.7394 13.2494 14.8669 13.0347 15.0914 12.8779L15.1151 12.8613ZM14.6996 14.2356H15.5227C15.5236 14.2346 15.5246 14.2335 15.5257 14.2324C15.5351 14.2226 15.5485 14.2085 15.5646 14.191C15.5969 14.1561 15.64 14.1081 15.6832 14.0558C15.7265 14.0034 15.7695 13.9474 15.8019 13.8962C15.835 13.8438 15.8531 13.8025 15.8549 13.777V13.4188C15.7586 13.4444 15.6608 13.5178 15.5827 13.6605L15.5328 13.7516L15.5093 13.6512C15.4345 13.3307 15.3179 13.112 15.1142 12.9554C14.9036 13.112 14.7869 13.3305 14.7121 13.6512L14.6887 13.7516L14.6387 13.6605C14.5603 13.5173 14.4684 13.4444 14.3744 13.4189V13.7749C14.3798 13.8027 14.4004 13.845 14.4329 13.8962C14.4655 13.9478 14.5072 14.004 14.5486 14.0565C14.59 14.1089 14.6307 14.1569 14.6611 14.1919C14.6762 14.2094 14.6888 14.2236 14.6976 14.2334C14.6983 14.2341 14.6989 14.2349 14.6996 14.2356Z" fill="black"/>
<path d="M15.5398 14.8052C15.5398 14.8052 15.8312 14.5277 15.8942 14.4077V14.0027C15.7682 14.0177 15.6422 14.1002 15.5477 14.2652C15.5266 14.1287 15.4775 13.9975 15.4032 13.8792C15.3289 13.7608 15.2308 13.6575 15.1146 13.5752C14.8783 13.7402 14.7523 13.9277 14.6736 14.2652C14.5791 14.1002 14.461 14.0177 14.335 14.0027V14.4077C14.4137 14.5277 14.6815 14.8052 14.6815 14.8052H15.5398Z" fill="white"/>
<path fill-rule="evenodd" clip-rule="evenodd" d="M15.1148 13.5293L15.1381 13.5458C15.2585 13.631 15.3601 13.738 15.4371 13.8606C15.4967 13.9556 15.5406 14.0585 15.5676 14.1657C15.6591 14.0457 15.7722 13.9802 15.8894 13.9662L15.9337 13.9609V14.4173L15.9295 14.4252C15.9117 14.459 15.8794 14.5015 15.843 14.5446C15.8061 14.5884 15.7632 14.6349 15.7226 14.6774C15.6819 14.72 15.6432 14.7587 15.6147 14.7867C15.6005 14.8008 15.5888 14.8122 15.5806 14.8201C15.5765 14.824 15.5733 14.8271 15.5711 14.8292L15.5686 14.8316L15.5678 14.8324L15.5678 14.8324C15.5677 14.8324 15.5677 14.8324 15.5399 14.8059L15.5678 14.8324L15.5562 14.8434H14.6642L14.6525 14.8313L14.6815 14.8059C14.6525 14.8313 14.6525 14.8313 14.6525 14.8313L14.6494 14.8281L14.6408 14.819C14.6332 14.8111 14.6224 14.7998 14.6092 14.7857C14.5827 14.7577 14.5466 14.7191 14.5081 14.6767C14.4317 14.5928 14.3429 14.4912 14.3016 14.4283L14.2957 14.4192V13.9609L14.3399 13.9662C14.4591 13.9804 14.5678 14.0478 14.6577 14.17C14.6945 14.039 14.7408 13.9306 14.8016 13.8366C14.8756 13.722 14.97 13.6305 15.0914 13.5457L15.1148 13.5293ZM14.6989 14.7684H15.5235C15.5238 14.7681 15.5242 14.7678 15.5245 14.7674C15.5325 14.7597 15.544 14.7485 15.5581 14.7346C15.5862 14.7069 15.6243 14.6687 15.6644 14.6269C15.7044 14.585 15.7462 14.5397 15.7816 14.4977C15.8143 14.4589 15.8401 14.4247 15.8549 14.3992V14.0491C15.7584 14.0746 15.6605 14.1475 15.5823 14.2839L15.526 14.3823L15.5088 14.2714C15.4885 14.1398 15.4412 14.0133 15.3695 13.8991C15.3028 13.7929 15.2164 13.6993 15.1144 13.6229C15.0111 13.6982 14.9316 13.7784 14.8686 13.8759C14.8007 13.9809 14.7509 14.1079 14.7121 14.274L14.6893 14.3716L14.6391 14.2839C14.5607 14.147 14.4687 14.0747 14.3744 14.0492V14.3974C14.4143 14.4553 14.4942 14.547 14.5676 14.6276C14.6058 14.6696 14.6415 14.7078 14.6677 14.7356C14.6808 14.7494 14.6915 14.7606 14.6989 14.7684Z" fill="black"/>
<path d="M15.6579 15.1207C15.5791 14.7682 15.5004 14.5057 15.0987 14.2432C14.6892 14.5057 14.6184 14.7682 14.5317 15.1207H15.6579Z" fill="white"/>
<path fill-rule="evenodd" clip-rule="evenodd" d="M15.099 14.1973L15.1211 14.2117C15.3264 14.3458 15.4511 14.4814 15.5342 14.63C15.6168 14.7776 15.6571 14.936 15.6965 15.1123L15.7066 15.1576H14.4822L14.4935 15.1116C14.5367 14.9359 14.577 14.7774 14.6595 14.63C14.7427 14.4813 14.8675 14.3457 15.0768 14.2115L15.099 14.1973ZM14.5816 15.0826H15.6092C15.5731 14.9259 15.5349 14.7907 15.4647 14.6652C15.3913 14.534 15.2817 14.4115 15.0986 14.2882C14.9121 14.4116 14.8024 14.534 14.729 14.6652C14.6588 14.7907 14.6207 14.9257 14.5816 15.0826Z" fill="black"/>
<path d="M15.8706 15.3152V14.8052C15.6816 14.8802 15.5162 14.9777 15.4532 15.0902C15.3902 14.8052 15.2563 14.6852 15.091 14.5127C14.9256 14.6852 14.8153 14.8127 14.7445 15.0902C14.6815 14.9777 14.5161 14.8727 14.335 14.8052V15.3152H15.8706Z" fill="white"/>
<path fill-rule="evenodd" clip-rule="evenodd" d="M15.091 14.457L15.1201 14.4874C15.1329 14.5007 15.1456 14.5138 15.1581 14.5267C15.291 14.664 15.4053 14.7821 15.471 15.002C15.5045 14.9662 15.5461 14.9331 15.5924 14.9027C15.6682 14.853 15.7594 14.8087 15.8555 14.7705L15.91 14.7489V15.3526H14.2957V14.7502L14.3494 14.7702C14.4424 14.8049 14.532 14.8494 14.6069 14.9002C14.6533 14.9317 14.695 14.9662 14.7284 15.0031C14.802 14.769 14.9107 14.6451 15.062 14.4874L15.091 14.457ZM15.0912 14.5683C14.944 14.7237 14.8473 14.8466 14.7828 15.099L14.7584 15.1946L14.7098 15.1078C14.6823 15.0586 14.6305 15.0083 14.5612 14.9613C14.5066 14.9242 14.4426 14.8903 14.3744 14.8614V15.2776H15.8313V14.8623C15.7594 14.8935 15.6931 14.9277 15.6371 14.9645C15.5667 15.0106 15.5153 15.059 15.488 15.1078L15.4371 15.1988L15.4147 15.0979C15.3589 14.8452 15.247 14.7294 15.0994 14.5768C15.0967 14.574 15.0939 14.5711 15.0912 14.5683Z" fill="black"/>
<path d="M11.3424 19.4481H30.6598V20.3856H11.3424V19.4481ZM10.8306 20.3856H31.1717V21.3231H10.8306V20.3856ZM12.3583 18.0381H29.6361V18.6456H12.3583V18.0381Z" fill="white"/>
<path fill-rule="evenodd" clip-rule="evenodd" d="M12.319 18H29.6755V18.6825H12.319V18ZM12.3978 18.075V18.6075H29.5968V18.075H12.3978ZM11.3031 19.41H30.6993V20.3475H31.2111V21.36H10.7913V20.3475H11.3031V19.41ZM11.3819 20.3475H30.6205V19.485H11.3819V20.3475ZM10.87 20.4225V21.285H31.1324V20.4225H10.87Z" fill="black"/>
<path d="M11.8545 18.6457H30.156V19.4407H11.8545V18.6457ZM12.6577 17.5732H29.3527V18.0382H12.6577V17.5732Z" fill="white"/>
<path fill-rule="evenodd" clip-rule="evenodd" d="M12.6182 17.5352H29.3919V18.0752H12.6182V17.5352ZM12.6969 17.6102V18.0002H29.3132V17.6102H12.6969ZM11.8149 18.6077H30.1952V19.4777H11.8149V18.6077ZM11.8937 18.6827V19.4027H30.1164V18.6827H11.8937Z" fill="black"/>
<path d="M14.469 17.5732H15.729V21.3232H14.469V17.5732Z" fill="white"/>
<path fill-rule="evenodd" clip-rule="evenodd" d="M14.4294 17.5352H15.7682V21.3602H14.4294V17.5352ZM14.5082 17.6102V21.2852H15.6894V17.6102H14.5082Z" fill="black"/>
<path d="M14.7525 17.5732H15.4534V21.3232H14.7446L14.7525 17.5732ZM20.3438 17.5732H21.6038V21.3232H20.3438V17.5732Z" fill="white"/>
<path fill-rule="evenodd" clip-rule="evenodd" d="M14.7131 17.5352H15.4927V21.3602H14.7051L14.7131 17.5352ZM14.7917 17.6102L14.784 21.2852H15.4139V17.6102H14.7917ZM20.3043 17.5352H21.643V21.3602H20.3043V17.5352ZM20.383 17.6102V21.2852H21.5643V17.6102H20.383Z" fill="black"/>
<path d="M20.635 17.5732H21.3438V21.3232H20.635V17.5732ZM26.2656 17.5732H27.5256V21.3232H26.2656V17.5732Z" fill="white"/>
<path fill-rule="evenodd" clip-rule="evenodd" d="M20.5957 17.5352H21.3832V21.3602H20.5957V17.5352ZM20.6745 17.6102V21.2852H21.3045V17.6102H20.6745ZM26.2263 17.5352H27.5651V21.3602H26.2263V17.5352ZM26.3051 17.6102V21.2852H27.4863V17.6102H26.3051Z" fill="black"/>
<path d="M26.5413 17.5732H27.25V21.3232H26.5413V17.5732Z" fill="white"/>
<path fill-rule="evenodd" clip-rule="evenodd" d="M26.502 17.5352H27.2895V21.3602H26.502V17.5352ZM26.5807 17.6102V21.2852H27.2107V17.6102H26.5807Z" fill="black"/>
<path fill-rule="evenodd" clip-rule="evenodd" d="M28.6123 17.2273H13.4136V17.1523H28.6123V17.2273ZM15.4611 18.0748H14.7366V17.9998H15.4611V18.0748ZM21.3201 18.0748H20.6428V17.9998H21.3201V18.0748ZM27.2578 18.0748H26.5333V17.9998H27.2578V18.0748ZM15.4611 18.5398H14.7366V18.4648H15.4611V18.5398ZM21.3201 18.5398H20.6428V18.4648H21.3201V18.5398ZM27.2578 18.5398H26.5333V18.4648H27.2578V18.5398ZM15.4611 19.0123H14.7366V18.9373H15.4611V19.0123ZM21.3201 19.0123H20.6428V18.9373H21.3201V19.0123ZM27.2578 19.0123H26.5333V18.9373H27.2578V19.0123ZM15.4611 19.4773H14.7366V19.4023H15.4611V19.4773ZM21.3201 19.4773H20.6428V19.4023H21.3201V19.4773ZM27.2578 19.4773H26.5333V19.4023H27.2578V19.4773ZM15.4611 19.9498H14.7366V19.8748H15.4611V19.9498ZM21.3201 19.9498H20.6428V19.8748H21.3201V19.9498ZM27.2578 19.9498H26.5333V19.8748H27.2578V19.9498ZM15.4611 20.4148H14.7366V20.3398H15.4611V20.4148ZM21.3201 20.4148H20.6428V20.3398H21.3201V20.4148ZM27.2578 20.4148H26.5333V20.3398H27.2578V20.4148ZM15.4611 20.8873H14.7366V20.8123H15.4611V20.8873ZM21.3201 20.8873H20.6428V20.8123H21.3201V20.8873ZM27.2578 20.8873H26.5333V20.8123H27.2578V20.8873Z" fill="black"/>
</g>
<defs>
<clipPath id="clip0_2958_63410">
<rect width="42" height="30" rx="2" fill="white"/>
</clipPath>
</defs>
</svg>
