<svg width="42" height="30" viewBox="0 0 42 30" fill="none" xmlns="http://www.w3.org/2000/svg">
<rect width="42" height="30" rx="2" fill="#F93939"/>
<path fill-rule="evenodd" clip-rule="evenodd" d="M20.4116 18.97C20.6056 18.99 20.8016 19 20.9996 19C21.1996 19 21.3936 18.99 21.5876 18.97L20.9996 17.5L20.4116 18.97ZM17.6996 17.88C16.6536 17.052 15.9996 15.844 15.9996 14.5C15.9996 12.914 16.9116 11.52 18.2876 10.72L19.9996 15L17.6996 17.88ZM23.7116 10.72C25.0876 11.52 25.9996 12.914 25.9996 14.5C25.9996 15.846 25.3436 17.054 24.2996 17.88L21.9996 15L23.7116 10.72ZM23.5116 10.608C22.7716 10.22 21.9156 10 20.9996 10C20.0836 10 19.2256 10.22 18.4876 10.608L20.9996 13.748L23.5116 10.608Z" fill="#FFDA2C"/>
<path fill-rule="evenodd" clip-rule="evenodd" d="M20.9995 24C25.9695 24 29.9995 19.97 29.9995 15C29.9995 10.03 25.9695 6 20.9995 6C16.0295 6 11.9995 10.03 11.9995 15C11.9995 19.97 16.0295 24 20.9995 24ZM20.9995 22C24.8655 22 27.9995 18.866 27.9995 15C27.9995 11.134 24.8655 8 20.9995 8C17.1335 8 13.9995 11.134 13.9995 15C13.9995 18.866 17.1335 22 20.9995 22Z" fill="#FFDA2C"/>
</svg>
