<svg width="42" height="30" viewBox="0 0 42 30" fill="none" xmlns="http://www.w3.org/2000/svg">
<rect width="42" height="30" rx="2" fill="#249F58"/>
<path fill-rule="evenodd" clip-rule="evenodd" d="M22.4724 6.02798C22.6464 6.00798 22.8224 5.99998 23.0004 5.99998C25.7604 5.99998 28.0004 8.23998 28.0004 11C28.0004 13.76 25.7604 16 23.0004 16C20.2404 16 18.0004 13.76 18.0004 11C18.0004 10.82 18.0104 10.646 18.0284 10.472C18.2604 12.46 19.9484 14 22.0004 14C24.2104 14 26.0004 12.21 26.0004 9.99998C26.0004 7.94998 24.4604 6.25998 22.4724 6.02798ZM20.0004 7.99998H22.0004V9.99998H20.0004V7.99998Z" fill="white"/>
<path fill-rule="evenodd" clip-rule="evenodd" d="M16.0004 7.99997H18.0004V9.99997H16.0004V7.99997ZM20.0004 3.99997H22.0005V5.99997H20.0004V3.99997Z" fill="white"/>
<path fill-rule="evenodd" clip-rule="evenodd" d="M4.00049 0H6.00049V30H4.00049V0ZM8.00049 0H10.0005V30H8.00049V0ZM12.0005 0H14.0005V30H12.0005V0Z" fill="#D4AF2C"/>
<path fill-rule="evenodd" clip-rule="evenodd" d="M10.0005 0L14.0005 3L10.0005 6V0ZM10.0005 6L14.0005 9L10.0005 12V6ZM10.0005 12L14.0005 15L10.0005 18V12ZM10.0005 18L14.0005 21L10.0005 24V18ZM10.0005 24L14.0005 27L10.0005 30V24ZM8.00049 0L4.00049 3L8.00049 6V0ZM8.00049 6L4.00049 9L8.00049 12V6ZM8.00049 12L4.00049 15L8.00049 18V12ZM8.00049 18L4.00049 21L8.00049 24V18ZM8.00049 24L4.00049 27L8.00049 30V24ZM8.00049 0H10.0005V4H8.00049V0ZM8.00049 26H10.0005V30H8.00049V26ZM8.00049 10H10.0005V14H8.00049V10ZM8.00049 6H10.0005V8H8.00049V6ZM8.00049 22H10.0005V24H8.00049V22ZM8.00049 16H10.0005V20H8.00049V16Z" fill="#AE6A3E"/>
</svg>
