<svg width="42" height="30" viewBox="0 0 42 30" fill="none" xmlns="http://www.w3.org/2000/svg">
<g clip-path="url(#clip0_2906_61326)">
<rect width="42" height="30" rx="2" fill="#F93939"/>
<path d="M38 0H4C1.79086 0 0 1.79086 0 4V26C0 28.2091 1.79086 30 4 30H38C40.2091 30 42 28.2091 42 26V4C42 1.79086 40.2091 0 38 0Z" fill="#F93939"/>
<path fill-rule="evenodd" clip-rule="evenodd" d="M0 0H42V16H0V0Z" fill="#1A47B8"/>
<path fill-rule="evenodd" clip-rule="evenodd" d="M0 0V30.066L20 15L0 0Z" fill="white"/>
<path d="M5.00012 22C5.5524 22 6.00012 21.5523 6.00012 21C6.00012 20.4477 5.5524 20 5.00012 20C4.44783 20 4.00012 20.4477 4.00012 21C4.00012 21.5523 4.44783 22 5.00012 22Z" fill="#FFDA2C"/>
<path d="M14.9999 16C15.5522 16 15.9999 15.5523 15.9999 15C15.9999 14.4477 15.5522 14 14.9999 14C14.4476 14 13.9999 14.4477 13.9999 15C13.9999 15.5523 14.4476 16 14.9999 16Z" fill="#FFDA2C"/>
<path fill-rule="evenodd" clip-rule="evenodd" d="M8.97012 15.97C10.7101 15.86 12.0001 15.47 12.0001 15C12.0001 14.532 10.7101 14.14 8.97012 14.03C8.86012 12.29 8.47012 11 8.00012 11C7.53212 11 7.14012 12.29 7.03012 14.03C5.29012 14.14 4.00012 14.53 4.00012 15C4.00012 15.468 5.29012 15.86 7.03012 15.97C7.13812 17.71 7.53012 19 8.00012 19C8.46812 19 8.86012 17.71 8.97012 15.97Z" fill="#FFDA2C"/>
<path d="M5.00012 10C5.5524 10 6.00012 9.55232 6.00012 9.00004C6.00012 8.44775 5.5524 8.00004 5.00012 8.00004C4.44783 8.00004 4.00012 8.44775 4.00012 9.00004C4.00012 9.55232 4.44783 10 5.00012 10Z" fill="#FFDA2C"/>
</g>
<defs>
<clipPath id="clip0_2906_61326">
<rect width="42" height="30" rx="2" fill="white"/>
</clipPath>
</defs>
</svg>
