<svg width="42" height="30" viewBox="0 0 42 30" fill="none" xmlns="http://www.w3.org/2000/svg">
<g clip-path="url(#clip0_2958_63626)">
<path fill-rule="evenodd" clip-rule="evenodd" d="M43.6026 30.08H-1.51562V0H43.6026V30.08Z" fill="#BA0000"/>
<path fill-rule="evenodd" clip-rule="evenodd" d="M20.4018 14.5584C20.4018 14.5584 17.2187 13.2541 17.6752 9.87013C18.1131 8.24276 18.8966 7.13238 20.3092 6.52726C20.9754 6.33338 21.654 6.24526 22.3449 6.19238C22.1598 6.35688 22.0118 6.52138 21.9316 6.72113C21.7836 7.09713 21.8946 7.44963 22.0982 7.80801C22.3511 8.21926 22.5053 8.64226 22.5546 9.19451C22.601 9.57083 22.5421 9.95214 22.384 10.2998C22.2258 10.6475 21.974 10.9492 21.654 11.1744C21.2469 11.474 20.7657 11.5798 20.3709 11.9205C20.0625 12.2025 19.8774 12.4904 19.8157 12.9839C19.8034 13.9298 20.0686 14.0649 20.4018 14.5584V14.5584Z" fill="white"/>
<path fill-rule="evenodd" clip-rule="evenodd" d="M19.8561 9.64648V9.66411H19.7266V9.64648H19.8561Z" fill="black"/>
<path fill-rule="evenodd" clip-rule="evenodd" d="M19.1503 11.8727C19.1603 12.7603 19.4403 13.656 20.0376 14.1595L19.9517 14.2519C19.3153 13.7155 19.0309 12.7782 19.0208 11.874C19.0157 11.4204 19.0795 10.9712 19.2049 10.579C19.3301 10.1875 19.518 9.84867 19.7644 9.62012L19.8548 9.7085C19.6293 9.91764 19.4502 10.2353 19.3288 10.6149C19.2077 10.9938 19.1454 11.4303 19.1503 11.8727Z" fill="#BA0000"/>
<path fill-rule="evenodd" clip-rule="evenodd" d="M20.5683 9.07659L20.7718 9.39971L20.4017 9.25284L20.1118 9.54659L20.1611 9.16471L19.791 9.01784L20.192 8.92971L20.2413 8.55371L20.4449 8.87684L20.852 8.78871" fill="#BA0000"/>
<path fill-rule="evenodd" clip-rule="evenodd" d="M20.6733 14.3348C20.6733 14.3348 21.0435 11.0507 24.5782 10.4749C26.3424 10.4044 27.6872 10.7863 28.7112 11.9025C29.0999 12.4489 29.3836 13.0423 29.6365 13.6533C29.4206 13.5358 29.2171 13.4477 28.9826 13.4359C28.5693 13.4065 28.2424 13.6122 27.9463 13.9C27.6005 14.2646 27.1694 14.5464 26.6879 14.7225C26.3241 14.8757 25.9243 14.9347 25.5289 14.8934C25.1335 14.8521 24.7566 14.7121 24.4363 14.4875C24.0168 14.1997 23.7701 13.7943 23.3136 13.5358C22.9426 13.3257 22.5028 13.2546 22.0798 13.336C21.1237 13.6063 21.0743 13.8883 20.6733 14.3348V14.3348Z" fill="white"/>
<path fill-rule="evenodd" clip-rule="evenodd" d="M25.4233 12.4105H25.4048V12.2871H25.4233V12.4105Z" fill="black"/>
<path fill-rule="evenodd" clip-rule="evenodd" d="M23.0025 12.4097C22.114 12.6789 21.2951 13.1966 20.9605 13.8909L20.8428 13.8394C21.1991 13.1002 22.0581 12.5663 22.9632 12.2921C23.4172 12.1545 23.8866 12.081 24.3168 12.0801C24.7461 12.0792 25.1408 12.1506 25.442 12.307L25.38 12.4153C25.1044 12.2722 24.7334 12.2026 24.3171 12.2035C23.9015 12.2044 23.4452 12.2755 23.0025 12.4097Z" fill="#BA0000"/>
<path fill-rule="evenodd" clip-rule="evenodd" d="M26.2253 12.8838L25.9601 13.1599L25.9971 12.778L25.627 12.6018L26.0156 12.543L26.0526 12.1494L26.2623 12.5019L26.6571 12.4314L26.3919 12.7075L26.5954 13.06" fill="#BA0000"/>
<path fill-rule="evenodd" clip-rule="evenodd" d="M20.9077 14.5697C20.9077 14.5697 24.3005 13.8647 25.9908 16.8785C26.6261 18.4472 26.6693 19.7808 25.8859 21.0557C25.4664 21.5844 24.9606 22.025 24.4362 22.4539C24.4856 22.2189 24.5041 22.0074 24.4424 21.7959C24.3437 21.4082 24.0353 21.179 23.6528 21.0028C23.1782 20.8051 22.7596 20.5031 22.4314 20.1215C22.1653 19.8416 21.9812 19.4998 21.8979 19.1306C21.8145 18.7613 21.8347 18.3777 21.9564 18.0183C22.1045 17.5483 22.4314 17.1958 22.5424 16.7023C22.6347 16.3016 22.5665 15.8825 22.3512 15.5273C21.7775 14.7518 21.4814 14.7929 20.9077 14.5697Z" fill="white"/>
<path fill-rule="evenodd" clip-rule="evenodd" d="M24.3867 18.2188L24.3991 18.2305Z" fill="#BA0000"/>
<path fill-rule="evenodd" clip-rule="evenodd" d="M24.3536 18.2738L24.3413 18.2621L24.4329 18.1748L24.4452 18.1866L24.3536 18.2738Z" fill="black"/>
<path fill-rule="evenodd" clip-rule="evenodd" d="M23.5673 16.0648C23.018 15.3474 22.2443 14.7725 21.4497 14.69L21.4637 14.5674C22.31 14.6553 23.1124 15.2613 23.672 15.9921C23.9527 16.3587 24.1747 16.7597 24.3123 17.1487C24.4496 17.537 24.5041 17.9173 24.4445 18.2407L24.3169 18.2194C24.3715 17.9231 24.3227 17.5646 24.1895 17.188C24.0566 16.8122 23.841 16.4223 23.5673 16.0648Z" fill="#BA0000"/>
<path fill-rule="evenodd" clip-rule="evenodd" d="M24.1154 19.1286L23.7515 18.9759L24.1524 18.8878L24.2018 18.4941L24.393 18.829L24.794 18.7409L24.5164 19.0346L24.7015 19.3695L24.3437 19.2168L24.0661 19.5164" fill="#BA0000"/>
<path fill-rule="evenodd" clip-rule="evenodd" d="M20.8338 14.9053C20.8338 14.9053 22.4932 17.8075 19.9394 20.1928C18.5329 21.215 17.2004 21.6322 15.6953 21.2738C15.0476 21.0388 14.4615 20.7039 13.8755 20.3397C14.1222 20.322 14.3505 20.2809 14.5479 20.1634C14.9057 19.9637 15.0476 19.617 15.1216 19.2234C15.1858 18.7325 15.3719 18.2633 15.6644 17.8545C15.8714 17.532 16.164 17.2671 16.5127 17.0866C16.8615 16.9061 17.254 16.8164 17.6508 16.8264C18.1689 16.8323 18.6131 17.0379 19.1436 17.0027C19.5692 16.9498 19.9024 16.8382 20.2786 16.4857C20.8955 15.7513 20.7722 15.4869 20.8338 14.8994V14.9053Z" fill="white"/>
<path fill-rule="evenodd" clip-rule="evenodd" d="M18.1317 19.1113L18.1255 19.1231Z" fill="#BA0000"/>
<path fill-rule="evenodd" clip-rule="evenodd" d="M18.0679 19.0957L18.074 19.084L18.1899 19.1392L18.1837 19.1509L18.0679 19.0957Z" fill="black"/>
<path fill-rule="evenodd" clip-rule="evenodd" d="M20.0745 17.7529C20.6428 17.0487 21.0027 16.1778 20.8564 15.4268L20.9837 15.4043C21.1397 16.2043 20.7562 17.1106 20.1772 17.8281C19.8867 18.188 19.5446 18.5036 19.1908 18.7378C18.8377 18.9716 18.4691 19.1268 18.1261 19.1605L18.1128 19.0378C18.4267 19.0069 18.7745 18.8632 19.1169 18.6365C19.4586 18.4103 19.7913 18.1039 20.0745 17.7529Z" fill="#BA0000"/>
<path fill-rule="evenodd" clip-rule="evenodd" d="M17.1388 19.1172L17.1943 18.7412L17.3978 19.0761L17.805 19.0173L17.5212 19.2876L17.7248 19.6225L17.3485 19.4521L17.0647 19.7223L17.1141 19.3463L16.7378 19.176" fill="#BA0000"/>
<path fill-rule="evenodd" clip-rule="evenodd" d="M20.4575 14.8399C20.4575 14.8399 18.1381 17.2957 14.918 15.8034C13.4375 14.881 12.5862 13.8177 12.4443 12.3489C12.4628 11.685 12.5924 11.0505 12.7589 10.4102C12.8638 10.6217 12.981 10.8097 13.1599 10.9507C13.4745 11.2033 13.8693 11.215 14.2888 11.1504C14.7923 11.0454 15.3149 11.0575 15.8125 11.1857C16.202 11.2638 16.563 11.4386 16.8588 11.6924C17.1545 11.9462 17.3746 12.27 17.4965 12.6309C17.6631 13.095 17.6076 13.565 17.8235 14.0292C18.0085 14.3934 18.2306 14.6519 18.7056 14.8752C19.6433 15.1865 19.8592 14.9868 20.4575 14.8458V14.8399Z" fill="white"/>
<path fill-rule="evenodd" clip-rule="evenodd" d="M15.3927 13.8184L15.3804 13.8125Z" fill="#BA0000"/>
<path fill-rule="evenodd" clip-rule="evenodd" d="M15.4095 13.7568L15.4218 13.7627L15.3639 13.8731L15.3516 13.8672L15.4095 13.7568Z" fill="black"/>
<path fill-rule="evenodd" clip-rule="evenodd" d="M17.3842 15.1058C18.2704 15.3823 19.2514 15.4173 19.9443 15.039L20.0087 15.146C19.2704 15.5491 18.2466 15.5047 17.3439 15.2231C16.891 15.0818 16.4647 14.8797 16.1148 14.6403C15.7656 14.4013 15.489 14.1225 15.3408 13.8265L15.4578 13.7734C15.5934 14.0444 15.8518 14.3083 16.1904 14.5401C16.5284 14.7714 16.9426 14.9681 17.3842 15.1058Z" fill="#BA0000"/>
<path fill-rule="evenodd" clip-rule="evenodd" d="M15.0599 12.9247L15.4485 12.8484L15.1833 13.1421L15.3745 13.4887L15.0167 13.3242L14.7514 13.618L14.7946 13.2185L14.4307 13.054L14.8193 12.9776L14.8625 12.5781" fill="#BA0000"/>
</g>
<defs>
<clipPath id="clip0_2958_63626">
<rect width="42" height="30" rx="2" fill="white"/>
</clipPath>
</defs>
</svg>
