<svg width="42" height="30" viewBox="0 0 42 30" fill="none" xmlns="http://www.w3.org/2000/svg">
<g clip-path="url(#clip0_2958_61048)">
<path fill-rule="evenodd" clip-rule="evenodd" d="M0 0H42V30H0V0Z" fill="#BE0027"/>
<path fill-rule="evenodd" clip-rule="evenodd" d="M1.68018 1.70605H40.3661V28.4811H1.68018V1.70605Z" fill="#3B5AA3"/>
<path fill-rule="evenodd" clip-rule="evenodd" d="M20.6327 25.8247C20.7186 25.8638 20.8124 25.8846 20.9076 25.8856C21.0028 25.8867 21.0971 25.8681 21.184 25.831C30.2271 21.2497 30.2271 8.68722 21.1905 4.16847C21.1005 4.12945 21.0024 4.11031 20.9036 4.11247C20.8047 4.11463 20.7076 4.13805 20.6196 4.18097C11.8062 8.76847 11.7799 21.1872 20.6262 25.8247H20.6327Z" fill="#CBE0E5"/>
<path fill-rule="evenodd" clip-rule="evenodd" d="M20.6324 26.0559C20.7636 26.1621 21.0524 26.1496 21.1836 26.0559C27.8446 21.3059 27.8774 18.3496 27.5886 18.3496H14.398C14.2011 18.3496 14.5161 21.3621 20.6324 26.0559Z" fill="#ADD2D9"/>
<path fill-rule="evenodd" clip-rule="evenodd" d="M15.4415 20.6996C16.0448 20.5195 16.6966 20.5573 17.2725 20.8058C17.7712 21.0558 18.06 21.0558 18.5981 21.0558C19.1625 21.0683 19.6021 21.4621 20.2125 21.4808C21.3346 21.5058 21.8071 22.0371 20.9343 22.0433C20.5275 22.0433 19.6415 21.7746 19.215 21.8308C18.3225 21.9183 17.7581 22.1058 16.9181 22.9996L17.8893 23.6246C18.7293 23.3058 18.8671 22.9371 19.3331 22.9246C19.8581 22.9058 20.0353 22.5996 20.6456 22.5996C21.3742 22.6575 22.1078 22.5898 22.8112 22.3996C23.7825 22.1871 23.3231 21.5371 22.7325 21.3058C22.2534 21.1121 21.3675 21.2996 20.8162 21.1058C20.3962 20.9496 20.7375 20.6996 20.9671 20.6496C21.1903 20.6058 21.4331 20.6808 21.7153 20.7246C22.2206 20.7621 22.8571 20.7183 23.2968 20.6496C24.2156 20.5183 24.1762 20.2621 24.6093 20.2558C24.9375 20.2371 25.1803 20.1496 25.3968 19.9996C25.6593 19.8308 25.9284 19.4996 26.2434 19.5121L27.0768 19.5433L25.8956 22.0683L22.5684 25.2996L20.8425 25.9246L17.0493 23.5683L15.1396 20.7746L15.4481 20.6996H15.4415Z" fill="#FDF9A1"/>
<path fill-rule="evenodd" clip-rule="evenodd" d="M19.8054 18.2503L27.4179 18.2128L27.5491 17.5691C27.5491 17.5691 27.2801 17.5316 27.057 17.5191C26.7879 17.5003 26.3154 17.7941 26.007 17.7878C25.7773 17.7878 25.5279 17.4128 25.3048 17.4128C24.911 17.4128 24.8848 17.7441 24.5173 17.7566C24.222 17.7441 24.0973 17.5316 23.7101 17.5566C23.3163 17.5753 23.3426 17.7878 22.8373 17.7753C22.1679 17.7566 21.8988 17.2066 21.3607 17.2003C20.4682 17.1878 20.442 18.0128 19.7988 18.2441L19.8054 18.2503Z" fill="#179A3B"/>
<path fill-rule="evenodd" clip-rule="evenodd" d="M19.8058 18.3996L27.6414 18.3621V18.1621L19.6221 18.1996L19.7993 18.3996H19.8058Z" fill="#FDF9A1"/>
<path fill-rule="evenodd" clip-rule="evenodd" d="M23.0214 20.6437C23.1461 21.0812 23.2708 21.2312 23.7564 21.3499C24.2355 21.4562 24.9705 21.0124 24.5177 20.5812C24.0846 20.1812 23.6252 20.0812 23.238 19.7187C22.4177 18.9499 21.1839 17.0624 21.1839 15.7312C21.1839 14.5874 21.0658 12.2437 21.0658 10.0249C21.0658 9.88119 20.6064 10.4249 20.6064 10.5749C20.6327 12.5312 20.6327 14.0124 20.7114 15.9874C20.8427 17.4312 21.5646 18.4062 22.2011 19.2812C22.4833 19.7062 22.8968 20.1562 23.0214 20.6437Z" fill="#A79270"/>
<path d="M18.0801 14.5224C18.0626 14.4715 18.0396 14.4259 18.0111 14.3856C17.983 14.3448 17.9494 14.31 17.9103 14.2813C17.8717 14.2526 17.8278 14.2307 17.7786 14.2156C17.7294 14.2005 17.6754 14.1929 17.6167 14.1929C17.5204 14.1929 17.4329 14.2166 17.3541 14.2639C17.2753 14.3113 17.2126 14.3811 17.166 14.4733C17.1195 14.5654 17.0962 14.6785 17.0962 14.8126C17.0962 14.9466 17.1197 15.0597 17.1668 15.1519C17.2139 15.2441 17.2776 15.3138 17.358 15.3612C17.4384 15.4085 17.5289 15.4322 17.6294 15.4322C17.7225 15.4322 17.8045 15.4133 17.8754 15.3755C17.9468 15.3373 18.0023 15.2833 18.042 15.2138C18.0822 15.1438 18.1023 15.0614 18.1023 14.9667L18.1626 14.9788H17.6738V14.8126H18.2927V14.9788C18.2927 15.1063 18.2642 15.2171 18.207 15.3113C18.1504 15.4055 18.0722 15.4786 17.9722 15.5305C17.8727 15.5818 17.7585 15.6075 17.6294 15.6075C17.4855 15.6075 17.3591 15.5753 17.2501 15.5108C17.1417 15.4463 17.057 15.3546 16.9962 15.2357C16.9359 15.1168 16.9058 14.9758 16.9058 14.8126C16.9058 14.6901 16.923 14.5801 16.9573 14.4823C16.9922 14.3841 17.0414 14.3005 17.1049 14.2314C17.1684 14.1624 17.2435 14.1095 17.3303 14.0727C17.417 14.036 17.5125 14.0176 17.6167 14.0176C17.7024 14.0176 17.7823 14.0299 17.8563 14.0546C17.9309 14.0788 17.9973 14.1133 18.0555 14.1581C18.1142 14.2025 18.1631 14.2556 18.2023 14.3176C18.2414 14.379 18.2684 14.4473 18.2832 14.5224H18.0801Z" fill="#BD0728"/>
<path fill-rule="evenodd" clip-rule="evenodd" d="M17.6167 14.0842C17.5213 14.0842 17.4356 14.101 17.3587 14.1336C17.2813 14.1664 17.2144 14.2135 17.1574 14.2753C17.1008 14.337 17.0559 14.4126 17.0235 14.5036C16.9919 14.5934 16.9756 14.6961 16.9756 14.8126C16.9756 14.9681 17.0043 15.0988 17.059 15.2068C17.1146 15.3154 17.1907 15.3972 17.287 15.4545C17.3836 15.5116 17.4969 15.5411 17.6294 15.5411C17.7485 15.5411 17.851 15.5175 17.9388 15.4721C18.0274 15.4261 18.0963 15.3619 18.1464 15.2784L18.1466 15.2781C18.1966 15.1957 18.2229 15.0967 18.2229 14.9789V14.8791H17.7437V14.9124H18.0325V14.8849L18.177 14.9138L18.1712 14.9668H18.1721C18.1721 15.0705 18.1501 15.1643 18.1033 15.2457C18.0575 15.326 17.9926 15.3891 17.9096 15.4336L17.9095 15.4337C17.8267 15.4778 17.7327 15.4988 17.6294 15.4988C17.5168 15.4988 17.4135 15.4721 17.3213 15.4178C17.2282 15.363 17.1561 15.2829 17.104 15.181C17.0511 15.0774 17.0264 14.9538 17.0264 14.8126C17.0264 14.6716 17.0508 14.5481 17.1031 14.4445C17.1544 14.3428 17.2253 14.2628 17.3168 14.2078C17.4072 14.1535 17.5077 14.1265 17.6167 14.1265C17.6817 14.1265 17.743 14.1349 17.8 14.1524C17.8565 14.1697 17.9077 14.1951 17.9531 14.2289C17.9984 14.2622 18.0372 14.3023 18.0692 14.3489C18.0926 14.3819 18.1124 14.4176 18.1288 14.456H18.1931C18.18 14.419 18.1631 14.3844 18.1426 14.3522L18.1425 14.352C18.1076 14.2967 18.0642 14.2497 18.0121 14.2103L18.0116 14.2099C17.9601 14.1703 17.9011 14.1394 17.8338 14.1177L17.8333 14.1175C17.7673 14.0955 17.6953 14.0842 17.6167 14.0842ZM18.0269 15.0454H17.604V14.7461H18.3626V14.9789C18.3626 15.116 18.3318 15.2386 18.2676 15.3445C18.2046 15.4494 18.1169 15.5312 18.0056 15.5889L18.0055 15.589C17.8944 15.6464 17.7684 15.6741 17.6294 15.6741C17.4741 15.6741 17.3346 15.6392 17.2133 15.5674L17.2131 15.5673C17.0926 15.4956 16.9995 15.3941 16.9334 15.265L16.9333 15.2648C16.8675 15.135 16.8359 14.9836 16.8359 14.8126C16.8359 14.6844 16.8539 14.567 16.8911 14.4613L16.8912 14.4611C16.9287 14.3557 16.9821 14.2641 17.0524 14.1877C17.1224 14.1116 17.2057 14.0528 17.3019 14.0121C17.3984 13.9712 17.5037 13.9512 17.6167 13.9512C17.7094 13.9512 17.7971 13.9645 17.8791 13.9918C17.9608 14.0184 18.0344 14.0565 18.0991 14.1063C18.1644 14.1556 18.2187 14.2147 18.2621 14.2833C18.3058 14.352 18.3356 14.4278 18.3518 14.5102L18.3674 14.589H18.0294L18.0137 14.5431C17.9981 14.4975 17.9778 14.4576 17.9532 14.4229L17.9529 14.4225L17.9526 14.4221C17.9287 14.3873 17.9004 14.3581 17.8677 14.3341L17.8673 14.3338C17.8355 14.3102 17.799 14.2918 17.7571 14.2789C17.7157 14.2662 17.6691 14.2595 17.6167 14.2595C17.5332 14.2595 17.4586 14.2798 17.3913 14.3203C17.3252 14.36 17.2707 14.4195 17.2289 14.5022C17.1881 14.583 17.166 14.6857 17.166 14.8126C17.166 14.9396 17.1883 15.0421 17.2296 15.1229C17.2717 15.2053 17.3271 15.2649 17.3948 15.3047C17.4634 15.3452 17.541 15.3658 17.6294 15.3658C17.7123 15.3658 17.7822 15.3491 17.8412 15.3176C17.901 15.2856 17.9472 15.2408 17.9807 15.1822L17.9807 15.182C18.0035 15.1424 18.0191 15.0971 18.0269 15.0454Z" fill="white"/>
<path d="M20.0435 14.0479H20.2402V15.0726C20.2402 15.1784 20.2141 15.2728 20.1617 15.3559C20.1099 15.4386 20.0366 15.5038 19.9419 15.5517C19.8472 15.599 19.7361 15.6227 19.6086 15.6227C19.4812 15.6227 19.3701 15.599 19.2754 15.5517C19.1807 15.5038 19.1072 15.4386 19.0548 15.3559C19.003 15.2728 18.9771 15.1784 18.9771 15.0726V14.0479H19.1738V15.0574C19.1738 15.133 19.1913 15.2003 19.2262 15.2592C19.2611 15.3176 19.3108 15.3637 19.3754 15.3975C19.4404 15.4307 19.5182 15.4474 19.6086 15.4474C19.6991 15.4474 19.7769 15.4307 19.8419 15.3975C19.907 15.3637 19.9567 15.3176 19.9911 15.2592C20.026 15.2003 20.0435 15.133 20.0435 15.0574V14.0479Z" fill="#BD0728"/>
<path fill-rule="evenodd" clip-rule="evenodd" d="M18.9072 13.9805H19.2437V15.0566C19.2437 15.122 19.2587 15.1777 19.287 15.2255C19.3151 15.2727 19.3551 15.3101 19.4087 15.3382C19.4615 15.3651 19.5273 15.38 19.6087 15.38C19.69 15.38 19.7559 15.3651 19.8087 15.3381C19.8628 15.31 19.9026 15.2727 19.9302 15.2258L19.9303 15.2257C19.9586 15.1778 19.9736 15.122 19.9736 15.0566V13.9805H20.3101V15.0717C20.3101 15.1883 20.2811 15.2948 20.2216 15.3892C20.1628 15.4829 20.0799 15.5563 19.9746 15.6095L19.9744 15.6097C19.8679 15.6629 19.7453 15.6883 19.6087 15.6883C19.472 15.6883 19.3494 15.6629 19.2429 15.6097L19.2427 15.6095C19.1375 15.5564 19.0543 15.483 18.995 15.3894L18.9948 15.389C18.9359 15.2947 18.9072 15.1883 18.9072 15.0717V13.9805ZM19.0469 14.1135V15.0717C19.0469 15.1666 19.07 15.249 19.1147 15.3209C19.1601 15.3925 19.2239 15.4495 19.308 15.492C19.3909 15.5334 19.4904 15.5553 19.6087 15.5553C19.7269 15.5553 19.8264 15.5334 19.9093 15.492C19.9934 15.4494 20.0569 15.3925 20.1018 15.3209L20.1018 15.3208C20.1471 15.249 20.1704 15.1666 20.1704 15.0717V14.1135H20.1133V15.0566C20.1133 15.1422 20.0934 15.2209 20.052 15.2909C20.0108 15.3608 19.9513 15.4156 19.8753 15.455L19.8749 15.4552C19.7977 15.4947 19.7081 15.513 19.6087 15.513C19.5092 15.513 19.4196 15.4947 19.3424 15.4552L19.3418 15.4549C19.2664 15.4155 19.2071 15.3608 19.1655 15.2912L19.1654 15.291C19.1239 15.221 19.104 15.1422 19.104 15.0566V14.1135H19.0469Z" fill="white"/>
<path d="M21.4788 15.5955H21.2725L21.8691 14.0479H22.0723L22.669 15.5955H22.4627L21.9771 14.2927H21.9644L21.4788 15.5955ZM21.5549 14.9909H22.3865V15.1572H21.5549V14.9909Z" fill="#BD0728"/>
<path fill-rule="evenodd" clip-rule="evenodd" d="M21.8203 13.9805H22.1209L22.7689 15.6611H22.4133L22.2499 15.2228H21.6914L21.528 15.6611H21.1724L21.8203 13.9805ZM21.7409 15.0898H22.2003L22.1879 15.0566H21.7533L21.7409 15.0898ZM21.8029 14.9236H22.1384L21.9706 14.4736L21.8029 14.9236ZM22.2866 14.9236L22.0263 14.2253H21.915L21.6547 14.9236H21.6055L21.9178 14.1135H22.0235L22.3358 14.9236H22.2866ZM22.3981 15.2228L22.5119 15.5281H22.5689L22.4512 15.2228H22.3981ZM21.4901 15.2228H21.5432L21.4294 15.5281H21.3724L21.4901 15.2228Z" fill="white"/>
<path d="M23.4634 14.0391H23.6982L24.2505 15.3237H24.2695L24.8218 14.0391H25.0567V15.5867H24.8726V14.4109H24.8567L24.3489 15.5867H24.1712L23.6633 14.4109H23.6475V15.5867H23.4634V14.0391Z" fill="#BD0728"/>
<path fill-rule="evenodd" clip-rule="evenodd" d="M23.3936 13.9727H23.7451L24.26 15.1705L24.7749 13.9727H25.1265V15.6533H24.8028V14.7107L24.3957 15.6533H24.1244L23.7173 14.7107V15.6533H23.3936V13.9727ZM23.5332 14.1057V15.5203H23.5776V14.3445H23.7101L24.2179 15.5203H24.3021L24.8099 14.3445H24.9424V15.5203H24.9868V14.1057H24.8687L24.3164 15.3903H24.2036L23.6514 14.1057H23.5332Z" fill="white"/>
<path fill-rule="evenodd" clip-rule="evenodd" d="M17.036 10.0563C16.9376 10.2438 17.2723 10 17.351 9.975C17.7907 9.825 17.9613 9.3 18.716 9.61875C19.3067 9.8625 20.1007 9.71875 19.6873 9.96875C19.1754 10.2625 18.1451 10.5875 18.1254 12.0438C18.2107 12.1813 18.2173 12.1625 18.2895 12.0063C18.447 11.6688 19.1885 10.75 19.556 10.825C19.707 10.8625 20.1401 10.4063 20.1467 10.5375C20.1926 10.9 19.556 11.6375 19.5692 12.6188C19.5692 12.85 19.8645 12.925 20.0023 12.7625C20.1466 12.6188 20.2254 12.475 20.4748 12.2875C20.9079 11.95 20.7898 10.5 20.8423 10.5688C21.1507 10.9438 21.1967 12.025 21.656 12.4625C22.0432 12.8313 22.3517 12.65 22.2663 12.15C22.1023 11.125 21.597 11.4188 21.3542 10.3625C21.3017 10.1563 21.2885 9.975 21.5773 10.0563C21.9251 10.1563 22.1351 10.3063 22.391 10.6813C22.6535 11.0438 23.1392 11.3875 23.4213 11.5938C23.9135 11.9563 24.0907 11.6438 23.8545 11.1813C23.5544 10.656 23.0649 10.2519 22.4763 10.0438C22.0695 9.90625 21.9251 9.89375 21.5707 9.83125C21.4723 9.8125 21.3738 9.61875 21.5445 9.5125C21.924 9.25186 22.3664 9.08636 22.8307 9.03125C23.2704 9.01875 23.6182 9.35625 23.9267 9.44375C24.5435 9.59375 24.5435 9.225 24.2679 8.94375C24.0448 8.7125 23.5723 8.31875 23.1326 8.375C22.2467 8.48125 22.3057 8.45625 21.7545 8.8C21.5576 8.9125 21.3345 9.0375 21.4198 8.9C21.6167 8.55625 21.4329 8.61875 21.7413 8.26875C21.9776 8.01875 22.1548 7.83125 22.3976 7.76875C22.6207 7.7125 22.9226 7.4875 23.0079 7.36875C23.231 7.08125 23.0407 6.9125 22.6995 7.0125C22.3976 7.0875 22.2401 7.275 22.0432 7.325C21.5576 7.475 21.1704 8.5125 21.1113 8.6625C21.0392 8.8375 20.9538 8.75 20.967 8.6C21.0326 7.86875 21.0982 6.63125 20.8357 6.125C20.4157 5.375 20.4551 5.725 20.2976 6.08125C20.0613 6.64375 20.1466 7.175 20.2976 7.725C20.3632 8 20.5995 8.3125 20.6454 8.53125C20.6782 8.7 20.5404 8.48125 20.4616 8.375C20.2057 8 20.0154 7.75 19.5954 7.54375C19.1759 7.37938 18.715 7.33591 18.2698 7.41875C18.1516 7.45625 18.401 7.61875 18.4995 7.69375C18.7816 7.90625 19.3132 7.975 19.6807 8.1875C19.9826 8.36875 20.2188 8.48125 20.3238 8.73125C20.3632 8.91875 20.4288 9.19375 20.2976 9.1875C19.9629 9.16875 19.4445 8.8875 18.3682 9C17.817 9.075 17.3445 9.51875 17.036 10.0563V10.0563Z" fill="#239E46"/>
<path fill-rule="evenodd" clip-rule="evenodd" d="M19.3789 19.4121H19.6873V19.9059H19.3789V19.4121Z" fill="black"/>
<path fill-rule="evenodd" clip-rule="evenodd" d="M17.8303 16.1191C19.0641 17.7441 21.0459 18.6941 21.0853 19.4316H17.2266C18.1125 18.4191 18.6572 17.7316 17.8303 16.1191Z" fill="#FDF9FF"/>
<path fill-rule="evenodd" clip-rule="evenodd" d="M16.7082 19.4689C18.3882 19.8252 20.3897 20.0252 21.6694 19.4189C21.6826 19.7752 21.256 20.2939 20.9016 20.2939H17.686C18.0601 20.2377 18.2766 20.1314 18.8804 20.1064L17.1741 20.1189C16.9772 20.1252 16.6491 19.6439 16.7082 19.4689Z" fill="#A68861"/>
<path fill-rule="evenodd" clip-rule="evenodd" d="M20.5146 26.5621C20.6852 26.6558 20.9543 26.6496 21.1052 26.5746C30.8046 21.6558 30.8111 8.17458 21.1183 3.32458C21.0213 3.2818 20.9153 3.26068 20.8084 3.26285C20.7015 3.26501 20.5965 3.2904 20.5015 3.33708C11.0515 8.26208 11.0252 21.5871 20.5146 26.5683V26.5621ZM20.5605 25.4558C20.642 25.494 20.7315 25.5144 20.8223 25.5155C20.9131 25.5166 21.003 25.4983 21.0855 25.4621C29.1968 20.9121 29.2952 8.89333 21.0921 4.58708C20.9346 4.47458 20.7049 4.51208 20.5474 4.58708C12.7774 8.96833 12.3443 20.4933 20.5605 25.4558Z" fill="#BE0027"/>
<path d="M17.6399 14.0879C17.7887 14.0879 17.9199 14.1171 18.0337 14.1754C18.1868 14.2504 18.2809 14.3879 18.3159 14.5879H18.1124C18.0862 14.4796 18.0293 14.3962 17.9418 14.3379C17.8631 14.2879 17.7603 14.2629 17.6334 14.2629C17.489 14.2629 17.3643 14.3191 17.2593 14.4316C17.1587 14.5358 17.1084 14.6941 17.1084 14.9066C17.1084 15.0816 17.1499 15.2275 17.2331 15.3441C17.3206 15.4566 17.4584 15.5129 17.6465 15.5129C17.7909 15.5129 17.909 15.4733 18.0009 15.3941C18.1015 15.315 18.1518 15.1858 18.1518 15.0066H17.6531V14.8379H18.3487V15.6504H18.2109L18.1584 15.4504C18.0884 15.5296 18.0228 15.5858 17.9615 15.6191C17.8653 15.6691 17.7449 15.6941 17.6006 15.6941C17.4124 15.6941 17.2484 15.6358 17.1084 15.5191C16.9596 15.3691 16.8853 15.1671 16.8853 14.9129C16.8853 14.6587 16.9574 14.4566 17.1018 14.3066C17.2418 14.1608 17.4212 14.0879 17.6399 14.0879Z" fill="#BD0728"/>
<path d="M19.1889 14.1313V15.0813C19.1889 15.1896 19.2108 15.2792 19.2546 15.35C19.3158 15.4625 19.4252 15.5188 19.5827 15.5188C19.7621 15.5188 19.8868 15.4604 19.9568 15.3438C19.9918 15.2771 20.0093 15.1896 20.0093 15.0813V14.125H20.2324V14.9875C20.2324 15.1708 20.2018 15.3167 20.1405 15.425C20.0486 15.6042 19.8693 15.6938 19.6024 15.6938C19.3268 15.6938 19.1408 15.6021 19.0446 15.4187C18.9921 15.3146 18.9658 15.1708 18.9658 14.9875V14.125L19.1889 14.1313Z" fill="#BD0728"/>
<path d="M22.2076 15.0312L21.9648 14.3625L21.7023 15.0312H22.2076ZM21.8533 14.125H22.0961L22.6867 15.6562H22.4373L22.2798 15.2H21.6433L21.4661 15.6562H21.2495L21.8533 14.125Z" fill="#BD0728"/>
<path d="M23.4282 14.125H23.7498L24.2026 15.4187L24.662 14.125H24.9704V15.65H24.7604V14.3625L24.301 15.65H24.0976L23.6382 14.3625V15.65H23.4282V14.125Z" fill="#BD0728"/>
</g>
<defs>
<clipPath id="clip0_2958_61048">
<rect width="42" height="30" rx="2" fill="white"/>
</clipPath>
</defs>
</svg>
