<svg width="42" height="30" viewBox="0 0 42 30" fill="none" xmlns="http://www.w3.org/2000/svg">
<g clip-path="url(#clip0_2906_61462)">
<rect width="42" height="30" rx="2" fill="white"/>
<path d="M23.9999 18H41.9999V30H23.9999V18Z" fill="#1A47B8"/>
<path d="M0 18H18V30H0V18Z" fill="#F93939"/>
<path d="M23.9998 15.0001C23.9998 16.6569 22.6567 18.0001 20.9998 18.0001C19.343 18.0001 17.9998 16.6569 17.9998 15.0001C17.9998 13.3432 19.343 12.0001 20.9998 12.0001C22.6567 12.0001 23.9998 13.3432 23.9998 15.0001Z" fill="#249F58"/>
<path d="M21.9999 17C21.9999 17.5523 22.4476 18 22.9999 18C23.5522 18 23.9999 17.5523 23.9999 17C23.9999 16.4477 23.5522 16 22.9999 16C22.4476 16 21.9999 16.4477 21.9999 17Z" fill="#232C80"/>
<path d="M17.9998 17C17.9998 17.5523 18.4475 18 18.9998 18C19.5521 18 19.9998 17.5523 19.9998 17C19.9998 16.4477 19.5521 16 18.9998 16C18.4475 16 17.9998 16.4477 17.9998 17Z" fill="#F93939"/>
<path d="M21.9998 15C21.9998 15.5523 21.5521 16 20.9998 16C20.4475 16 19.9998 15.5523 19.9998 15C19.9998 14.4477 20.4475 14 20.9998 14C21.5521 14 21.9998 14.4477 21.9998 15Z" fill="white"/>
<path d="M24 13.0001C24 13.5523 23.5522 14.0001 23 14.0001C22.4477 14.0001 22 13.5523 22 13.0001C22 12.4478 22.4477 12.0001 23 12.0001C23.5522 12.0001 24 12.4478 24 13.0001Z" fill="#F93939"/>
<path d="M19.9998 13.0001C19.9998 13.5523 19.5521 14.0001 18.9998 14.0001C18.4476 14.0001 17.9998 13.5523 17.9998 13.0001C17.9998 12.4478 18.4476 12.0001 18.9998 12.0001C19.5521 12.0001 19.9998 12.4478 19.9998 13.0001Z" fill="#232C80"/>
<path d="M23.9999 0H41.9999V12H23.9999V0Z" fill="#F93939"/>
<path d="M0 0H18V12H0V0Z" fill="#1A47B8"/>
</g>
<defs>
<clipPath id="clip0_2906_61462">
<rect width="42" height="30" rx="2" fill="white"/>
</clipPath>
</defs>
</svg>
