<svg width="42" height="30" viewBox="0 0 42 30" fill="none" xmlns="http://www.w3.org/2000/svg">
<g clip-path="url(#clip0_2906_61501)">
<path d="M38 0H4C1.79086 0 0 1.79086 0 4V26C0 28.2091 1.79086 30 4 30H38C40.2091 30 42 28.2091 42 26V4C42 1.79086 40.2091 0 38 0Z" fill="white"/>
<path fill-rule="evenodd" clip-rule="evenodd" d="M0 18H42V30H0V18Z" fill="#249F58"/>
<path fill-rule="evenodd" clip-rule="evenodd" d="M0 0H42V12H0V0Z" fill="#AF010D"/>
<path fill-rule="evenodd" clip-rule="evenodd" d="M18.416 18L4 30.066H0V0H4L18.4 12L42 12V18L18.416 18Z" fill="#151515"/>
<path fill-rule="evenodd" clip-rule="evenodd" d="M17.8 16L1 30L0 30.066V0H1L17.8 14H42V16H17.8Z" fill="#FFDA2C"/>
<path fill-rule="evenodd" clip-rule="evenodd" d="M0 2.00001L16 15L0 28V2.00001Z" fill="#151515"/>
<path fill-rule="evenodd" clip-rule="evenodd" d="M3.30596 18.694C2.50596 17.78 1.99996 16.464 1.99996 15C1.99996 12.24 3.78996 10 5.99996 10C8.20996 10 9.99996 12.24 9.99996 15C9.99996 17.76 8.20996 20 5.99996 20V18C7.10396 18 7.99996 16.656 7.99996 15C7.99996 13.344 7.10396 12 5.99996 12C4.89596 12 3.99996 13.344 3.99996 15C3.99996 15.92 4.27596 16.74 4.70796 17.292L3.30596 18.694Z" fill="#FFDA2C"/>
</g>
<defs>
<clipPath id="clip0_2906_61501">
<rect width="42" height="30" rx="2" fill="white"/>
</clipPath>
</defs>
</svg>
