<svg width="42" height="30" viewBox="0 0 42 30" fill="none" xmlns="http://www.w3.org/2000/svg">
<g clip-path="url(#clip0_2906_60754)">
<rect width="42" height="30" rx="2" fill="#FFDA2C"/>
<path d="M38 0H4C1.79086 0 0 1.79086 0 4V26C0 28.2091 1.79086 30 4 30H38C40.2091 30 42 28.2091 42 26V4C42 1.79086 40.2091 0 38 0Z" fill="#FFDA2C"/>
<path fill-rule="evenodd" clip-rule="evenodd" d="M0 16H42V30H0V16Z" fill="#249F58"/>
<path fill-rule="evenodd" clip-rule="evenodd" d="M0 0H16V30L0 30V0Z" fill="#F93939"/>
<path fill-rule="evenodd" clip-rule="evenodd" d="M9.00006 17.5L6.06006 19.046L6.62006 15.772L4.24406 13.452L7.53006 12.978L9.00006 10L10.4701 12.98L13.7561 13.454L11.3761 15.774L11.9361 19.046" fill="#151515"/>
</g>
<defs>
<clipPath id="clip0_2906_60754">
<rect width="42" height="30" rx="2" fill="white"/>
</clipPath>
</defs>
</svg>
