<svg width="42" height="30" viewBox="0 0 42 30" fill="none" xmlns="http://www.w3.org/2000/svg">
<g clip-path="url(#clip0_2906_60697)">
<rect width="42" height="30" rx="2" fill="white"/>
<path fill-rule="evenodd" clip-rule="evenodd" d="M14 0H42V2H14V0ZM14 4H42V6H14V4ZM14 8H42V10H14V8ZM14 12H42V14H14V12ZM0 16H42V18H0V16ZM0 20H42V22H0V20ZM0 24H42V26H0V24Z" fill="#F93939"/>
<path d="M42 28H0V30H42V28Z" fill="#F93939"/>
<path fill-rule="evenodd" clip-rule="evenodd" d="M0 0H14V14H0V0Z" fill="#1A47B8"/>
<path fill-rule="evenodd" clip-rule="evenodd" d="M6.87976 9.79411L3.86376 11.3801L4.43976 8.02011L1.99976 5.64611L5.37176 5.15611L6.87976 2.10011L8.38776 5.15411L11.7598 5.64411L9.31976 8.02411L9.89576 11.3801" fill="white"/>
</g>
<defs>
<clipPath id="clip0_2906_60697">
<rect width="42" height="30" rx="2" fill="white"/>
</clipPath>
</defs>
</svg>
