<svg width="42" height="30" viewBox="0 0 42 30" fill="none" xmlns="http://www.w3.org/2000/svg">
<g clip-path="url(#clip0_2906_60778)">
<rect width="42" height="30" rx="2" fill="#FFDA2C"/>
<path fill-rule="evenodd" clip-rule="evenodd" d="M0 22H42V30H0V22Z" fill="#0A6A30"/>
<path fill-rule="evenodd" clip-rule="evenodd" d="M0 0H42V14H0V0Z" fill="#03BCDB"/>
<path fill-rule="evenodd" clip-rule="evenodd" d="M33.9478 7.94797C35.1398 7.81597 35.9998 7.43997 35.9998 6.99997C35.9998 6.55997 35.1398 6.18397 33.9478 6.05197C33.8158 4.85997 33.4398 3.99997 32.9998 3.99997C32.5598 3.99997 32.1838 4.85997 32.0518 6.05197C30.8598 6.18397 29.9998 6.55997 29.9998 6.99997C29.9998 7.43997 30.8598 7.81597 32.0518 7.94797C32.1838 9.13997 32.5598 9.99997 32.9998 9.99997C33.4398 9.99997 33.8158 9.13997 33.9478 7.94797Z" fill="#FFDA2C"/>
</g>
<defs>
<clipPath id="clip0_2906_60778">
<rect width="42" height="30" rx="2" fill="white"/>
</clipPath>
</defs>
</svg>
