<svg width="42" height="30" viewBox="0 0 42 30" fill="none" xmlns="http://www.w3.org/2000/svg">
<g clip-path="url(#clip0_2906_60758)">
<rect width="42" height="30" rx="2" fill="#151515"/>
<path fill-rule="evenodd" clip-rule="evenodd" d="M0 22H42V30H0V22Z" fill="#249F58"/>
<path fill-rule="evenodd" clip-rule="evenodd" d="M23.9999 14H25.9999V16H23.9999V14Z" fill="white"/>
<path fill-rule="evenodd" clip-rule="evenodd" d="M24.9999 18C24.0879 19.214 22.6359 20 20.9999 20C18.2399 20 15.9999 17.76 15.9999 15C15.9999 12.24 18.2399 10 20.9999 10C22.6359 10 24.0879 10.786 24.9999 12H21.9999C20.3439 12 18.9999 13.344 18.9999 15C18.9999 16.656 20.3439 18 21.9999 18H24.9999Z" fill="white"/>
<path fill-rule="evenodd" clip-rule="evenodd" d="M0 0H42V8H0V0Z" fill="#F93939"/>
</g>
<defs>
<clipPath id="clip0_2906_60758">
<rect width="42" height="30" rx="2" fill="white"/>
</clipPath>
</defs>
</svg>
