<svg width="42" height="30" viewBox="0 0 42 30" fill="none" xmlns="http://www.w3.org/2000/svg">
<g clip-path="url(#clip0_2906_60858)">
<rect width="42" height="30" rx="2" fill="#151515"/>
<path fill-rule="evenodd" clip-rule="evenodd" d="M0.00012207 20H42.0001V30H0.00012207V20Z" fill="#FFDA2C"/>
<path fill-rule="evenodd" clip-rule="evenodd" d="M0.00012207 0H42.0001V10H0.00012207V0Z" fill="#249F58"/>
<path opacity="0.35" fill-rule="evenodd" clip-rule="evenodd" d="M0.00012207 0H42.0001V10H0.00012207V0Z" fill="#1A47B8"/>
<path fill-rule="evenodd" clip-rule="evenodd" d="M0.00012207 8H42.0001V10H0.00012207V8ZM0.00012207 20H42.0001V22H0.00012207V20Z" fill="white"/>
<path fill-rule="evenodd" clip-rule="evenodd" d="M0.00012207 0V30.066L20.0001 15L0.00012207 0Z" fill="#F93939"/>
<path fill-rule="evenodd" clip-rule="evenodd" d="M6.756 17.5L3.816 19.046L4.376 15.772L2 13.452L5.286 12.978L6.756 10L8.224 12.98L11.51 13.454L9.13 15.774L9.694 19.046" fill="#FFDA2C"/>
<path fill-rule="evenodd" clip-rule="evenodd" d="M4.56055 12.7676L5.26855 12.0596L9.50855 16.3036L8.80455 17.0096L4.56055 12.7696V12.7676Z" fill="#151515"/>
<path fill-rule="evenodd" clip-rule="evenodd" d="M9.51055 12.7676L8.80455 12.0596L4.56055 16.3036L5.26855 17.0096L9.50855 12.7696L9.51055 12.7676Z" fill="#151515"/>
</g>
<defs>
<clipPath id="clip0_2906_60858">
<rect width="42" height="30" rx="2" fill="white"/>
</clipPath>
</defs>
</svg>
