<svg width="42" height="30" viewBox="0 0 42 30" fill="none" xmlns="http://www.w3.org/2000/svg">
<g clip-path="url(#clip0_2906_60732)">
<rect width="42" height="30" rx="2" fill="#F93939"/>
<path d="M38 0H4C1.79086 0 0 1.79086 0 4V26C0 28.2091 1.79086 30 4 30H38C40.2091 30 42 28.2091 42 26V4C42 1.79086 40.2091 0 38 0Z" fill="#F93939"/>
<path fill-rule="evenodd" clip-rule="evenodd" d="M0 16H42V30H0V16Z" fill="#249F58"/>
<path fill-rule="evenodd" clip-rule="evenodd" d="M20.9997 18.4999L16.8857 20.6639L17.6717 16.0839L14.3397 12.8339L18.9397 12.1659L20.9997 7.99994L23.0597 12.1679L27.6597 12.8359L24.3277 16.0819L25.1137 20.6659" fill="#FFDA2C"/>
</g>
<defs>
<clipPath id="clip0_2906_60732">
<rect width="42" height="30" rx="2" fill="white"/>
</clipPath>
</defs>
</svg>
