<svg width="42" height="30" viewBox="0 0 42 30" fill="none" xmlns="http://www.w3.org/2000/svg">
<g clip-path="url(#clip0_2906_60673)">
<rect width="42" height="30" rx="2" fill="white"/>
<path d="M38 0H4C1.79086 0 0 1.79086 0 4V26C0 28.2091 1.79086 30 4 30H38C40.2091 30 42 28.2091 42 26V4C42 1.79086 40.2091 0 38 0Z" fill="white"/>
<path fill-rule="evenodd" clip-rule="evenodd" d="M0 0H20V30H0V0Z" fill="#249F58"/>
<path fill-rule="evenodd" clip-rule="evenodd" d="M26.104 20.526C24.46 22.64 21.888 24 19 24C14.03 24 10 19.97 10 15C10 10.03 14.03 5.99998 19 5.99998C21.888 5.99998 24.46 7.35998 26.104 9.47398C24.834 8.54998 23.236 7.99998 21.5 7.99998C17.36 7.99998 14 11.134 14 15C14 18.866 17.36 22 21.5 22C23.236 22 24.834 21.45 26.104 20.526Z" fill="#F93939"/>
<path fill-rule="evenodd" clip-rule="evenodd" d="M26.0001 15L28.0001 14L29.0001 12L30.0001 14L32.0001 15L30.0001 16L29.0001 18L28.0001 16L26.0001 15Z" fill="#F93939"/>
</g>
<defs>
<clipPath id="clip0_2906_60673">
<rect width="42" height="30" rx="2" fill="white"/>
</clipPath>
</defs>
</svg>
