<svg width="42" height="30" viewBox="0 0 42 30" fill="none" xmlns="http://www.w3.org/2000/svg">
<g clip-path="url(#clip0_2906_60677)">
<rect width="42" height="30" rx="2" fill="#F93939"/>
<path d="M38 0H4C1.79086 0 0 1.79086 0 4V26C0 28.2091 1.79086 30 4 30H38C40.2091 30 42 28.2091 42 26V4C42 1.79086 40.2091 0 38 0Z" fill="#F93939"/>
<path fill-rule="evenodd" clip-rule="evenodd" d="M0 16H42V30H0V16Z" fill="#151515"/>
<path fill-rule="evenodd" clip-rule="evenodd" d="M24.9019 19.1719C25.7699 18.0079 26.2819 16.5639 26.2819 14.9999C26.2819 12.0659 24.4759 9.55394 21.9159 8.51194L20.7059 10.2059C22.7739 10.8199 24.2819 12.7339 24.2819 14.9999C24.2819 16.1879 23.8679 17.2799 23.1759 18.1359L16.2819 13.9999L21.6739 19.3919C20.9639 19.7799 20.1479 19.9999 19.2819 19.9999C17.6019 19.9999 16.1159 19.1719 15.2099 17.8999L13.9999 19.5939C15.2819 21.0679 17.1719 21.9999 19.2819 21.9999C20.7019 21.9999 22.0259 21.5759 23.1299 20.8479L24.2819 21.9999L26.2819 19.9999L24.9019 19.1719ZM16.2819 9.99994H18.2819V11.9999H16.2819V9.99994Z" fill="#FFDA2C"/>
</g>
<defs>
<clipPath id="clip0_2906_60677">
<rect width="42" height="30" rx="2" fill="white"/>
</clipPath>
</defs>
</svg>
