<svg width="42" height="30" viewBox="0 0 42 30" fill="none" xmlns="http://www.w3.org/2000/svg">
<g clip-path="url(#clip0_2906_60834)">
<rect width="42" height="30" rx="2" fill="#3A99FF"/>
<path d="M38 0H4C1.79086 0 0 1.79086 0 4V26C0 28.2091 1.79086 30 4 30H38C40.2091 30 42 28.2091 42 26V4C42 1.79086 40.2091 0 38 0Z" fill="#3A99FF"/>
<path fill-rule="evenodd" clip-rule="evenodd" d="M0 0H42V16H0V0Z" fill="#249F58"/>
<path fill-rule="evenodd" clip-rule="evenodd" d="M0 0L42 15L0 30V0Z" fill="#F93939"/>
<path fill-rule="evenodd" clip-rule="evenodd" d="M18.0001 15C18.0001 12.24 15.7601 10 13.0001 9.00002C10.2401 10 8.00008 12.24 8.00008 15C8.00008 17.42 9.72008 19.436 12.0001 19.9V12.996C12.0001 12.446 12.4641 12 13.0001 12C13.5521 12 14.0001 12.43 14.0001 12.996V19.9C16.2801 19.436 18.0001 17.42 18.0001 15ZM20.0001 15C20.0001 11.134 16.8661 8.00002 13.0001 9.00002C9.13408 8.00002 6.00008 11.134 6.00008 15C6.00008 18.866 9.13408 22 13.0001 22C16.8661 22 20.0001 18.866 20.0001 15Z" fill="#FFDA2C"/>
</g>
<defs>
<clipPath id="clip0_2906_60834">
<rect width="42" height="30" rx="2" fill="white"/>
</clipPath>
</defs>
</svg>
