<svg width="42" height="30" viewBox="0 0 42 30" fill="none" xmlns="http://www.w3.org/2000/svg">
<g clip-path="url(#clip0_2906_60653)">
<rect width="42" height="30" rx="2" fill="#FFDA2C"/>
<path fill-rule="evenodd" clip-rule="evenodd" d="M0 24H42V30H0V24ZM0 0H42V6H0V0Z" fill="#4769C1"/>
<path fill-rule="evenodd" clip-rule="evenodd" d="M0 8.00004H42V22H0V8.00004Z" fill="#BC0A33"/>
<path fill-rule="evenodd" clip-rule="evenodd" d="M8.00004 16.0001H34V18.0001H8.00004V16.0001ZM12 12.0001H32V14.0001H12V12.0001Z" fill="#FFDA2C"/>
<path fill-rule="evenodd" clip-rule="evenodd" d="M32 12.0001H36.0002V14.0001H32V12.0001Z" fill="#CBCBCB"/>
<path fill-rule="evenodd" clip-rule="evenodd" d="M20.9998 20C25.9698 20 29.9998 15 29.9998 15C29.9998 15 25.9698 10 20.9998 10C16.0298 10 11.9998 15 11.9998 15C11.9998 15 16.0298 20 20.9998 20Z" fill="white"/>
<path fill-rule="evenodd" clip-rule="evenodd" d="M25.9999 14H27.9999V16H25.9999V14Z" fill="#151515"/>
<path fill-rule="evenodd" clip-rule="evenodd" d="M20.9998 20C21.9998 20 23.9998 15 23.9998 15C23.9998 15 21.9998 10 20.9998 10C16.0298 10 11.9998 15 11.9998 15C11.9998 15 16.0298 20 20.9998 20Z" fill="#151515"/>
<path fill-rule="evenodd" clip-rule="evenodd" d="M15.9999 14H17.9999V16H15.9999V14ZM19.9999 14H21.9999V16H19.9999V14Z" fill="#CBCBCB"/>
</g>
<defs>
<clipPath id="clip0_2906_60653">
<rect width="42" height="30" rx="2" fill="white"/>
</clipPath>
</defs>
</svg>
