<svg width="42" height="30" viewBox="0 0 42 30" fill="none" xmlns="http://www.w3.org/2000/svg">
<g clip-path="url(#clip0_2906_60661)">
<path d="M38 0H4C1.79086 0 0 1.79086 0 4V26C0 28.2091 1.79086 30 4 30H38C40.2091 30 42 28.2091 42 26V4C42 1.79086 40.2091 0 38 0Z" fill="#FFDA2C"/>
<path fill-rule="evenodd" clip-rule="evenodd" d="M0 20H42V30H0V20Z" fill="#F93939"/>
<path fill-rule="evenodd" clip-rule="evenodd" d="M0 0H42V10H0V0Z" fill="#249F58"/>
<path d="M20.9998 24.0001C25.9703 24.0001 29.9998 19.9706 29.9998 15.0001C29.9998 10.0295 25.9703 6.00008 20.9998 6.00008C16.0292 6.00008 11.9998 10.0295 11.9998 15.0001C11.9998 19.9706 16.0292 24.0001 20.9998 24.0001Z" fill="#1A47B8"/>
<path fill-rule="evenodd" clip-rule="evenodd" d="M20.9962 17.5L18.0562 19.046L18.6162 15.772L16.2402 13.452L19.5262 12.978L20.9962 9.99801L22.4642 12.978L25.7502 13.452L23.3702 15.772L23.9342 19.044" fill="#FFDA2C"/>
</g>
<defs>
<clipPath id="clip0_2906_60661">
<rect width="42" height="30" rx="2" fill="white"/>
</clipPath>
</defs>
</svg>
