<svg width="42" height="30" viewBox="0 0 42 30" fill="none" xmlns="http://www.w3.org/2000/svg">
<g clip-path="url(#clip0_2906_60750)">
<rect width="42" height="30" rx="2" fill="white"/>
<path fill-rule="evenodd" clip-rule="evenodd" d="M-0.000183105 20H41.9998V30H-0.000183105V20Z" fill="#F93939"/>
<path fill-rule="evenodd" clip-rule="evenodd" d="M23 16C23.552 16 24 15.552 24 15C24 14.448 23.552 14 23 14C22.448 14 22 14.448 22 15C22 15.552 22.448 16 23 16ZM27 16C27.552 16 28 15.552 28 15C28 14.448 27.552 14 27 14C26.448 14 26 14.448 26 15C26 15.552 26.448 16 27 16Z" fill="#00B731"/>
<path fill-rule="evenodd" clip-rule="evenodd" d="M23.9997 14H25.9997V18H23.9997V14Z" fill="#AE6A3E"/>
<path fill-rule="evenodd" clip-rule="evenodd" d="M21 14.0001C21.552 14.0001 22 13.5521 22 13.0001C22 12.4481 21.552 12.0001 21 12.0001C20.448 12.0001 20 12.4481 20 13.0001C20 13.5521 20.448 14.0001 21 14.0001ZM25 14.0001C25.552 14.0001 26 13.5521 26 13.0001C26 12.4481 25.552 12.0001 25 12.0001C24.448 12.0001 24 12.4481 24 13.0001C24 13.5521 24.448 14.0001 25 14.0001ZM29 14.0001C29.552 14.0001 30 13.5521 30 13.0001C30 12.4481 29.552 12.0001 29 12.0001C28.448 12.0001 28 12.4481 28 13.0001C28 13.5521 28.448 14.0001 29 14.0001Z" fill="#FFDA2C"/>
<path fill-rule="evenodd" clip-rule="evenodd" d="M-0.000183105 0H41.9998V10H-0.000183105V0Z" fill="#00B731"/>
<path fill-rule="evenodd" clip-rule="evenodd" d="M-0.000183105 0V30.066L13.9998 15L-0.000183105 0Z" fill="#3A99FF"/>
</g>
<defs>
<clipPath id="clip0_2906_60750">
<rect width="42" height="30" rx="2" fill="white"/>
</clipPath>
</defs>
</svg>
