<svg width="42" height="30" viewBox="0 0 42 30" fill="none" xmlns="http://www.w3.org/2000/svg">
<g clip-path="url(#clip0_2906_60665)">
<path d="M38 0H4C1.79086 0 0 1.79086 0 4V26C0 28.2091 1.79086 30 4 30H38C40.2091 30 42 28.2091 42 26V4C42 1.79086 40.2091 0 38 0Z" fill="white"/>
<path fill-rule="evenodd" clip-rule="evenodd" d="M0 20H42V30H0V20Z" fill="#FFDA2C"/>
<path fill-rule="evenodd" clip-rule="evenodd" d="M0 16H42V22H0V16Z" fill="#249F58"/>
<path fill-rule="evenodd" clip-rule="evenodd" d="M0 0H42V10H0V0Z" fill="#1A47B8"/>
<path fill-rule="evenodd" clip-rule="evenodd" d="M6.00008 4.00002H8.00008V6.00002H6.00008V4.00002Z" fill="#FFDA2C"/>
<path fill-rule="evenodd" clip-rule="evenodd" d="M4.00012 3.99996L6.00008 4.00002V6.00002L4.00012 5.99996V3.99996ZM8.00008 4.00002L10.0001 3.99996V5.99996L8.00008 6.00002V4.00002ZM6.00008 6.00002H8.00008L8.00012 7.99996H6.00012L6.00008 6.00002ZM6.00012 1.99996H8.00012L8.00008 4.00002H6.00008L6.00012 1.99996Z" fill="#D4AF2C"/>
<path fill-rule="evenodd" clip-rule="evenodd" d="M18 0H24V30H18V0Z" fill="#F93939"/>
</g>
<defs>
<clipPath id="clip0_2906_60665">
<rect width="42" height="30" rx="2" fill="white"/>
</clipPath>
</defs>
</svg>
