<svg width="42" height="30" viewBox="0 0 42 30" fill="none" xmlns="http://www.w3.org/2000/svg">
<rect width="42" height="30" rx="2" fill="#151515"/>
<path fill-rule="evenodd" clip-rule="evenodd" d="M0 22H42V30H0V22Z" fill="#0A6A30"/>
<path fill-rule="evenodd" clip-rule="evenodd" d="M0 20.0001H42V22H0V20.0001Z" fill="white"/>
<path fill-rule="evenodd" clip-rule="evenodd" d="M0 10.0001H42V20.0001H0V10.0001Z" fill="#F93939"/>
<path fill-rule="evenodd" clip-rule="evenodd" d="M0 8H42V10.0001H0V8Z" fill="white"/>
<path fill-rule="evenodd" clip-rule="evenodd" d="M24.8283 11.8281C24.9723 11.8281 25.8283 10.4881 25.8283 8.82813C25.8283 7.17213 24.9723 5.82812 24.8283 5.82812C24.6883 5.82812 23.8283 7.17213 23.8283 8.82813C23.8283 10.4881 24.6883 11.8281 24.8283 11.8281ZM18.9503 10.9501C18.8503 11.0501 17.2903 10.7101 16.1223 9.53613C14.9523 8.36413 14.6083 6.80813 14.7103 6.70813C14.8103 6.60813 16.3663 6.94812 17.5383 8.12212C18.7103 9.29412 19.0523 10.8501 18.9523 10.9521L18.9503 10.9501ZM22.7083 20.0161C22.8083 19.9221 24.3683 20.2421 25.5383 21.3361C26.7083 22.4361 27.0523 23.8901 26.9523 23.9841C26.8523 24.0781 25.2923 23.7581 24.1203 22.6641C22.9503 21.5641 22.6063 20.1101 22.7083 20.0161ZM18.9503 20.0161C18.8503 19.9221 17.2903 20.2421 16.1223 21.3361C14.9523 22.4361 14.6083 23.8901 14.7103 23.9841C14.8103 24.0781 16.3663 23.7581 17.5383 22.6641C18.7103 21.5641 19.0523 20.1101 18.9523 20.0161H18.9503Z" fill="white"/>
<path fill-rule="evenodd" clip-rule="evenodd" d="M21.0001 24.0002C21.7141 24.0002 26.0001 19.9702 26.0001 15.0002C26.0001 10.0302 21.7141 6.00022 21.0001 6.00022C20.2861 6.00022 16.0001 10.0302 16.0001 15.0002C16.0001 19.9702 20.2861 24.0002 21.0001 24.0002Z" fill="#F93939"/>
<path fill-rule="evenodd" clip-rule="evenodd" d="M17.0001 18.0002C17.1401 18.0002 18.0001 16.6562 18.0001 15.0002C18.0001 13.3442 17.1401 12.0002 17.0001 12.0002C16.8601 12.0002 16.0001 13.3442 16.0001 15.0002C16.0001 16.6562 16.8601 18.0002 17.0001 18.0002ZM25.0001 18.0002C25.1401 18.0002 26.0001 16.6562 26.0001 15.0002C26.0001 13.3442 25.1401 12.0002 25.0001 12.0002C24.8601 12.0002 24.0001 13.3442 24.0001 15.0002C24.0001 16.6562 24.8601 18.0002 25.0001 18.0002Z" fill="#151515"/>
<path d="M22 15.0002C22 13.3433 21.5523 12.0002 21 12.0002C20.4477 12.0002 20 13.3433 20 15.0002C20 16.6571 20.4477 18.0002 21 18.0002C21.5523 18.0002 22 16.6571 22 15.0002Z" fill="white"/>
</svg>
