<svg width="42" height="30" viewBox="0 0 42 30" fill="none" xmlns="http://www.w3.org/2000/svg">
<g clip-path="url(#clip0_2906_60806)">
<rect width="42" height="30" rx="2" fill="white"/>
<path fill-rule="evenodd" clip-rule="evenodd" d="M0 22H42V30H0V22Z" fill="#232C80"/>
<path fill-rule="evenodd" clip-rule="evenodd" d="M0 15H42V22H0V15Z" fill="#F93939"/>
<path fill-rule="evenodd" clip-rule="evenodd" d="M0 0H42V8H0V0Z" fill="#FFDA2C"/>
<path fill-rule="evenodd" clip-rule="evenodd" d="M0 0L24 15L0 30V0Z" fill="#00B731"/>
<path fill-rule="evenodd" clip-rule="evenodd" d="M12.0001 21.68C11.4201 21.888 10.8001 22 10.1541 22C6.75412 22 4.00012 18.866 4.00012 15C4.00012 11.134 6.75612 8.00004 10.1541 8.00004C10.7981 8.00004 11.4181 8.11204 12.0001 8.32004C9.50412 9.21204 7.69212 11.866 7.69212 15C7.69212 18.134 9.50412 20.788 12.0001 21.68ZM12.0001 10H14.0001V12H12.0001V10ZM12.0001 14H14.0001V16H12.0001V14ZM12.0001 18H14.0001V20H12.0001V18Z" fill="white"/>
</g>
<defs>
<clipPath id="clip0_2906_60806">
<rect width="42" height="30" rx="2" fill="white"/>
</clipPath>
</defs>
</svg>
