<svg width="42" height="30" viewBox="0 0 42 30" fill="none" xmlns="http://www.w3.org/2000/svg">
<rect width="42" height="30" rx="2" fill="#F93939"/>
<path d="M20.9999 22C24.8659 22 27.9999 18.866 27.9999 15C27.9999 11.134 24.8659 8 20.9999 8C17.1339 8 13.9999 11.134 13.9999 15C13.9999 18.866 17.1339 22 20.9999 22Z" fill="white"/>
<path fill-rule="evenodd" clip-rule="evenodd" d="M23.9999 14H25.9999V16H23.9999V14Z" fill="#F93939"/>
<path fill-rule="evenodd" clip-rule="evenodd" d="M25 18C24.088 19.214 22.636 20 21 20C18.24 20 16 17.76 16 15C16 12.24 18.24 10 21 10C22.636 10 24.088 10.786 25 12H22C20.344 12 19 13.344 19 15C19 16.656 20.344 18 22 18H25Z" fill="#F93939"/>
</svg>
