<svg width="141" height="141" viewBox="0 0 141 141" fill="none" xmlns="http://www.w3.org/2000/svg">
<path d="M141 70.505C141 77.3874 140.015 84.051 138.165 90.3367C129.612 119.617 102.56 141 70.505 141C41.3741 141 16.3805 123.346 5.62926 98.154C2.00903 89.6604 0 80.3214 0 70.505C0 31.5676 31.5676 0 70.505 0C109.442 0 141 31.5676 141 70.505Z" fill="#8481FF"/>
<path d="M26.1716 63.9769C28.4058 59.5294 34.114 60.0079 38.4795 61.381C40.4372 61.9967 41.1466 64.26 40.0265 65.9797C38.9672 67.6062 37.5449 69.5922 35.9494 71.296C34.3858 72.9658 32.6508 74.421 31.2663 75.4846C29.816 76.5988 27.7413 76.3128 26.8242 74.7303C25.2458 72.0064 24.069 68.1625 26.1716 63.9769Z" fill="#593FFA"/>
<path opacity="0.36" d="M78.1159 109.527C90.7473 111.562 102.648 103.044 104.698 90.5008C106.747 77.9579 98.1685 66.1402 85.5371 64.1053C72.9058 62.0703 61.0047 70.5887 58.9554 83.1316C56.9061 95.6745 65.4846 107.492 78.1159 109.527Z" fill="#572DFF"/>
<path opacity="0.36" fill-rule="evenodd" clip-rule="evenodd" d="M2.41245 88.8491C0.840003 83.0004 0 76.8525 0 70.5051C0 64.9481 0.642968 59.5412 1.85856 54.3547C2.22514 54.3906 2.59294 54.4381 2.96156 54.4974C12.491 56.0327 18.9628 64.9483 17.4168 74.411C16.1489 82.1713 9.88226 87.8896 2.41245 88.8491Z" fill="#572DFF"/>
<path fill-rule="evenodd" clip-rule="evenodd" d="M50.6789 50.8756C50.0622 50.7619 49.463 51.1546 49.3493 51.7713C47.8885 59.6938 50.1625 66.7539 54.4284 67.5405C58.6944 68.3271 63.3368 62.5423 64.7977 54.6198C64.9114 54.0031 64.4917 53.4226 63.875 53.3089L50.6789 50.8756Z" fill="#1A2A38"/>
<path fill-rule="evenodd" clip-rule="evenodd" d="M22.3205 44.3868C21.9043 44.2623 21.4623 44.4878 21.3378 44.904C19.7393 50.2473 20.7759 55.2766 23.6531 56.1373C26.5302 56.9981 30.1584 53.3642 31.7569 48.0209C31.8814 47.6048 31.6358 47.1735 31.2197 47.049L22.3205 44.3868Z" fill="#1A2A38"/>
</svg>
