<svg width="141" height="141" viewBox="0 0 141 141" fill="none" xmlns="http://www.w3.org/2000/svg">
<path d="M141 70.505C141 77.3874 140.015 84.051 138.165 90.3367C129.612 119.617 102.56 141 70.505 141C41.3741 141 16.3805 123.346 5.62926 98.154C2.00903 89.6604 0 80.3214 0 70.505C0 31.5676 31.5676 0 70.505 0C109.442 0 141 31.5676 141 70.505Z" fill="#57E8B4"/>
<path opacity="0.36" d="M110.335 111.038C120.732 112.713 130.527 105.701 132.214 95.3778C133.901 85.0542 126.84 75.3274 116.444 73.6525C106.047 71.9776 96.2518 78.9888 94.5651 89.3124C92.8784 99.636 99.939 109.363 110.335 111.038Z" fill="#089F69"/>
<path opacity="0.36" d="M24.2164 111.64C33.7458 113.175 42.7243 106.749 44.2704 97.2861C45.8164 87.8234 39.3446 78.9078 29.8151 77.3725C20.2857 75.8373 11.3072 82.2638 9.76117 91.7265C8.21512 101.189 14.6869 110.105 24.2164 111.64Z" fill="#089F69"/>
<path fill-rule="evenodd" clip-rule="evenodd" d="M24.6523 56C20.6379 56 17.5383 59.5294 18.0568 63.5102L20.2312 80.2069C20.6627 83.5203 23.4854 85.9993 26.8268 85.9993H56.1669C59.5082 85.9993 62.3309 83.5203 62.7625 80.207L64.0592 70.25H73.6258L74.9226 80.2077C75.3541 83.5211 78.1769 86 81.5182 86H110.858C114.2 86 117.022 83.5211 117.454 80.2077L119.628 63.511C120.147 59.5301 117.047 56.0007 113.033 56.0007H79.3438C75.3293 56.0007 72.2297 59.5301 72.7482 63.511L72.8444 64.25H64.8406L64.9369 63.5103C65.4554 59.5294 62.3558 56 58.3413 56H24.6523ZM23.4621 64.0676C23.1851 62.0685 24.7381 60.2855 26.7563 60.2855H56.2354C58.2536 60.2855 59.8066 62.0685 59.5296 64.0676L57.482 78.8444C57.2541 80.489 55.8482 81.7135 54.1878 81.7135H28.8039C27.1436 81.7135 25.7376 80.489 25.5097 78.8444L23.4621 64.0676ZM78.1555 64.0683C77.8785 62.0692 79.4315 60.2862 81.4497 60.2862H110.929C112.947 60.2862 114.5 62.0692 114.223 64.0683L112.175 78.8451C111.947 80.4897 110.542 81.7143 108.881 81.7143H83.4972C81.8369 81.7143 80.431 80.4897 80.2031 78.8451L78.1555 64.0683Z" fill="#00603E"/>
<path d="M62.7937 80.9214C64.8953 76.7378 70.2647 77.1879 74.371 78.4795C76.2125 79.0587 76.8798 81.1876 75.8262 82.8052C74.8298 84.3352 73.4919 86.2033 71.9912 87.806C70.5203 89.3767 68.8883 90.7455 67.586 91.7459C66.2218 92.794 64.2702 92.525 63.4076 91.0364C61.9228 88.4742 60.8159 84.8585 62.7937 80.9214Z" fill="#007D50"/>
<path d="M86 69.5L103 70.5" stroke="#213546" stroke-width="2" stroke-linecap="round"/>
<path d="M86 69.5L103 70.5" stroke="black" stroke-opacity="0.2" stroke-width="2" stroke-linecap="round"/>
<path d="M86 71.5L103 72.5" stroke="#213546" stroke-width="2" stroke-linecap="round"/>
<path d="M86 71.5L103 72.5" stroke="black" stroke-opacity="0.2" stroke-width="2" stroke-linecap="round"/>
<path d="M86 73.5L103 74.5" stroke="#213546" stroke-width="2" stroke-linecap="round"/>
<path d="M86 73.5L103 74.5" stroke="black" stroke-opacity="0.2" stroke-width="2" stroke-linecap="round"/>
<path d="M53 69L36 70" stroke="#213546" stroke-width="2" stroke-linecap="round"/>
<path d="M53 69L36 70" stroke="black" stroke-opacity="0.2" stroke-width="2" stroke-linecap="round"/>
<path d="M53 71L36 72" stroke="#213546" stroke-width="2" stroke-linecap="round"/>
<path d="M53 71L36 72" stroke="black" stroke-opacity="0.2" stroke-width="2" stroke-linecap="round"/>
<path d="M53 73L36 74" stroke="#213546" stroke-width="2" stroke-linecap="round"/>
<path d="M53 73L36 74" stroke="black" stroke-opacity="0.2" stroke-width="2" stroke-linecap="round"/>
</svg>
