<svg width="141" height="141" viewBox="0 0 141 141" fill="none" xmlns="http://www.w3.org/2000/svg">
<path d="M141 70.505C141 77.3874 140.015 84.051 138.165 90.3367C129.612 119.617 102.56 141 70.505 141C41.3741 141 16.3805 123.346 5.62926 98.154C2.00903 89.6604 0 80.3214 0 70.505C0 31.5676 31.5676 0 70.505 0C109.442 0 141 31.5676 141 70.505Z" fill="#C4EAFF"/>
<path opacity="0.36" d="M108.335 110.038C118.732 111.713 128.527 104.701 130.214 94.3778C131.901 84.0542 124.84 74.3274 114.444 72.6525C104.047 70.9776 94.2518 77.9888 92.5651 88.3124C90.8784 98.636 97.939 108.363 108.335 110.038Z" fill="#6BC7FB"/>
<path opacity="0.36" d="M24.2164 111.64C33.7458 113.175 42.7243 106.749 44.2704 97.2861C45.8164 87.8234 39.3446 78.9078 29.8151 77.3725C20.2857 75.8373 11.3072 82.2638 9.76117 91.7265C8.21512 101.189 14.6869 110.105 24.2164 111.64Z" fill="#6BC7FB"/>
<path d="M62.7937 80.9214C64.8953 76.7378 70.2647 77.1879 74.371 78.4795C76.2125 79.0587 76.8798 81.1876 75.8262 82.8052C74.8298 84.3352 73.4919 86.2033 71.9912 87.806C70.5203 89.3767 68.8883 90.7455 67.586 91.7459C66.2218 92.794 64.2702 92.525 63.4076 91.0364C61.9228 88.4742 60.8159 84.8585 62.7937 80.9214Z" fill="#47B4F0"/>
<path d="M53.7072 70.64C50.7235 70.1172 43.7615 71.609 39.7832 74.6183" stroke="#1A2A38" stroke-width="5" stroke-linecap="round" stroke-linejoin="round"/>
<path d="M82.5487 70.64C85.5324 70.1172 92.4944 71.609 96.4727 74.6183" stroke="#1A2A38" stroke-width="5" stroke-linecap="round" stroke-linejoin="round"/>
</svg>
