<svg width="141" height="141" viewBox="0 0 141 141" fill="none" xmlns="http://www.w3.org/2000/svg">
<path d="M141 70.505C141 77.3874 140.015 84.051 138.165 90.3367C129.612 119.617 102.56 141 70.505 141C41.3741 141 16.3805 123.346 5.62926 98.154C2.00903 89.6604 0 80.3214 0 70.505C0 31.5676 31.5676 0 70.505 0C109.442 0 141 31.5676 141 70.505Z" fill="#FF8B71"/>
<path d="M95.9802 81.4033C98.7972 83.456 97.7661 87.3968 96.3163 90.2388C95.712 91.4234 94.1916 91.642 93.2058 90.7462C92.1986 89.831 90.9555 88.5984 89.9389 87.272C88.9366 85.9645 88.1134 84.5555 87.5403 83.472C86.9898 82.4316 87.3823 81.1481 88.4731 80.7123C90.5072 79.8997 93.3113 79.4586 95.9802 81.4033Z" fill="#C54327"/>
<path d="M103.643 71.6973C101.952 68.4914 100.82 61.7006 104.565 56.4087" stroke="#21262C" stroke-width="5" stroke-linecap="round"/>
<path d="M101.446 113.967C99.755 110.761 98.623 103.97 102.368 98.6782" stroke="#21262C" stroke-width="5" stroke-linecap="round"/>
<path d="M69.5402 110.91C74.0769 109.847 85.0468 109.768 92.6325 117.961" stroke="#C54327" stroke-width="3" stroke-linecap="round" stroke-linejoin="round"/>
</svg>
