<svg width="141" height="141" viewBox="0 0 141 141" fill="none" xmlns="http://www.w3.org/2000/svg">
<path d="M141 70.505C141 77.3874 140.015 84.051 138.165 90.3367C129.612 119.617 102.56 141 70.505 141C41.3741 141 16.3805 123.346 5.62926 98.154C2.00903 89.6604 0 80.3214 0 70.505C0 31.5676 31.5676 0 70.505 0C109.442 0 141 31.5676 141 70.505Z" fill="#96E756"/>
<path d="M68.1397 46.6754C71.9334 46.0051 74.2495 41.2116 73.3129 35.9689C72.3763 30.7263 68.5417 27.0197 64.748 27.69C60.9543 28.3604 58.6382 33.1538 59.5748 38.3965C60.5114 43.6392 64.3461 47.3458 68.1397 46.6754Z" fill="#213546"/>
<path d="M68.1397 46.6754C71.9334 46.0051 74.2495 41.2116 73.3129 35.9689C72.3763 30.7263 68.5417 27.0197 64.748 27.69C60.9543 28.3604 58.6382 33.1538 59.5748 38.3965C60.5114 43.6392 64.3461 47.3458 68.1397 46.6754Z" fill="black" fill-opacity="0.2"/>
<path d="M104.843 36.0658C108.464 34.751 109.918 29.6299 108.091 24.6274C106.264 19.6249 101.848 16.6353 98.2266 17.9501C94.6055 19.2648 93.1509 24.3859 94.9779 29.3884C96.8048 34.3909 101.221 37.3805 104.843 36.0658Z" fill="#213546"/>
<path d="M104.843 36.0658C108.464 34.751 109.918 29.6299 108.091 24.6274C106.264 19.6249 101.848 16.6353 98.2266 17.9501C94.6055 19.2648 93.1509 24.3859 94.9779 29.3884C96.8048 34.3909 101.221 37.3805 104.843 36.0658Z" fill="black" fill-opacity="0.2"/>
<path d="M93.4094 39.0728C97.9236 39.971 98.9007 45.1773 98.7501 49.4065C98.6825 51.3032 96.8393 52.4921 95.0309 51.9165C93.3204 51.372 91.2003 50.5925 89.289 49.5891C87.416 48.6058 85.6921 47.4169 84.4036 46.4442C83.0536 45.4253 82.7985 43.5054 83.9837 42.2988C86.0238 40.2219 89.1611 38.2276 93.4094 39.0728Z" fill="#107107"/>
<path opacity="0.36" fill-rule="evenodd" clip-rule="evenodd" d="M119.924 20.2249C128.82 28.9718 135.405 40.062 138.679 52.4954C135.746 53.5368 132.513 53.8776 129.221 53.3472C118.824 51.6723 111.763 41.9456 113.45 31.622C114.206 26.9971 116.589 23.037 119.924 20.2249Z" fill="#40C82A"/>
<path opacity="0.36" d="M45.8498 84.3989C56.5567 86.1238 66.6445 78.9033 68.3815 68.2715C70.1186 57.6397 62.8472 47.6225 52.1403 45.8976C41.4335 44.1727 31.3457 51.3932 29.6087 62.0251C27.8716 72.6569 35.143 82.674 45.8498 84.3989Z" fill="#40C82A"/>
</svg>
