<svg width="141" height="141" viewBox="0 0 141 141" fill="none" xmlns="http://www.w3.org/2000/svg">
<path d="M141 70.505C141 77.3874 140.015 84.051 138.165 90.3367C129.612 119.617 102.56 141 70.505 141C41.3741 141 16.3805 123.346 5.62926 98.154C2.00903 89.6604 0 80.3214 0 70.505C0 31.5676 31.5676 0 70.505 0C109.442 0 141 31.5676 141 70.505Z" fill="#FFADCA"/>
<path d="M30.2283 93.257C34.2811 93.0073 37.278 88.2636 36.9222 82.6616C36.5664 77.0597 32.9925 72.7209 28.9397 72.9707C24.887 73.2204 21.89 77.9641 22.2459 83.566C22.6017 89.168 26.1756 93.5068 30.2283 93.257Z" fill="#213546"/>
<path d="M30.2283 93.257C34.2811 93.0073 37.278 88.2636 36.9222 82.6616C36.5664 77.0597 32.9925 72.7209 28.9397 72.9707C24.887 73.2204 21.89 77.9641 22.2459 83.566C22.6017 89.168 26.1756 93.5068 30.2283 93.257Z" fill="black" fill-opacity="0.2"/>
<path d="M45.6873 89.5215C48.0139 84.89 53.9582 85.3883 58.5042 86.8182C60.5429 87.4594 61.2816 89.8163 60.1152 91.6071C59.012 93.3009 57.531 95.369 55.8695 97.1433C54.2412 98.8821 52.4344 100.397 50.9927 101.505C49.4824 102.665 47.3219 102.367 46.3669 100.72C44.7231 97.883 43.4977 93.8802 45.6873 89.5215Z" fill="#FF4EB8"/>
<path opacity="0.36" d="M91.4272 121.972C101.824 123.647 111.619 116.636 113.306 106.313C114.992 95.989 107.932 86.2623 97.5353 84.5874C87.1389 82.9125 77.3436 89.9236 75.6569 100.247C73.9702 110.571 81.0308 120.298 91.4272 121.972Z" fill="#FF80A6"/>
<path opacity="0.36" fill-rule="evenodd" clip-rule="evenodd" d="M23.5725 123.117C15.8948 116.265 9.72683 107.757 5.62847 98.154C5.13774 97.0027 4.67662 95.8358 4.24609 94.6544C8.0561 91.1823 13.3732 89.4157 18.8739 90.3018C28.4033 91.8371 34.8751 100.753 33.3291 110.215C32.3737 116.063 28.5803 120.751 23.5725 123.117Z" fill="#FF80A6"/>
<path d="M78.0101 70.6144C74.5566 71.7489 67.1327 75.5193 65.065 81.5246C68.147 81.2391 75.3567 81.2659 79.5397 83.6567" stroke="#213546" stroke-width="3.79566" stroke-linecap="round" stroke-linejoin="round"/>
<path d="M78.0101 70.6144C74.5566 71.7489 67.1327 75.5193 65.065 81.5246C68.147 81.2391 75.3567 81.2659 79.5397 83.6567" stroke="black" stroke-opacity="0.2" stroke-width="3.79566" stroke-linecap="round" stroke-linejoin="round"/>
</svg>
