<svg width="141" height="141" viewBox="0 0 141 141" fill="none" xmlns="http://www.w3.org/2000/svg">
<path d="M141 70.505C141 77.3874 140.015 84.051 138.165 90.3367C129.612 119.617 102.56 141 70.505 141C41.3741 141 16.3805 123.346 5.62926 98.154C2.00903 89.6604 0 80.3214 0 70.505C0 31.5676 31.5676 0 70.505 0C109.442 0 141 31.5676 141 70.505Z" fill="#6ADBFF"/>
<ellipse cx="67.63" cy="61.1661" rx="29.8371" ry="19.3941" fill="#44BCFF"/>
<path d="M60.741 79.927C62.8426 75.7434 68.212 76.1935 72.3183 77.4851C74.1598 78.0643 74.8271 80.1933 73.7735 81.8109C72.777 83.3408 71.4392 85.2089 69.9384 86.8116C68.4676 88.3823 66.8355 89.7511 65.5333 90.7515C64.169 91.7997 62.2175 91.5306 61.3549 90.042C59.8701 87.4798 58.7632 83.8641 60.741 79.927Z" fill="#0094E8"/>
<path d="M43.2637 57.1877L54.2039 58.6796" stroke="#1A2A38" stroke-width="3" stroke-linecap="round" stroke-linejoin="round"/>
<path d="M86.5273 54.7012L77.5762 58.6794" stroke="#1A2A38" stroke-width="3" stroke-linecap="round" stroke-linejoin="round"/>
<path d="M58.6797 57.6851L59.177 59.6742" stroke="#1A2A38" stroke-width="3" stroke-linecap="round" stroke-linejoin="round"/>
<path d="M63.6523 57.6851L64.1496 59.6742" stroke="#1A2A38" stroke-width="3" stroke-linecap="round" stroke-linejoin="round"/>
<path fill-rule="evenodd" clip-rule="evenodd" d="M78.7291 62.6582C78.102 62.6579 77.5838 63.1525 77.5835 63.7796C77.5799 71.8357 81.0935 78.3679 85.4314 78.3699C89.7693 78.3718 93.2887 71.8426 93.2923 63.7866C93.2926 63.1595 92.7748 62.6645 92.1478 62.6642L78.7291 62.6582Z" fill="#1A2A38"/>
<path fill-rule="evenodd" clip-rule="evenodd" d="M42.9244 62.6582C42.2973 62.6579 41.7791 63.1525 41.7788 63.7796C41.7752 71.8357 45.2888 78.3679 49.6267 78.3699C53.9646 78.3718 57.484 71.8426 57.4876 63.7866C57.4879 63.1595 56.9701 62.6645 56.3431 62.6642L42.9244 62.6582Z" fill="#1A2A38"/>
<path d="M102.937 46.7446C102.937 53.8843 98.2548 59.674 92.4941 59.674C98.2548 59.674 102.937 65.4637 102.937 72.6034C102.937 65.4637 107.619 59.674 113.38 59.674C107.619 59.674 102.937 53.8843 102.937 46.7446Z" fill="white"/>
<path d="M110.895 36.7991C110.895 41.7419 107.55 45.7502 103.436 45.7502C107.55 45.7502 110.895 49.7585 110.895 54.7013C110.895 49.7585 114.239 45.7502 118.354 45.7502C114.239 45.7502 110.895 41.7419 110.895 36.7991Z" fill="white"/>
</svg>
