<svg width="141" height="141" viewBox="0 0 141 141" fill="none" xmlns="http://www.w3.org/2000/svg">
<path d="M141 70.505C141 77.3874 140.015 84.051 138.165 90.3367C129.612 119.617 102.56 141 70.505 141C41.3741 141 16.3805 123.346 5.62926 98.154C2.00903 89.6604 0 80.3214 0 70.505C0 31.5676 31.5676 0 70.505 0C109.442 0 141 31.5676 141 70.505Z" fill="#FFAE64"/>
<path opacity="0.36" d="M69.7216 84.9688C81.6561 84.7375 91.1996 76.895 91.0375 67.4522C90.8755 58.0093 81.0693 50.5419 69.1348 50.7733C57.2002 51.0046 47.6568 58.8471 47.8188 68.2899C47.9808 77.7328 57.787 85.2002 69.7216 84.9688Z" fill="#FF5D17"/>
<path d="M45.7578 78.0346C50.9007 77.7177 54.7038 71.698 54.2523 64.5892C53.8007 57.4804 49.2655 51.9745 44.1226 52.2914C38.9797 52.6083 35.1766 58.628 35.6281 65.7368C36.0797 72.8456 40.6149 78.3515 45.7578 78.0346Z" fill="#213546"/>
<path d="M45.7578 78.0346C50.9007 77.7177 54.7038 71.698 54.2523 64.5892C53.8007 57.4804 49.2655 51.9745 44.1226 52.2914C38.9797 52.6083 35.1766 58.628 35.6281 65.7368C36.0797 72.8456 40.6149 78.3515 45.7578 78.0346Z" fill="black" fill-opacity="0.2"/>
<path d="M92.502 76.0456C97.6449 75.7287 101.448 69.7089 100.996 62.6002C100.545 55.4914 96.0097 49.9855 90.8668 50.3024C85.7238 50.6193 81.9207 56.639 82.3723 63.7478C82.8238 70.8566 87.3591 76.3625 92.502 76.0456Z" fill="#213546"/>
<path d="M92.502 76.0456C97.6449 75.7287 101.448 69.7089 100.996 62.6002C100.545 55.4914 96.0097 49.9855 90.8668 50.3024C85.7238 50.6193 81.9207 56.639 82.3723 63.7478C82.8238 70.8566 87.3591 76.3625 92.502 76.0456Z" fill="black" fill-opacity="0.2"/>
<path d="M63.4807 75.8584C66.6497 71.9439 72.1895 73.6494 76.2087 75.9494C78.0112 76.9808 78.2238 79.3715 76.7452 80.8297C75.3468 82.2089 73.512 83.8652 71.5668 85.2051C69.6604 86.5183 67.631 87.5822 66.0327 88.3348C64.3583 89.1232 62.369 88.3924 61.8041 86.63C60.8317 83.5964 60.4983 79.5422 63.4807 75.8584Z" fill="#E46000"/>
<path d="M38.5539 61.2394C38.2115 59.951 39.0651 58.777 39.9481 58.002C40.574 57.4527 41.2616 56.9119 42.0701 56.7122C43.9749 56.2418 46.598 57.4733 47.5893 58.4059C48.794 59.5393 48.794 63.5061 43.9753 65.7729C39.1566 68.0397 39.1562 63.5061 38.5539 61.2394Z" fill="white"/>
<path d="M45.91 71.4032C45.5752 70.7336 46.1762 69.6438 46.8502 68.7614C47.3912 68.0531 48.227 67.4546 49.0927 67.6669C50.2227 67.9442 50.3319 69.2423 50.801 70.1805C51.4124 71.4032 50.1896 72.0146 48.9669 72.626C47.7441 73.2374 46.5213 72.626 45.91 71.4032Z" fill="white"/>
<path d="M85.3 59.2501C84.9576 57.9617 85.8112 56.7878 86.6942 56.0128C87.3201 55.4634 88.0077 54.9226 88.8162 54.723C90.721 54.2525 93.3441 55.4841 94.3354 56.4167C95.5401 57.5501 95.5401 61.5169 90.7214 63.7836C85.9026 66.0504 85.9023 61.5169 85.3 59.2501Z" fill="white"/>
<path d="M92.6541 69.414C92.3193 68.7444 92.9203 67.6546 93.5943 66.7722C94.1354 66.0638 94.9712 65.4653 95.8368 65.6777C96.9669 65.9549 97.076 67.253 97.5451 68.1912C98.1565 69.414 96.9338 70.0254 95.711 70.6367C94.4883 71.2481 93.2655 70.6367 92.6541 69.414Z" fill="white"/>
</svg>
