<svg width="141" height="141" viewBox="0 0 141 141" fill="none" xmlns="http://www.w3.org/2000/svg">
    <path d="M141 70.505C141 77.3874 140.015 84.051 138.165 90.3367C129.612 119.617 102.56 141 70.505 141C41.3741 141 16.3805 123.346 5.62926 98.154C2.00903 89.6604 0 80.3214 0 70.505C0 31.5676 31.5676 0 70.505 0C109.442 0 141 31.5676 141 70.505Z"
          fill="#FFD56A"/>
    <path opacity="0.36"
          d="M107.962 105.699C118.329 107.547 128.24 100.701 130.099 90.4065C131.957 80.1125 125.06 70.2693 114.693 68.4212C104.326 66.5731 94.4151 73.4199 92.5564 83.714C90.6977 94.008 97.5951 103.851 107.962 105.699Z"
          fill="#FFA800"/>
    <path opacity="0.36"
          d="M23.8292 105.898C33.3317 107.592 42.4161 101.316 44.1198 91.8807C45.8235 82.4451 39.5013 73.4228 29.9988 71.7288C20.4963 70.0349 11.4119 76.3107 9.70816 85.7463C8.00447 95.1819 14.3267 104.204 23.8292 105.898Z"
          fill="#FFA800"/>
    <path d="M48.2042 79.1016C52.1189 78.9259 55.0871 74.3967 54.834 68.9855C54.5808 63.5742 51.2021 59.33 47.2874 59.5058C43.3727 59.6815 40.4045 64.2107 40.6576 69.6219C40.9108 75.0332 44.2895 79.2774 48.2042 79.1016Z"
          fill="#213546"/>
    <path d="M48.2042 79.1016C52.1189 78.9259 55.0871 74.3967 54.834 68.9855C54.5808 63.5742 51.2021 59.33 47.2874 59.5058C43.3727 59.6815 40.4045 64.2107 40.6576 69.6219C40.9108 75.0332 44.2895 79.2774 48.2042 79.1016Z"
          fill="black" fill-opacity="0.2"/>
    <path d="M89.0148 77.0191C92.9294 76.8434 95.8977 72.3142 95.6445 66.903C95.3913 61.4917 92.0126 57.2475 88.0979 57.4232C84.1833 57.599 81.215 62.1281 81.4682 67.5394C81.7213 72.9506 85.1001 77.1948 89.0148 77.0191Z"
          fill="#213546"/>
    <path d="M89.0148 77.0191C92.9294 76.8434 95.8977 72.3142 95.6445 66.903C95.3913 61.4917 92.0126 57.2475 88.0979 57.4232C84.1833 57.599 81.215 62.1281 81.4682 67.5394C81.7213 72.9506 85.1001 77.1948 89.0148 77.0191Z"
          fill="black" fill-opacity="0.2"/>
    <path d="M62.9116 75.8274C65.0827 71.6795 70.4438 72.2191 74.528 73.579C76.3596 74.1888 76.9913 76.3286 75.9109 77.9284C74.889 79.4415 73.5202 81.287 71.9929 82.8645C70.4961 84.4104 68.8414 85.7518 67.5227 86.7304C66.1411 87.7556 64.1943 87.454 63.3567 85.9513C61.9148 83.3646 60.8684 79.731 62.9116 75.8274Z"
          fill="#FAA83F"/>
</svg>
