<svg width="141" height="141" viewBox="0 0 141 141" fill="none" xmlns="http://www.w3.org/2000/svg">
<path d="M141 70.505C141 77.3874 140.015 84.051 138.165 90.3367C129.612 119.617 102.56 141 70.505 141C41.3741 141 16.3805 123.346 5.62926 98.154C2.00903 89.6604 0 80.3214 0 70.505C0 31.5676 31.5676 0 70.505 0C109.442 0 141 31.5676 141 70.505Z" fill="#FF95FA"/>
<path opacity="0.36" d="M108.335 98.1028C118.732 99.7777 128.527 92.7666 130.214 82.443C131.901 72.1193 124.84 62.3926 114.444 60.7177C104.047 59.0428 94.2518 66.054 92.5651 76.3776C90.8784 86.7012 97.939 96.4279 108.335 98.1028Z" fill="#DE7EFF"/>
<path opacity="0.36" d="M26.2047 96.7213C35.7341 98.2566 44.7126 91.8301 46.2586 82.3674C47.8047 72.9047 41.3329 63.9891 31.8034 62.4538C22.274 60.9186 13.2955 67.3451 11.7495 76.8078C10.2034 86.2705 16.6752 95.1861 26.2047 96.7213Z" fill="#DE7EFF"/>
<path d="M62.7918 76.9431C64.8934 72.7595 70.2628 73.2097 74.369 74.5012C76.2106 75.0804 76.8779 77.2094 75.8243 78.827C74.8278 80.3569 73.49 82.225 71.9892 83.8277C70.5184 85.3984 68.8863 86.7672 67.5841 87.7676C66.2198 88.8158 64.2683 88.5467 63.4056 87.0581C61.9209 84.4959 60.8139 80.8802 62.7918 76.9431Z" fill="#D52DFF"/>
<path d="M55.6954 38.891C52.7117 38.3681 45.7498 39.86 41.7715 42.8692" stroke="#1A2A38" stroke-width="3" stroke-linecap="round" stroke-linejoin="round"/>
<path d="M84.5389 38.891C87.5226 38.3681 94.4846 39.86 98.4629 42.8692" stroke="#1A2A38" stroke-width="3" stroke-linecap="round" stroke-linejoin="round"/>
<path d="M54.709 71.0727C59.8519 70.7558 63.655 64.736 63.2035 57.6272C62.7519 50.5185 58.2167 45.0126 53.0738 45.3295C47.9309 45.6464 44.1278 51.6661 44.5793 58.7749C45.0309 65.8837 49.5661 71.3896 54.709 71.0727Z" fill="#213546"/>
<path d="M54.709 71.0727C59.8519 70.7558 63.655 64.736 63.2035 57.6272C62.7519 50.5185 58.2167 45.0126 53.0738 45.3295C47.9309 45.6464 44.1278 51.6661 44.5793 58.7749C45.0309 65.8837 49.5661 71.3896 54.709 71.0727Z" fill="black" fill-opacity="0.2"/>
<path d="M47.5051 54.2772C47.1627 52.9888 48.0163 51.8149 48.8993 51.0399C49.5252 50.4905 50.2128 49.9497 51.0213 49.7501C52.9261 49.2796 55.5492 50.5112 56.5405 51.4438C57.7452 52.5772 57.7452 56.544 52.9265 58.8107C48.1077 61.0775 48.1074 56.544 47.5051 54.2772Z" fill="white"/>
<path d="M54.8611 64.4411C54.5263 63.7715 55.1274 62.6817 55.8014 61.7993C56.3424 61.0909 57.1782 60.4924 58.0438 60.7048C59.1739 60.982 59.2831 62.2801 59.7522 63.2183C60.3636 64.4411 59.1408 65.0525 57.918 65.6638C56.6953 66.2752 55.4725 65.6638 54.8611 64.4411Z" fill="white"/>
<path d="M83.8111 70.6939C88.9021 71.4886 93.909 66.4259 94.9944 59.386C96.0798 52.346 92.8325 45.9947 87.7415 45.2C82.6505 44.4053 77.6436 49.468 76.5582 56.5079C75.4728 63.5479 78.7201 69.8991 83.8111 70.6939Z" fill="#213546"/>
<path d="M83.8111 70.6939C88.9021 71.4886 93.909 66.4259 94.9944 59.386C96.0798 52.346 92.8325 45.9947 87.7415 45.2C82.6505 44.4053 77.6436 49.468 76.5582 56.5079C75.4728 63.5479 78.7201 69.8991 83.8111 70.6939Z" fill="black" fill-opacity="0.2"/>
<path d="M80.382 52.7439C80.3243 51.4121 81.41 50.4488 82.4388 49.8814C83.1681 49.4793 83.9557 49.0988 84.7883 49.0773C86.7497 49.0269 89.0472 50.7929 89.8151 51.9167C90.7483 53.2823 89.8966 57.1566 84.7035 58.3358C79.5105 59.515 80.4836 55.0872 80.382 52.7439Z" fill="white"/>
<path d="M85.385 64.2499C85.2018 63.524 86.0228 62.5887 86.8706 61.8716C87.5511 61.296 88.4959 60.8909 89.2957 61.2841C90.3399 61.7975 90.1678 63.0888 90.4245 64.1059C90.7591 65.4314 89.4336 65.7659 88.1081 66.1005C86.7826 66.4351 85.7196 65.5754 85.385 64.2499Z" fill="white"/>
</svg>
